<svg width="267" height="449" viewBox="0 0 267 449" fill="none" xmlns="http://www.w3.org/2000/svg">
<path d="M153.981 412.132L176.894 412.679L176.303 437.275L153.39 436.728L153.981 412.132Z" fill="url(#paint0_linear_242_340)"/>
<path d="M124.232 443.774C131.8 440.88 151.72 432.488 153.491 431.737C161.878 438.225 172.227 434.72 176.351 432.157C179.988 439.722 179.748 446.904 179.189 448.852C179.189 448.852 164.573 448.64 124.096 449C120.477 449.032 120.552 445.179 124.232 443.774Z" fill="#02449F"/>
<path d="M176.351 432.157C179.988 439.722 179.748 446.904 179.189 448.852C179.189 448.852 171.936 448.744 153.491 448.812C151.366 447.367 147.283 443.938 147.946 441.778C148.776 439.083 156.984 435.674 157.133 433.917C156.091 433.454 155.061 432.875 154.056 432.157C151.145 434.225 144.519 437.574 143.321 437.786C142.122 437.997 141.756 437.474 141.473 436.768C147.438 434.288 152.626 432.105 153.491 431.737C153.678 431.881 153.867 432.021 154.056 432.157C155.061 432.875 156.091 433.454 157.133 433.917C164.672 437.255 172.806 434.36 176.351 432.157Z" fill="#0E63D8"/>
<path d="M150.361 439.143L146.41 436.504L147.293 436.065L151.216 438.588L150.361 439.143Z" fill="#5B9AF2"/>
<path d="M154.878 436.137L150.711 434.229L151.571 433.746L155.706 435.546L154.878 436.137Z" fill="#5B9AF2"/>
<path d="M149.01 440.281L148.44 435.466L149.335 434.983L149.808 439.566L149.01 440.281Z" fill="#5B9AF2"/>
<path d="M153.211 437.199L152.667 433.075L153.531 432.532L154.111 436.632L153.211 437.199Z" fill="#5B9AF2"/>
<path d="M179.189 448.852C179.189 448.852 164.574 448.636 124.097 449C122.521 449.016 121.637 448.269 121.448 447.315L179.465 447.095C179.413 447.842 179.309 448.437 179.189 448.852Z" fill="#43193D"/>
<path d="M204.081 412.024L226.996 412.447L226.545 437.047L203.63 436.624L204.081 412.024Z" fill="url(#paint1_linear_242_340)"/>
<path d="M174.535 443.774C182.104 440.88 202.021 432.488 203.793 431.737C212.181 438.225 222.529 434.72 226.653 432.157C230.294 439.722 230.054 446.904 229.491 448.852C229.491 448.852 214.876 448.64 174.399 449C170.778 449.032 170.854 445.179 174.535 443.774Z" fill="#02449F"/>
<path d="M226.653 432.157C230.294 439.722 230.054 446.904 229.491 448.852C229.491 448.852 222.237 448.744 203.793 448.812C201.67 447.367 197.585 443.938 198.248 441.778C199.079 439.083 207.287 435.674 207.434 433.917C206.392 433.454 205.362 432.875 204.36 432.157C201.446 434.225 194.823 437.574 193.621 437.786C192.424 437.997 192.06 437.474 191.777 436.768C197.741 434.288 202.931 432.105 203.793 431.737C203.981 431.881 204.169 432.021 204.36 432.157C205.362 432.875 206.392 433.454 207.434 433.917C214.976 437.255 223.112 434.36 226.653 432.157Z" fill="#0E63D8"/>
<path d="M200.663 439.143L196.711 436.504L197.593 436.065L201.518 438.588L200.663 439.143Z" fill="#5E9DF3"/>
<path d="M205.179 436.137L201.015 434.229L201.873 433.746L206.009 435.546L205.179 436.137Z" fill="#5E9DF3"/>
<path d="M199.314 440.281L198.743 435.466L199.637 434.983L200.113 439.566L199.314 440.281Z" fill="#5E9DF3"/>
<path d="M203.514 437.199L202.971 433.075L203.833 432.532L204.412 436.632L203.514 437.199Z" fill="#5E9DF3"/>
<path d="M229.491 448.852C229.491 448.852 214.876 448.636 174.399 449C172.822 449.016 171.94 448.269 171.752 447.315L229.771 447.095C229.715 447.842 229.611 448.437 229.491 448.852Z" fill="#43193D"/>
<path d="M182.271 428.216C182.547 431.226 149.622 431.901 149.622 428.216C136.155 356.614 131.25 291.196 123.389 218.472H175.732C173.373 253.368 175.553 320.201 175.732 330.043C175.912 339.885 179.026 392.877 182.271 428.216Z" fill="#196EE3"/>
<path d="M182.271 428.216C182.547 431.226 149.622 431.901 149.622 428.216C136.155 356.614 131.25 291.196 123.389 218.472H175.732C173.373 253.368 175.553 320.201 175.732 330.043C175.912 339.885 179.026 392.877 182.271 428.216Z" fill="url(#paint2_linear_242_340)"/>
<path d="M182.271 428.216C182.547 431.226 149.622 431.901 149.622 428.216C136.155 356.614 131.25 291.196 123.389 218.472H175.732C173.373 253.368 175.553 320.201 175.732 330.043C175.912 339.885 179.026 392.877 182.271 428.216Z" fill="url(#paint3_linear_242_340)"/>
<path d="M182.271 428.216C182.547 431.226 149.622 431.901 149.622 428.216C136.155 356.614 131.25 291.196 123.389 218.472H175.732C173.373 253.368 175.553 320.201 175.732 330.043C175.912 339.885 179.026 392.877 182.271 428.216Z" fill="url(#paint4_linear_242_340)"/>
<path fill-rule="evenodd" clip-rule="evenodd" d="M156.774 430.452L132.912 218.496L133.309 218.451L157.171 430.408L156.774 430.452ZM166.32 430.739L146.49 218.492L146.888 218.455L166.717 430.704L166.32 430.739ZM175.533 430.212L161.012 218.487L161.41 218.459L175.932 430.185L175.533 430.212Z" fill="#004DBB"/>
<path d="M231.419 428.141C231.419 432.851 201.266 431.514 200.859 428.141C196.575 392.714 174.63 261.829 174.63 261.829C174.63 242.209 175.229 218.343 175.229 218.343H221.599L226.529 317.332C226.529 317.332 231.419 407.884 231.419 428.141Z" fill="#196EE3"/>
<path d="M231.419 428.141C231.419 432.851 201.266 431.514 200.859 428.141C196.575 392.714 174.63 261.829 174.63 261.829C174.63 242.209 175.229 218.343 175.229 218.343H221.599L226.529 317.332C226.529 317.332 231.419 407.884 231.419 428.141Z" fill="url(#paint5_linear_242_340)"/>
<path d="M231.419 428.141C231.419 432.851 201.266 431.514 200.859 428.141C196.575 392.714 174.63 261.829 174.63 261.829C174.63 242.209 175.229 218.343 175.229 218.343H221.599L226.529 317.332C226.529 317.332 231.419 407.884 231.419 428.141Z" fill="url(#paint6_linear_242_340)"/>
<path d="M231.419 428.141C231.419 432.851 201.266 431.514 200.859 428.141C196.575 392.714 174.63 261.829 174.63 261.829C174.63 242.209 175.229 218.343 175.229 218.343H221.599L226.529 317.332C226.529 317.332 231.419 407.884 231.419 428.141Z" fill="url(#paint7_linear_242_340)"/>
<path fill-rule="evenodd" clip-rule="evenodd" d="M207.989 430.556L180.183 218.369L180.579 218.317L208.388 430.504L207.989 430.556ZM217.57 431.111L193.761 218.365L194.156 218.32L217.97 431.067L217.57 431.111ZM226.784 430.584L208.281 218.36L208.68 218.325L227.184 430.548L226.784 430.584Z" fill="#004DBB"/>
<path d="M124.7 232.013C121.553 230.636 116.097 229.632 114.212 227.091L135.521 174.561C136.007 151.384 136.956 102.781 136.867 93.7928C136.756 82.5572 143.096 78.664 144.765 77.329C146.1 76.2611 162.009 71.9723 169.796 69.961C163.145 107.134 149.617 182.217 148.72 185.166C147.598 188.852 137.484 212.591 133.674 222.671C129.863 232.751 128.634 233.734 124.7 232.013Z" fill="#196EE3"/>
<path fill-rule="evenodd" clip-rule="evenodd" d="M149.807 180.933C149.34 183.334 149.028 184.843 148.912 185.225C148.347 187.08 145.532 193.95 142.39 201.597L141.984 202.587C138.95 209.973 135.684 217.922 133.862 222.742C132.909 225.263 132.115 227.221 131.398 228.712C130.683 230.2 130.038 231.239 129.376 231.908C128.707 232.585 128.017 232.889 127.229 232.897C126.456 232.905 125.608 232.628 124.621 232.196C123.844 231.856 122.921 231.538 121.937 231.21C121.761 231.152 121.583 231.093 121.403 231.034C120.583 230.762 119.736 230.481 118.914 230.176C116.924 229.436 115.034 228.534 114.053 227.211L113.986 227.121L135.337 174.487L135.708 174.637L114.441 227.061C115.363 228.233 117.106 229.078 119.053 229.802C119.867 230.104 120.707 230.382 121.526 230.653C121.706 230.713 121.885 230.772 122.063 230.832C123.046 231.159 123.985 231.482 124.781 231.831C125.761 232.259 126.542 232.505 127.225 232.498C127.893 232.491 128.486 232.241 129.092 231.628C129.706 231.006 130.328 230.017 131.038 228.539C131.747 227.065 132.536 225.12 133.488 222.601C135.313 217.775 138.58 209.822 141.613 202.439L142.021 201.446C145.169 193.783 147.972 186.94 148.53 185.109C148.638 184.753 148.945 183.272 149.415 180.856C149.884 178.449 150.512 175.13 151.261 171.113C152.759 163.079 154.742 152.255 156.905 140.363C161.231 116.577 166.276 88.5132 169.6 69.9271L169.995 69.9973C166.669 88.5838 161.624 116.648 157.298 140.434C155.135 152.327 153.152 163.151 151.654 171.186C150.904 175.203 150.276 178.524 149.807 180.933Z" fill="#004CBA"/>
<path d="M180.279 67.2814C187.322 75.5521 200.524 70.8026 203.801 67.8751V37.8398L185.082 50.3725L180.279 67.2814Z" fill="#F5B68B"/>
<path d="M180.279 67.2814C187.322 75.5521 200.524 70.8026 203.801 67.8751V37.8398L185.082 50.3725L180.279 67.2814Z" fill="url(#paint8_linear_242_340)"/>
<path d="M148.72 185.168C147.598 188.854 137.485 212.593 133.674 222.672H190.707L209.115 70.4512L203.801 67.8759C203.801 67.8759 205.558 60.6216 203.678 62.0229C201.793 63.4241 184.435 63.4413 181.796 61.8444C179.154 60.248 180.279 67.2822 180.279 67.2822C175.592 68.5797 171.341 69.6101 169.796 69.9626C163.146 107.136 149.618 182.218 148.72 185.168Z" fill="#08B681"/>
<path d="M148.72 185.168C147.598 188.854 137.485 212.593 133.674 222.672H190.707L209.115 70.4512L203.801 67.8759C203.801 67.8759 205.558 60.6216 203.678 62.0229C201.793 63.4241 184.435 63.4413 181.796 61.8444C179.154 60.248 180.279 67.2822 180.279 67.2822C175.592 68.5797 171.341 69.6101 169.796 69.9626C163.146 107.136 149.618 182.218 148.72 185.168Z" fill="url(#paint9_linear_242_340)"/>
<path fill-rule="evenodd" clip-rule="evenodd" d="M182.85 64.4897C182.918 64.4018 182.902 64.2769 182.814 64.2102C182.726 64.1435 182.599 64.1603 182.535 64.2481C182.251 64.6178 181.864 65.5859 182.531 66.5329C182.766 66.8698 182.711 67.2219 182.499 67.5641C182.287 67.9114 181.94 68.2108 181.677 68.3777C181.585 68.4372 181.561 68.5609 181.617 68.6535C181.677 68.7462 181.8 68.7733 181.896 68.7134C182.188 68.5258 182.587 68.1868 182.842 67.7721C183.098 67.3513 183.218 66.8171 182.854 66.3033C182.323 65.5488 182.635 64.7771 182.85 64.4897ZM186.543 65.1612C186.611 65.0733 186.591 64.948 186.503 64.8813C186.415 64.8146 186.292 64.8318 186.224 64.9196C185.944 65.2889 185.553 66.257 186.22 67.2044C186.459 67.5413 186.399 67.8934 186.192 68.2352C185.98 68.5825 185.629 68.8819 185.369 69.0492C185.278 69.1086 185.25 69.232 185.309 69.325C185.369 69.4176 185.493 69.4444 185.585 69.3849C185.876 69.1973 186.28 68.8583 186.531 68.4431C186.791 68.0228 186.91 67.4886 186.547 66.9744C186.016 66.2203 186.323 65.4486 186.543 65.1612ZM190.116 65.427C190.204 65.4937 190.22 65.6191 190.156 65.7069C189.936 65.9943 189.629 66.766 190.16 67.5206C190.519 68.0343 190.4 68.5685 190.144 68.9889C189.892 69.4041 189.489 69.743 189.198 69.9306C189.106 69.9901 188.982 69.9634 188.922 69.8708C188.863 69.7781 188.89 69.6544 188.982 69.5949C189.242 69.4276 189.593 69.1286 189.805 68.7813C190.012 68.4392 190.068 68.087 189.833 67.7501C189.166 66.8028 189.557 65.835 189.837 65.4654C189.904 65.3775 190.028 65.3604 190.116 65.427ZM194.312 65.7069C194.376 65.6191 194.36 65.4937 194.272 65.427C194.184 65.3604 194.06 65.3775 193.992 65.4654C193.713 65.835 193.322 66.8028 193.988 67.7501C194.224 68.087 194.168 68.4392 193.961 68.7813C193.749 69.1286 193.398 69.4276 193.138 69.5949C193.046 69.6544 193.018 69.7781 193.078 69.8708C193.138 69.9634 193.262 69.9901 193.354 69.9306C193.645 69.743 194.048 69.4041 194.3 68.9889C194.555 68.5685 194.675 68.0343 194.316 67.5206C193.785 66.766 194.092 65.9943 194.312 65.7069ZM198.428 65.427C198.516 65.4937 198.532 65.6191 198.468 65.7069C198.248 65.9943 197.941 66.766 198.472 67.5206C198.831 68.0343 198.711 68.5685 198.456 68.9889C198.204 69.4041 197.801 69.743 197.51 69.9306C197.418 69.9901 197.294 69.9634 197.234 69.8708C197.174 69.7781 197.202 69.6544 197.294 69.5949C197.554 69.4276 197.905 69.1286 198.116 68.7813C198.324 68.4392 198.38 68.087 198.144 67.7501C197.478 66.8028 197.869 65.835 198.148 65.4654C198.216 65.3775 198.34 65.3604 198.428 65.427ZM202.077 64.4897C202.145 64.4018 202.129 64.2769 202.041 64.2102C201.953 64.1435 201.825 64.1603 201.761 64.2481C201.482 64.6178 201.091 65.5859 201.757 66.5329C201.993 66.8698 201.937 67.2219 201.725 67.5641C201.514 67.9114 201.167 68.2108 200.903 68.3777C200.811 68.4372 200.787 68.5609 200.843 68.6535C200.903 68.7462 201.027 68.7733 201.123 68.7134C201.414 68.5258 201.813 68.1868 202.069 67.7721C202.324 67.3513 202.444 66.8171 202.085 66.3033C201.554 65.5488 201.861 64.7771 202.077 64.4897Z" fill="#04995F"/>
<path d="M174.722 10.3739C163.46 23.8707 172.974 52.0827 178.451 54.094C183.924 56.1053 203.773 48.9209 203.773 48.9209C211.175 13.8382 185.984 -3.12225 174.722 10.3739Z" fill="#F5B68B"/>
<path d="M174.722 10.3739C163.46 23.8707 172.974 52.0827 178.451 54.094C183.924 56.1053 203.773 48.9209 203.773 48.9209C211.175 13.8382 185.984 -3.12225 174.722 10.3739Z" fill="url(#paint10_linear_242_340)"/>
<path d="M195.418 26.436C193.957 27.0349 187.417 31.2546 182.842 26.0648C178.267 20.8749 174.73 19.2443 169.86 22.0531C168.53 20.6558 158.651 14.3794 159.289 10.0678C160.088 2.88199 163.681 15.4571 169.868 7.67227C176.055 -0.11252 182.842 -2.50788 190.028 5.27739C197.214 13.0627 198.013 5.87622 204.799 7.67227C211.586 9.46832 218.341 26.0648 210.788 31.2546C215.267 34.4272 209.007 42.2871 204.636 44.1985L203.801 49.7904C203.402 46.7962 201.007 38.3707 201.406 37.6142C205.191 30.4478 198.013 27.4341 198.013 36.0452C195.018 30.6278 195.154 29.0976 195.418 26.436Z" fill="#50273F"/>
<path d="M195.418 26.436C193.957 27.0349 187.417 31.2546 182.842 26.0648C178.267 20.8749 174.73 19.2443 169.86 22.0531C168.53 20.6558 158.651 14.3794 159.289 10.0678C160.088 2.88199 163.681 15.4571 169.868 7.67227C176.055 -0.11252 182.842 -2.50788 190.028 5.27739C197.214 13.0627 198.013 5.87622 204.799 7.67227C211.586 9.46832 218.341 26.0648 210.788 31.2546C215.267 34.4272 209.007 42.2871 204.636 44.1985L203.801 49.7904C203.402 46.7962 201.007 38.3707 201.406 37.6142C205.191 30.4478 198.013 27.4341 198.013 36.0452C195.018 30.6278 195.154 29.0976 195.418 26.436Z" fill="url(#paint11_linear_242_340)"/>
<path d="M195.418 26.436C193.957 27.0349 187.417 31.2546 182.842 26.0648C178.267 20.8749 174.73 19.2443 169.86 22.0531C168.53 20.6558 158.651 14.3794 159.289 10.0678C160.088 2.88199 163.681 15.4571 169.868 7.67227C176.055 -0.11252 182.842 -2.50788 190.028 5.27739C197.214 13.0627 198.013 5.87622 204.799 7.67227C211.586 9.46832 218.341 26.0648 210.788 31.2546C215.267 34.4272 209.007 42.2871 204.636 44.1985L203.801 49.7904C203.402 46.7962 201.007 38.3707 201.406 37.6142C205.191 30.4478 198.013 27.4341 198.013 36.0452C195.018 30.6278 195.154 29.0976 195.418 26.436Z" fill="url(#paint12_linear_242_340)"/>
<path d="M182.319 171.507L203.905 67.9278L236.805 83.0758C231.755 112.553 221.527 172.664 220.992 177.29C220.457 181.915 228.657 228.979 228.657 232.716C228.657 236.453 220.193 237.823 208.017 237.823C195.841 237.823 186.906 226.519 186.244 222.955C185.717 220.103 183.405 187.468 182.319 171.507Z" fill="#196EE3"/>
<path d="M182.319 171.507L203.905 67.9278L236.805 83.0758C231.755 112.553 221.527 172.664 220.992 177.29C220.457 181.915 228.657 228.979 228.657 232.716C228.657 236.453 220.193 237.823 208.017 237.823C195.841 237.823 186.906 226.519 186.244 222.955C185.717 220.103 183.405 187.468 182.319 171.507Z" fill="url(#paint13_linear_242_340)"/>
<path d="M182.319 171.507L203.905 67.9278L236.805 83.0758C231.755 112.553 221.527 172.664 220.992 177.29C220.457 181.915 228.657 228.979 228.657 232.716C228.657 236.453 220.193 237.823 208.017 237.823C195.841 237.823 186.906 226.519 186.244 222.955C185.717 220.103 183.405 187.468 182.319 171.507Z" fill="url(#paint14_linear_242_340)"/>
<path fill-rule="evenodd" clip-rule="evenodd" d="M203.709 67.887L204.101 67.9685L182.519 171.521C183.062 179.502 183.912 191.635 184.691 202.132C185.082 207.387 185.453 212.232 185.761 215.941C186.068 219.658 186.311 222.218 186.439 222.919C186.599 223.765 187.258 225.111 188.375 226.665C189.485 228.213 191.034 229.948 192.943 231.574C196.759 234.826 201.993 237.623 208.017 237.623C214.101 237.623 219.243 237.281 222.86 236.476C224.669 236.073 226.078 235.558 227.032 234.924C227.982 234.293 228.457 233.561 228.457 232.716C228.457 232.266 228.329 231.137 228.106 229.478C227.882 227.826 227.567 225.664 227.188 223.16C226.713 220.049 226.146 216.412 225.547 212.568C225.18 210.221 224.8 207.796 224.425 205.367C223.435 198.961 222.457 192.526 221.766 187.403C221.419 184.841 221.139 182.606 220.968 180.866C220.796 179.135 220.72 177.871 220.792 177.267L221.187 177.312C221.123 177.865 221.191 179.084 221.363 180.826C221.539 182.56 221.814 184.789 222.161 187.349C222.852 192.468 223.83 198.9 224.82 205.306C225.196 207.733 225.575 210.158 225.942 212.505C226.541 216.35 227.108 219.989 227.579 223.1C227.962 225.605 228.278 227.769 228.501 229.425C228.725 231.073 228.856 232.232 228.856 232.716C228.856 233.74 228.27 234.58 227.256 235.256C226.242 235.93 224.776 236.459 222.948 236.866C219.287 237.68 214.109 238.023 208.017 238.023C201.869 238.023 196.543 235.168 192.683 231.877C190.751 230.231 189.182 228.472 188.052 226.898C186.926 225.331 186.22 223.927 186.048 222.991C185.912 222.266 185.669 219.678 185.361 215.974C185.054 212.263 184.683 207.417 184.291 202.162C183.513 191.651 182.663 179.502 182.12 171.521L182.116 171.494L203.709 67.887Z" fill="#004CBA"/>
<path fill-rule="evenodd" clip-rule="evenodd" d="M162.949 71.7874L163.247 72.0525L154.183 82.2526L158.225 84.7613L150.747 88.3954L148.037 165.322L147.638 165.308L150.357 88.1411L157.399 84.7186L153.57 82.3416L162.949 71.7874Z" fill="#014EBC"/>
<path fill-rule="evenodd" clip-rule="evenodd" d="M216.548 85.2759L214.936 73.3975L215.331 73.3436L216.988 85.5426L210.129 88.007L215.367 94.6316L183.046 169.628L182.679 169.47L214.904 94.6923L209.47 87.8193L216.548 85.2759Z" fill="#014EBC"/>
<path d="M193.21 182.962C193.21 184.281 192.14 185.351 190.823 185.351C189.501 185.351 188.435 184.281 188.435 182.962C188.435 181.643 189.501 180.573 190.823 180.573C192.14 180.573 193.21 181.643 193.21 182.962Z" fill="white"/>
<path d="M194.503 192.453C194.503 193.772 193.434 194.842 192.112 194.842C190.795 194.842 189.725 193.772 189.725 192.453C189.725 191.133 190.795 190.064 192.112 190.064C193.434 190.064 194.503 191.133 194.503 192.453Z" fill="white"/>
<path d="M195.601 201.945C195.601 203.265 194.531 204.334 193.21 204.334C191.893 204.334 190.823 203.265 190.823 201.945C190.823 200.626 191.893 199.557 193.21 199.557C194.531 199.557 195.601 200.626 195.601 201.945Z" fill="white"/>
<path d="M31.1115 122.063L43.217 129.214L51.9591 118.762C51.9591 118.762 38.3038 109.153 35.2645 109.153C32.2257 109.153 13.733 115.261 10.6794 115.889C6.86283 116.675 0.0149986 111.174 0.0149986 112.634C-0.434124 120.604 9.3328 121.053 11.9146 121.053C16.2253 124.714 26.5084 123.252 31.1115 122.063Z" fill="url(#paint15_linear_242_340)"/>
<path d="M31.1115 122.063L43.217 129.214L51.9591 118.762C51.9591 118.762 38.3038 109.153 35.2645 109.153C32.2257 109.153 13.733 115.261 10.6794 115.889C6.86283 116.675 0.0149986 111.174 0.0149986 112.634C-0.434124 120.604 9.3328 121.053 11.9146 121.053C16.2253 124.714 26.5084 123.252 31.1115 122.063Z" fill="url(#paint16_linear_242_340)"/>
<path d="M136.867 93.7929C136.846 91.6622 144.521 78.9227 144.888 77.2875C135.658 80.407 100.099 143.779 100.099 143.779C100.099 143.779 57.3841 118.589 46.4662 112.02C41.1371 108.814 30.7601 126.006 34.7324 128.595C45.3959 135.546 98.6547 172.239 98.6547 172.239C102.796 174.406 114.148 174.05 121.914 162.849C129.679 151.648 135.006 144.839 136.135 143.779C136.543 122.292 136.925 99.645 136.867 93.7929Z" fill="#196EE3"/>
<path d="M136.867 93.7929C136.846 91.6622 144.521 78.9227 144.888 77.2875C135.658 80.407 100.099 143.779 100.099 143.779C100.099 143.779 57.3841 118.589 46.4662 112.02C41.1371 108.814 30.7601 126.006 34.7324 128.595C45.3959 135.546 98.6547 172.239 98.6547 172.239C102.796 174.406 114.148 174.05 121.914 162.849C129.679 151.648 135.006 144.839 136.135 143.779C136.543 122.292 136.925 99.645 136.867 93.7929Z" fill="url(#paint17_linear_242_340)"/>
<path d="M136.867 93.7929C136.846 91.6622 144.521 78.9227 144.888 77.2875C135.658 80.407 100.099 143.779 100.099 143.779C100.099 143.779 57.3841 118.589 46.4662 112.02C41.1371 108.814 30.7601 126.006 34.7324 128.595C45.3959 135.546 98.6547 172.239 98.6547 172.239C102.796 174.406 114.148 174.05 121.914 162.849C129.679 151.648 135.006 144.839 136.135 143.779C136.543 122.292 136.925 99.645 136.867 93.7929Z" fill="url(#paint18_linear_242_340)"/>
<path fill-rule="evenodd" clip-rule="evenodd" d="M107.73 130.123C112.39 122.167 118.568 111.858 124.638 102.443L124.973 102.66C118.908 112.067 112.734 122.371 108.074 130.324C105.745 134.301 103.795 137.689 102.427 140.083C101.743 141.28 101.205 142.229 100.837 142.878C100.653 143.203 100.513 143.453 100.418 143.621L100.276 143.873L100.274 143.876L100.274 143.877C100.274 143.877 100.274 143.877 100.1 143.779C99.9981 143.951 99.9977 143.951 99.9977 143.951L99.9961 143.95L98.1413 142.856C96.9521 142.154 95.2406 141.145 93.1531 139.913C88.978 137.448 83.2971 134.094 77.2753 130.535C65.232 123.417 51.823 115.476 46.3633 112.191C45.1397 111.455 43.5871 111.865 41.9431 113.055C40.3095 114.237 38.6524 116.145 37.2782 118.244C35.9045 120.342 34.8246 122.613 34.334 124.512C34.0885 125.463 33.9939 126.307 34.0757 126.984C34.1571 127.66 34.4106 128.147 34.8414 128.428C40.1754 131.905 56.1586 142.817 70.8051 152.859C78.1292 157.88 85.1196 162.684 90.2795 166.233C92.8593 168.007 94.9811 169.467 96.4586 170.485C97.1972 170.993 97.7745 171.39 98.1669 171.661L98.7577 172.068C100.774 173.117 104.587 173.571 108.871 172.365C113.154 171.159 117.894 168.297 121.75 162.735C125.634 157.133 128.908 152.628 131.354 149.391C133.794 146.161 135.419 144.178 135.999 143.634L136.272 143.925C135.723 144.44 134.12 146.391 131.673 149.631C129.231 152.864 125.959 157.364 122.078 162.963C118.168 168.602 113.35 171.519 108.979 172.749C104.618 173.977 100.69 173.529 98.5621 172.416L98.5514 172.41L98.5414 172.404L98.6547 172.239C98.5414 172.404 98.541 172.403 98.5406 172.403L97.9405 171.99C97.5481 171.719 96.9704 171.322 96.2323 170.813C94.7552 169.796 92.6329 168.336 90.0532 166.562C84.8936 163.013 77.9033 158.209 70.5796 153.188C55.9306 143.145 39.9526 132.236 34.6234 128.763C34.0609 128.396 33.7699 127.78 33.6793 127.032C33.5891 126.286 33.6952 125.388 33.9475 124.412C34.4518 122.46 35.5544 120.148 36.9445 118.025C38.3342 115.903 40.0221 113.952 41.7088 112.731C43.3851 111.519 45.1281 110.982 46.5693 111.85C52.027 115.133 65.4348 123.072 77.4785 130.191C83.5003 133.75 89.1808 137.105 93.3559 139.569C95.4438 140.801 97.1549 141.811 98.3441 142.512L100.025 143.504L100.07 143.425C100.165 143.256 100.306 143.006 100.49 142.681C100.857 142.032 101.396 141.083 102.08 139.885C103.449 137.49 105.4 134.101 107.73 130.123ZM100.1 143.779L99.9981 143.951L100.174 144.055L100.274 143.877L100.1 143.779Z" fill="#004CBA"/>
<path d="M41.2549 126.792C41.2549 127.393 40.7682 127.879 40.1678 127.879C39.5673 127.879 39.0807 127.393 39.0807 126.792C39.0807 126.192 39.5673 125.705 40.1678 125.705C40.7682 125.705 41.2549 126.192 41.2549 126.792Z" fill="#004CBA"/>
<path d="M44.2909 129.755C44.2909 130.355 43.8043 130.842 43.2042 130.842C42.6038 130.842 42.1172 130.355 42.1172 129.755C42.1172 129.154 42.6038 128.667 43.2042 128.667C43.8043 128.667 44.2909 129.154 44.2909 129.755Z" fill="#004CBA"/>
<path d="M47.0543 133.656C47.6548 133.656 48.1414 133.169 48.1414 132.569C48.1414 131.968 47.6548 131.482 47.0543 131.482C46.4539 131.482 45.9673 131.968 45.9673 132.569C45.9673 133.169 46.4539 133.656 47.0543 133.656Z" fill="#004CBA"/>
<path d="M100.276 132.761L121.738 165.929C122.106 166.498 122.737 166.841 123.414 166.841H195.022C196.4 166.841 197.362 165.479 196.903 164.18L185.198 131.012C184.914 130.214 184.16 129.68 183.313 129.68H101.952C100.37 129.68 99.4165 131.433 100.276 132.761Z" fill="#313558"/>
<path d="M150.907 151.33C152.601 151.33 153.975 149.956 153.975 148.261C153.975 146.566 152.601 145.192 150.907 145.192C150.907 148.485 148.861 148.61 147.838 148.261C147.838 149.956 149.212 151.33 150.907 151.33Z" fill="white"/>
<path d="M175.042 153.539C171.808 162.521 191.913 170.061 203.989 171.877L207.901 159.275C204.907 156.702 195.897 152.214 191.769 150.292L193.737 155.703C189.078 155.244 178.818 154.169 175.042 153.539Z" fill="url(#paint19_linear_242_340)"/>
<path d="M175.042 153.539C171.808 162.521 191.913 170.061 203.989 171.877L207.901 159.275C204.907 156.702 195.897 152.214 191.769 150.292L193.737 155.703C189.078 155.244 178.818 154.169 175.042 153.539Z" fill="url(#paint20_linear_242_340)"/>
<path d="M208.608 156.995C205.578 156.536 200.827 175.313 202.759 175.845C214.457 179.067 239.208 186.035 249.772 188.152C260.331 190.27 267.968 177.769 266.283 171.216C260.91 150.308 249.552 106.044 247.101 96.2473C244.654 86.4504 238.881 84.3872 236.805 83.0762C221.515 94.3993 225.994 124.008 226.645 127.42C227.168 130.15 234.338 151.849 237.859 162.358C237.859 162.358 218.784 158.536 208.608 156.995Z" fill="#196EE3"/>
<path d="M208.608 156.995C205.578 156.536 200.827 175.313 202.759 175.845C214.457 179.067 239.208 186.035 249.772 188.152C260.331 190.27 267.968 177.769 266.283 171.216C260.91 150.308 249.552 106.044 247.101 96.2473C244.654 86.4504 238.881 84.3872 236.805 83.0762C221.515 94.3993 225.994 124.008 226.645 127.42C227.168 130.15 234.338 151.849 237.859 162.358C237.859 162.358 218.784 158.536 208.608 156.995Z" fill="url(#paint21_linear_242_340)"/>
<path fill-rule="evenodd" clip-rule="evenodd" d="M207.259 157.519C207.682 157.04 208.153 156.724 208.64 156.797C213.73 157.568 221.048 158.91 227.088 160.058C230.106 160.632 232.809 161.158 234.757 161.54C235.731 161.731 236.517 161.887 237.056 161.994C237.328 162.048 237.539 162.09 237.679 162.119L237.899 162.162C237.899 162.162 237.899 162.162 237.859 162.357C237.819 162.553 237.819 162.553 237.819 162.553L237.603 162.51C237.46 162.481 237.252 162.44 236.981 162.386C236.438 162.279 235.655 162.123 234.681 161.932C232.733 161.55 230.034 161.024 227.012 160.45C220.972 159.302 213.662 157.962 208.58 157.192C208.309 157.151 207.965 157.322 207.558 157.783C207.159 158.235 206.74 158.914 206.32 159.76C205.49 161.449 204.676 163.757 204.013 166.102C203.354 168.447 202.847 170.82 202.628 172.634C202.52 173.544 202.484 174.303 202.528 174.846C202.552 175.119 202.596 175.324 202.656 175.463C202.715 175.604 202.775 175.643 202.811 175.653C204.296 176.061 205.989 176.53 207.833 177.041C220.561 180.563 240.593 186.108 249.811 187.956C254.997 188.996 259.477 186.451 262.463 182.809C263.956 180.988 265.07 178.9 265.708 176.865C266.343 174.827 266.499 172.856 266.088 171.265L266.475 171.166C266.91 172.851 266.738 174.9 266.088 176.984C265.437 179.069 264.299 181.202 262.774 183.062C259.724 186.778 255.109 189.426 249.732 188.348C240.498 186.497 220.445 180.946 207.726 177.425C205.877 176.914 204.189 176.445 202.704 176.037C202.5 175.981 202.368 175.811 202.288 175.619C202.204 175.424 202.157 175.171 202.133 174.881C202.081 174.297 202.121 173.506 202.232 172.587C202.456 170.746 202.967 168.352 203.63 165.994C204.292 163.636 205.115 161.303 205.965 159.583C206.388 158.725 206.823 158.009 207.259 157.519Z" fill="#004CBA"/>
<path fill-rule="evenodd" clip-rule="evenodd" d="M236.793 82.8346L236.909 82.9073C237.148 83.0578 237.44 83.2211 237.779 83.4079C238.865 84.0127 240.402 84.8663 241.951 86.3346C243.987 88.266 246.063 91.265 247.296 96.1985L246.909 96.2955C245.692 91.4326 243.655 88.5016 241.675 86.6244C240.166 85.1952 238.701 84.3792 237.611 83.7744C237.316 83.6087 237.048 83.4594 236.813 83.3173C229.323 88.9411 226.653 99.043 225.946 108.23C225.239 117.451 226.517 125.687 226.84 127.383L226.449 127.457C226.122 125.741 224.836 117.467 225.547 108.199C226.257 98.9424 228.964 88.6317 236.685 82.9157L236.793 82.8346Z" fill="#014EBC"/>
<path d="M208.967 173.489C209.247 174.02 209.043 174.678 208.512 174.958C207.981 175.238 207.322 175.035 207.043 174.504C206.764 173.973 206.967 173.316 207.498 173.036C208.029 172.755 208.684 172.958 208.967 173.489Z" fill="#004CBA"/>
<path d="M213.035 174.69C213.315 175.221 213.111 175.878 212.58 176.159C212.049 176.439 211.391 176.236 211.111 175.706C210.832 175.175 211.035 174.517 211.566 174.236C212.097 173.956 212.752 174.159 213.035 174.69Z" fill="#004CBA"/>
<path d="M217.299 176.849C217.83 176.568 218.034 175.911 217.754 175.38C217.471 174.849 216.816 174.646 216.285 174.926C215.754 175.207 215.55 175.865 215.83 176.395C216.109 176.926 216.768 177.129 217.299 176.849Z" fill="#004CBA"/>
<defs>
<linearGradient id="paint0_linear_242_340" x1="166.436" y1="430.504" x2="157.724" y2="426.807" gradientUnits="userSpaceOnUse">
<stop stop-color="#FFA261"/>
<stop offset="1" stop-color="#F4B88E"/>
</linearGradient>
<linearGradient id="paint1_linear_242_340" x1="216.64" y1="430.328" x2="207.905" y2="426.679" gradientUnits="userSpaceOnUse">
<stop stop-color="#FFA261"/>
<stop offset="1" stop-color="#F4B88E"/>
</linearGradient>
<linearGradient id="paint2_linear_242_340" x1="128.591" y1="216.392" x2="143.585" y2="262.625" gradientUnits="userSpaceOnUse">
<stop stop-color="#0D4A9E"/>
<stop offset="1" stop-color="#196EE3" stop-opacity="0"/>
</linearGradient>
<linearGradient id="paint3_linear_242_340" x1="138.691" y1="405.345" x2="169.536" y2="400.654" gradientUnits="userSpaceOnUse">
<stop stop-color="#95C1FF"/>
<stop offset="1" stop-color="#196EE3" stop-opacity="0"/>
</linearGradient>
<linearGradient id="paint4_linear_242_340" x1="188.224" y1="392.901" x2="164.455" y2="391.736" gradientUnits="userSpaceOnUse">
<stop stop-color="#0C4CA5"/>
<stop offset="1" stop-color="#196EE3" stop-opacity="0"/>
</linearGradient>
<linearGradient id="paint5_linear_242_340" x1="202.979" y1="222.398" x2="174.63" y2="260.514" gradientUnits="userSpaceOnUse">
<stop stop-color="#1462CC"/>
<stop offset="1" stop-color="#186ADB" stop-opacity="0"/>
</linearGradient>
<linearGradient id="paint6_linear_242_340" x1="244.238" y1="321.544" x2="199.649" y2="324.768" gradientUnits="userSpaceOnUse">
<stop offset="0.0001" stop-color="#003E93" stop-opacity="0.979167"/>
<stop offset="1" stop-color="#196EE3" stop-opacity="0"/>
</linearGradient>
<linearGradient id="paint7_linear_242_340" x1="196.779" y1="367.356" x2="217.778" y2="359.978" gradientUnits="userSpaceOnUse">
<stop stop-color="#357EE3"/>
<stop offset="1" stop-color="#196EE3" stop-opacity="0"/>
</linearGradient>
<linearGradient id="paint8_linear_242_340" x1="202.843" y1="53.8038" x2="190.3" y2="50.7725" gradientUnits="userSpaceOnUse">
<stop stop-color="#FF964E"/>
<stop offset="1" stop-color="#F5B68B" stop-opacity="0"/>
</linearGradient>
<linearGradient id="paint9_linear_242_340" x1="152.022" y1="168.503" x2="189.865" y2="175.907" gradientUnits="userSpaceOnUse">
<stop stop-color="#0E9269"/>
<stop offset="0.479167" stop-color="#08B681" stop-opacity="0"/>
<stop offset="1" stop-color="#089469"/>
</linearGradient>
<linearGradient id="paint10_linear_242_340" x1="203.578" y1="44.8273" x2="190.38" y2="44.8273" gradientUnits="userSpaceOnUse">
<stop stop-color="#FF9953"/>
<stop offset="1" stop-color="#F5B68B" stop-opacity="0"/>
</linearGradient>
<linearGradient id="paint11_linear_242_340" x1="172.327" y1="3.80678" x2="182.587" y2="11.7341" gradientUnits="userSpaceOnUse">
<stop stop-color="#823B65"/>
<stop offset="1" stop-color="#50273F" stop-opacity="0"/>
</linearGradient>
<linearGradient id="paint12_linear_242_340" x1="215.822" y1="35.8093" x2="195.817" y2="27.8069" gradientUnits="userSpaceOnUse">
<stop stop-color="#0E0A0C"/>
<stop offset="1" stop-color="#50273F" stop-opacity="0"/>
</linearGradient>
<linearGradient id="paint13_linear_242_340" x1="241.176" y1="203.496" x2="206.476" y2="198.369" gradientUnits="userSpaceOnUse">
<stop stop-color="#0050BF"/>
<stop offset="1" stop-color="#196EE3" stop-opacity="0"/>
</linearGradient>
<linearGradient id="paint14_linear_242_340" x1="184.575" y1="164.23" x2="217.618" y2="165.969" gradientUnits="userSpaceOnUse">
<stop stop-color="#5FA2FF"/>
<stop offset="1" stop-color="#196EE3" stop-opacity="0"/>
</linearGradient>
<linearGradient id="paint15_linear_242_340" x1="67.7742" y1="119.061" x2="40.6824" y2="129.749" gradientUnits="userSpaceOnUse">
<stop stop-color="#FEA568"/>
<stop offset="1" stop-color="#F4B88E"/>
</linearGradient>
<linearGradient id="paint16_linear_242_340" x1="18.5795" y1="123.883" x2="23.4804" y2="114.853" gradientUnits="userSpaceOnUse">
<stop stop-color="#FEA364"/>
<stop offset="1" stop-color="#F4B88E" stop-opacity="0"/>
</linearGradient>
<linearGradient id="paint17_linear_242_340" x1="128.102" y1="165.667" x2="99.7989" y2="151.346" gradientUnits="userSpaceOnUse">
<stop offset="0.0615021" stop-color="#004CB4"/>
<stop offset="1" stop-color="#196EE3" stop-opacity="0"/>
</linearGradient>
<linearGradient id="paint18_linear_242_340" x1="41.6848" y1="114.888" x2="56.1577" y2="137.307" gradientUnits="userSpaceOnUse">
<stop stop-color="#7BB3FF"/>
<stop offset="1" stop-color="#196EE3" stop-opacity="0"/>
</linearGradient>
<linearGradient id="paint19_linear_242_340" x1="218.01" y1="160.952" x2="199.039" y2="165.397" gradientUnits="userSpaceOnUse">
<stop stop-color="#FEA568"/>
<stop offset="1" stop-color="#F4B88E"/>
</linearGradient>
<linearGradient id="paint20_linear_242_340" x1="186.567" y1="166.141" x2="192.831" y2="159.286" gradientUnits="userSpaceOnUse">
<stop stop-color="#FEA364"/>
<stop offset="1" stop-color="#F4B88E" stop-opacity="0"/>
</linearGradient>
<linearGradient id="paint21_linear_242_340" x1="268.435" y1="157.492" x2="243.5" y2="157.996" gradientUnits="userSpaceOnUse">
<stop stop-color="#0454C2"/>
<stop offset="1" stop-color="#196EE3" stop-opacity="0"/>
</linearGradient>
</defs>
</svg>
