<?xml version="1.0" encoding="UTF-8"?>
<!DOCTYPE svg PUBLIC "-//W3C//DTD SVG 1.1//EN" "http://www.w3.org/Graphics/SVG/1.1/DTD/svg11.dtd">
<!-- Creator: CorelDRAW -->
<svg xmlns="http://www.w3.org/2000/svg" xml:space="preserve" width="375.11mm" height="231.462mm" version="1.1" style="shape-rendering:geometricPrecision; text-rendering:geometricPrecision; image-rendering:optimizeQuality; fill-rule:evenodd; clip-rule:evenodd"
viewBox="0 0 7944.47 4902.15"
 xmlns:xlink="http://www.w3.org/1999/xlink"
 xmlns:xodm="http://www.corel.com/coreldraw/odm/2003">
 <defs>
  <style type="text/css">
   <![CDATA[
    .fil4 {fill:#0572FD}
    .fil5 {fill:#3A3942}
    .fil2 {fill:#4D4C5B}
    .fil10 {fill:#504D77}
    .fil6 {fill:#666379}
    .fil12 {fill:#6BAE29}
    .fil8 {fill:#9A5B63}
    .fil3 {fill:#CDE2FE}
    .fil11 {fill:#DB4734}
    .fil0 {fill:#E4EEFE}
    .fil9 {fill:#FA8A93}
    .fil7 {fill:#FBB5B3}
    .fil1 {fill:white}
    .fil13 {fill:white}
   ]]>
  </style>
 </defs>
 <g id="Layer_x0020_1">
  <metadata id="CorelCorpID_0Corel-Layer"/>
  <path class="fil0" d="M934.57 4744.02c-26.85,-43.72 20.61,-12.29 -38.33,-41.97l-34.75 -26.54c-6,-5.28 -7.98,-6.27 -16.15,-13.61 -58.48,-52.53 -92.52,-139.3 -74.46,-226.17 27.25,-131.09 111.04,-196.97 223.56,-269.1 159.94,-102.52 192.3,-94.09 330.11,-163.16l278.36 -94.66c40.26,-11.91 69.45,-2.32 95.2,-1.46 -29.24,-64.74 -93.48,-115.39 -113.93,-194.52 -25.22,-97.57 40.88,-181.93 120.06,-192.69l38.41 -9.49 -1.75 -687.82c-43.14,-16.26 -63.94,1.19 -66.41,-59.25 -1.73,-42.34 1.22,-69.47 14.5,-107.76 -9.03,-15.8 -141.45,-123.07 -162.76,-184.21 -13.25,-38.02 13.58,-43.33 9.85,-76.73 -32.99,-27.77 -37.26,-25.4 -70.38,-41.47 -7.81,-3.79 -9.81,-5.07 -16.69,-8.99 -1.43,-0.82 -4.61,-0.78 -5.65,-3.63 -1.05,-2.88 -3.84,-2.42 -5.66,-3.76 13.19,-59.6 103.83,-207.03 132.87,-268.27 46.98,7.43 178.18,90.9 231.24,115.4 7.33,-10.66 54.73,-116.22 63.31,-135.78 30.92,-70.47 20.23,-74.16 103.99,-94.27l46.79 -16.14c-19.69,-10.67 -38.16,-37.39 -51.7,-61.31 -19.93,-35.23 -21.43,-49.15 -22.54,-93.44 -55.6,-41.27 -43.16,-54.28 8.75,-135.33 51.4,-80.24 47.91,-49.44 136.37,-45.28 96.39,4.53 103.38,-2.62 140.32,78.12 15.79,34.51 31.41,141.43 26.84,174.83l-34.76 14.21 -1.83 22.34c24.14,6.69 75.4,29.55 107.58,42.02 147.74,57.23 129.9,159.78 130.62,305.77 0.78,157.27 -19.22,187.08 63.6,299.63 27.61,37.52 72.46,94.14 75.41,141.19 -37.11,11.67 -63.01,-0.63 -74.03,29.89 34.16,19.54 101.56,1.07 144.9,2.56 1.96,-130.05 -12.2,-1127.98 7.66,-1156.51l-3.3 -33.87 94.36 -1.26c-18.45,-16.52 31.37,-13.8 -28,-13.8 24.87,0.16 12.53,2.19 25.84,-10.65 0.79,-55.26 -4.41,-242.98 7.19,-280.78 142.83,-12.24 314.13,-5.69 460.48,-6.02 433.83,-0.98 837.41,3.74 1273.08,-4.81 41.96,-0.82 45.97,20.41 102.29,5.55l-10.74 -4.16c-1.82,-0.47 -3.92,-1.21 -6.05,-1.65l-39.67 -2.98c-2.69,-52.44 1.56,-105.27 2.72,-157.78 1.52,-68.67 -6.08,-81.76 -14.91,-136.74 91.97,-5.48 96.2,4.79 185.03,-22.51 62.16,-19.11 90.87,-40.54 162.66,-15.65 51.04,17.7 93.29,45.54 115.31,86.23 35.13,64.89 13.41,112.23 30.92,169.78 168.85,46.04 16.11,-191.72 3.91,-226.64 -31.73,-90.81 15.77,-169.4 61.24,-207.73 105.91,-89.28 332.37,-89.65 423.25,-129.69l20.81 -12.72 -52.84 2.37c18.8,-21.66 -0.58,-2.7 16.54,-12.29l20.2 -9.95c-20.26,-36.44 -64.95,-55.67 -107.71,-79.19 -137.89,-75.87 -231.25,-127.32 -380.45,-194.71 -584.15,-263.86 -1340.95,-331.34 -1958.97,-163.13 -257.74,70.15 -326.3,84.54 -575.88,193.4 -168.55,73.52 -346.88,182.13 -482.29,287.29 -151.28,117.5 -278.57,227.02 -401.04,368.42 -113.59,131.14 -152.62,188.8 -246.75,328.62 -110.61,164.31 -9.64,111.75 -227.68,137.84 -48.97,5.86 -99.72,14.34 -147.14,25.31 -277,64.03 -470.56,195.73 -649.24,396.73 -95.64,107.59 -190.22,276.73 -251.08,443.65 -105.01,288.04 -123.33,601.16 -53.95,915 36.86,166.74 117.31,343.06 158.1,536.02 62.95,297.8 111.99,501.76 321.81,723.63 63.46,67.1 110.42,114.15 185.29,166.36 40.1,27.96 174.61,118.07 228.14,129.85z"/>
  <path class="fil0" d="M5604.02 532.21c13.78,13.86 12.88,36.48 20.79,60.13l71.92 174.06c33.32,68.9 84.06,172.19 42.19,254.52 -101.46,199.52 -354.33,103.1 -469.19,180.27 -1,117.29 104.77,49.11 238.14,14.46 170.7,-44.36 219.63,147.12 260.71,256.64 53.64,143 64.09,105.39 96.38,161.18 -54.25,15.69 -98.93,20.55 -154.41,39.08 -207.92,69.46 -210.6,116.87 -444.26,128.77l-2.45 15.61 0.94 677.02c-0.01,37.34 -0.11,74.73 -0.25,112.07 -0.07,17.54 -0.5,35.39 -0.23,52.89 0.25,16.16 -0.32,40.17 9,48.77 47.07,31.77 786.24,-13.36 922.55,10.72 11.81,46.68 10.88,603.29 -0.9,625.53 20.16,62.37 76.61,131.41 104.93,188.95 42.44,43.8 26.87,169.38 -40.27,235.16 -9.92,9.71 -15.2,14.69 -26.25,26.26l-25.63 32.56c6.1,39.77 -5.9,26.37 10.51,62.12 119.11,12.05 211.49,40.42 329.12,84.9 103.73,39.23 202.8,78.38 297.4,127.44 139.85,72.53 440.87,267.27 325.05,472.86 -44.03,78.16 -128.86,164.34 -208.12,216.87 -128.8,85.37 -127.85,93.81 -325.01,93.81 -115.13,-0 -799.61,-5.66 -850.22,3.05 26.83,20.9 528.18,10.8 558.83,10.82 175.49,0.15 400.09,7.79 559.87,-17.12 300.45,-46.85 569.44,-244.48 695.18,-445.59 87.19,-139.46 113.75,-232.82 160.98,-406.44 42.56,-156.43 83.21,-294.32 126.91,-448.72 147.25,-520.19 -0.87,-1156.56 -370.52,-1519.9 -93.66,-92.06 -71.93,-55.5 -85.93,-205.96 -31.67,-340.47 -87.85,-642.07 -255.49,-887.03 -167.66,-244.98 -349.59,-400.97 -637,-505.47 -309.33,-112.47 -438.25,-74.59 -716.46,7.05 -116.76,34.26 -86.13,44.11 -192.99,54.65 -1.58,0.16 -3.77,0.13 -5.3,0.39 -1.52,0.25 -3.76,0.61 -5.2,0.96 -20.04,4.87 1.66,-8.06 -15.29,6.65z"/>
  <path class="fil1" d="M2764.15 1521.55l-1.37 1110.31c61.94,13.15 229.92,5.23 302.5,5.04 254.62,-0.68 1984.63,7.16 2095.38,-5.7 17.88,-59.81 -6.14,-927.11 7.02,-1108.05l-3.5 -313.44c-53.23,-7.7 -521.6,-8.67 -559.14,1.33 -56.32,14.86 -60.33,-6.37 -102.29,-5.55 -435.68,8.55 -839.26,3.83 -1273.08,4.81 -146.35,0.33 -317.65,-6.22 -460.48,6.02 -11.6,37.8 -6.4,225.52 -7.19,280.78 -13.31,12.84 -0.97,10.81 -25.84,10.65 59.37,0 9.55,-2.73 28,13.8z"/>
  <path class="fil2" d="M2199.08 1862.34l22.37 5.86 -1.84 22.38c16.37,4.78 43.43,15.97 69.01,26.55 13.35,5.52 26.3,10.88 37.08,15.05 133.91,51.87 133.17,140.31 132.14,264.11 -0.12,14.08 -0.24,28.63 -0.17,43.63 0.14,29.06 -0.42,53.74 -0.91,75.41 -2.17,95.21 -3.01,131.77 64.11,222.98l6.99 9.45c27.74,37.36 66.07,88.99 68.82,132.86l0.1 1.65 -1.58 0.5c-12.77,4.02 -24.18,5.23 -34.15,6.29 -17.89,1.9 -30.88,3.29 -37.88,20.6 22.25,11.6 58.34,7.94 92.41,4.49 17.02,-1.73 33.55,-3.4 47.77,-3.12 0.48,-37.25 -0.18,-136.02 -1.01,-261.04 -2.26,-339.76 -5.8,-873.23 9.01,-894.5l3.81 -5.48 5.72 1163.38c10.89,-0.51 28.29,-2.28 45.64,-4.49 18.09,-2.31 36.13,-5.1 46.68,-7.47 14.37,-3.22 23.03,-5.98 29.44,-8.01 14.19,-4.51 17.76,-5.64 44.6,-0.83l650.83 -7.65c31.81,-3.98 111.06,-1.23 174.89,0.99 44.38,1.54 81.28,2.82 89.18,1.42 10.1,-1.79 15.29,-2.89 18.25,-3.52 2.38,-0.5 3.39,-0.72 4.46,-0.75 0.81,-0.02 1.44,0.06 2.52,0.21 3.45,0.47 12.11,1.66 47.29,1.8 21.6,0.09 38.3,0.62 53.43,1.11 15.13,0.48 28.71,0.92 43.96,0.81l225.81 -12.37c9.14,-0.21 14.36,-0.42 17.01,-0.53 1.87,-0.07 2.67,-0.1 3.13,0.06 5.3,1.88 5.2,2.68 2.86,3.37 -0.04,0.98 -1.06,1.6 -3.64,0.82l-0.13 0.03c-1.5,0.31 -7.5,1.55 9.22,6.55 17.07,-0.18 36.1,-0.86 54.88,-1.52 31.98,-1.14 63.23,-2.24 83.38,-0.85 63.12,4.37 128.52,4.38 191.07,4.38 76.03,0 147.87,0.01 206.32,7.83 34.49,4.61 110.56,3.91 190.97,3.17 85.96,-0.79 176.88,-1.63 227.55,3.93 17.17,1.88 24.67,1.1 31.34,0.41 4.8,-0.5 9.2,-0.96 16.23,-0.43 14.68,1.11 25.96,3.93 34.62,6.09 13.17,3.29 19.62,4.9 22.28,-4.54 2.99,-10.64 2.51,-33.54 1.58,-78.37 -0.66,-31.64 -1.56,-74.18 -1.6,-131.06l5.13 -620.41c0.07,-1.5 0.76,-9.7 1.43,-17.16l0.84 -9.05c-1.11,-1.19 -0.63,-5.9 0.47,-10.41 1.11,-4.55 2.91,-8.96 4.4,-9.47l0.92 -2.27c0.39,-0.92 0.75,-1.8 0.98,-2.47 0.32,-0.94 0.73,-2.11 1.19,-3.25 0.49,-1.23 1.07,-2.49 1.73,-3.6l3.92 -6.62 0.95 684.72 -0.08 56.04 -0.17 56.04c-0.02,6 -0.09,12.02 -0.15,18.04 -0.13,11.63 -0.25,23.31 -0.08,34.82l0.05 4.15c0.17,15.39 0.39,35.57 8.13,42.96 24.6,16.22 239.06,11.74 457.07,7.19 198.32,-4.14 399.57,-8.34 464.56,3.14l1.35 0.24 0.34 1.33c5.93,23.43 8.67,173.68 8.45,321.19 -0.21,148.47 -3.48,294.38 -9.54,305.83l-1.03 1.94 -1.9 -1.1c-24.76,-14.38 -50.12,-35.52 -75.45,-56.65 -15.27,-12.73 -30.54,-25.47 -45.66,-36.69 -20.26,-15.03 -40.11,-29.66 -60.46,-44.26 -20.11,-14.44 -40.44,-28.64 -61.67,-42.85 -17.94,-12.01 -40.08,-26.61 -63.52,-41.21 -23.35,-14.55 -47.89,-29.05 -70.61,-40.83 -6.59,-3.42 -20.51,-9.75 -37.21,-17.35 -40.47,-18.41 -97.23,-44.23 -107.38,-54.95l-3.82 -4.04 5.53 0.47 6.83 0.64c19.18,1.84 23.1,2.21 30.55,-18.69 14.97,-41.98 7.16,-71.91 -9.66,-89.34 -11.93,-12.36 -28.4,-18.47 -44.47,-18.16 -16.01,0.31 -31.61,7.02 -41.87,20.31 -14.27,18.49 -18.26,49.79 1.07,94.49l1.41 3.26 -3.54 -0.32c-11.44,-1.05 -19.26,-1.15 -25.97,-0.15 -6.63,0.99 -12.25,3.09 -19.32,6.43l-1.47 0.69 -1.05 -1.24c-21.89,-25.8 -33.34,-18.13 -47.65,-8.56 -7.02,4.7 -14.69,9.83 -24.46,12.25l-1.19 0.29 -0.85 -0.89c-6.44,-6.78 -12.81,-14.13 -19.28,-21.6 -26.57,-30.69 -54.99,-63.5 -101.18,-69.85 -43.84,-6.03 -73.8,9.84 -89.46,34.99 -6.96,11.18 -11.12,24.21 -12.43,37.96 -1.31,13.8 0.24,28.34 4.69,42.51 12.59,40.06 48.42,77.08 108.43,86.01 13.62,2.02 24.31,2.27 33.52,2.48 21.12,0.48 34.76,0.79 57.07,20.69 8.22,7.33 14.65,15.16 20.99,22.88 10.24,12.48 20.27,24.69 37.36,33.85l4.13 2.21 -4.39 1.63c-35.56,13.2 -35.15,22.93 -33.44,63.42 0.17,3.94 0.35,8.16 0.51,12.77 0.63,18.03 2.62,35.84 5.75,52.26 3.11,16.31 7.35,31.24 12.52,43.65l0.35 0.84 -0.39 0.85c-11.71,25.61 -8.16,48.68 -4.37,73.28 5.14,33.36 10.7,69.47 -19.45,118.72l-7.77 12.81c-23.74,39.26 -63.67,105.29 -91.25,123.88l-4.1 2.76 0.83 -4.87c4.93,-28.81 6.4,-83.75 6.07,-145.21 -0.5,-93.29 -5.17,-201.66 -8.18,-256.73 -30.25,-2.39 -118.67,-3 -224.34,-2.72 -183.85,0.49 -419.88,3.67 -492.65,4.79l-1412.01 4.99c-88.5,-0.85 -174.07,-2.43 -261.47,-4.03 -29.63,-0.54 -59.48,-1.1 -89.72,-1.62l-268.98 0.32c-4.63,0.02 -10,-0.18 -15.78,-0.39 -21.69,-0.8 -49.18,-1.82 -59.76,7.76 -7.41,12.68 -11.85,84.2 -14.39,173.09 -4.38,152.97 -2.99,356.9 -1.67,402.3l0.12 4.05 -3.39 -2.23c-4.56,-3 -6.64,-4.22 -7.66,-4.82 -0.66,-0.39 -0.98,-0.58 -1.26,-0.81 -0.36,-0.31 -0.5,-0.53 -0.77,-0.93 -0.4,-0.59 -1.3,-1.93 -5.31,-6.18 -19.16,-20.26 -78.58,-134.18 -105.15,-185.13 -4.82,-9.24 -8.55,-16.4 -10.78,-20.58 -11.07,-20.74 -16.5,-33.54 -20.43,-42.84 -8.59,-20.29 -9.96,-23.51 -49.96,-58.43 -21.29,-18.59 -22.32,-24.14 -23.91,-32.81 -0.85,-4.63 -1.89,-10.24 -7.01,-19.9 -8.67,-16.33 -14.48,-16.89 -24.84,-17.87 -7.13,-0.68 -16.25,-1.55 -29.37,-7l-1.09 -0.45 -0.19 -1.18c-2.41,-15.44 4.6,-30.69 12.3,-47.4 15.07,-32.72 32.81,-71.27 -16.98,-126.05 -15.34,-16.88 -36.89,-37.53 -60.79,-47.81 -23.52,-10.1 -49.45,-10.09 -74.1,13.86l-0.39 0.37 -0.52 0.15c-40.47,11.32 -65.48,32.99 -90.5,54.67l-5.01 4.34c-22.2,19.14 -39.58,31.31 -59.03,44.92 -8.33,5.83 -17.04,11.93 -26.72,18.99 -26.81,19.57 -61.43,42.13 -97.91,62.81 -31.08,17.61 -63.52,33.88 -93.69,45.8l-2.88 1.14 -1.75 -689.45c-10.67,-3.89 -19.97,-5.72 -27.91,-7.29 -24.33,-4.8 -36.62,-7.23 -38.51,-53.36 -0.87,-21.27 -0.56,-38.75 1.64,-55.75 2.2,-17.01 6.29,-33.5 12.98,-52.78l0.3 -0.86 0.82 -0.37c27.17,-12.47 77.55,23.7 112.05,48.48 9.05,6.5 17,12.21 23.11,16.01 25.76,18.4 72.48,44.27 93.8,63.17 11.52,9.98 14.4,14.71 16.07,17.45 0.69,1.14 1.13,1.86 1.99,2.41 1.84,1.2 5.93,2.43 16.81,5.7l4.67 1.41c-7.27,-32.94 -8.47,-40.21 16.8,-61.95 12.76,-10.99 21.91,-19.33 28.69,-25.52 12.32,-11.23 17.08,-15.58 22.53,-16.4 3.49,-0.53 6.78,0.45 12.13,2.04 15.01,4.47 47.35,14.11 147.13,7.69 4.16,-0.27 9.48,-0.59 14.89,-0.69 3.95,-0.07 7.89,-0.01 11.33,0.29 0.6,-1.82 6.45,-1.39 12.06,-0.17 5.66,1.24 11.14,3.45 10.86,5.13 -0.08,0.48 -0.62,0.85 -1.77,1.08 14.98,8.29 14.67,28.94 14.37,48.86 -0.23,15.44 -0.46,30.42 6.68,37.47 5.89,5.82 45.56,-1.96 89.28,-14.65 43.88,-12.74 91.51,-30.59 113.51,-44.95 3.39,-38.46 -0.86,-86.28 -4.95,-132.32 -1.85,-20.86 -3.68,-41.35 -4.74,-60.32 -4.61,-82.2 -38.2,-99.38 -92.82,-96.32 -21.27,1.19 -45.79,5.41 -73,10.09 -57.82,9.95 -127.77,21.99 -205.66,11.77 -7.74,-1.01 -12.1,-2.47 -15.62,-3.64 -6.32,-2.11 -9.72,-3.24 -28.22,1.68 -2.55,0.68 -6.07,3.23 -10.19,6.21 -14.38,10.41 -35.48,25.67 -59.48,-3.23l-15.1 -19.27c-1.15,-0.99 -1.92,-1.9 -2.66,-2.76 -2.26,-2.65 -4.15,-4.87 -19.78,-7.8 -2.81,-0.53 -6.69,-0.41 -10.5,0.01 -1.44,0.16 -2.87,0.37 -4.22,0.6 0.07,0.63 0.09,1.04 0.05,1.34 -0.57,4.78 -1.57,4.27 -3.28,2 -0.47,-0.09 -0.84,-0.48 -0.94,-1.3l-0.03 -0.04c-0.19,-0.25 -0.49,-0.68 -0.93,-0.91 -1.04,0.28 -1.91,0.55 -2.54,0.81l-11.64 4.75 9.45 -8.3c2.07,-1.82 3.77,-2.23 5.14,-1.96 -0.52,-4.14 -1.39,-11.35 -2.49,-23.46 -0.47,-5.2 -0.85,-10.42 -1.24,-15.88 -2.05,-28.5 -4.57,-63.54 -18.79,-82.58 -0.65,-0.87 -1.39,-1.68 -2.13,-2.48 -0.63,-0.68 -1.26,-1.37 -1.88,-2.14 -3.22,-3.72 -6.39,-7.51 -9.7,-11.14 -1.16,-1.22 -2.55,-2.69 -3.49,-4.3l-1.19 -2.04 2.15 -0.96c7.15,-3.2 10.94,-4.96 14.07,-6.88 2.84,-1.74 5.19,-3.66 9.11,-6.96 -8.89,-24.63 -53.77,-58.98 -106.37,-91.42 -82.56,-50.91 -183.57,-96.94 -194.97,-93.56 -9,2.67 -36.36,46.4 -63.13,95.02 -29.2,53.01 -57.44,111.6 -60.48,129.35 31.11,17.58 127.68,65.63 208.36,100.14 51.45,22.01 96.32,38.49 113.24,37.94l2.8 -3.99c13.34,-18.94 16.77,-23.82 13.56,-54.38l-0.21 -2.01 26.58 -3.97 -0.1 2.54c-0.8,21.05 -2.75,35.45 -7.68,48.76 -4.93,13.32 -12.81,25.47 -25.47,42.02l-2.18 2.78c-0.84,1.04 -1.74,2.12 -2.59,3.05l-0.63 0.69 -0.94 -0.01c-42.47,-0.42 -86.57,-24.98 -121.41,-44.39l-7.04 -3.91c-14.56,-8.06 -37.49,-17.64 -60.06,-27.06 -26.37,-11.01 -52.26,-21.82 -64.25,-30.01l-0.17 -0.13c-24.66,-20.76 -33.11,-24.51 -49.86,-31.94 -5.49,-2.43 -11.86,-5.26 -20.07,-9.25 -6.62,-3.21 -9.11,-4.64 -13.76,-7.3l-3.05 -1.75c-0.18,-0.1 -0.62,-0.24 -1.09,-0.38 -1.97,-0.59 -4.39,-1.32 -5.5,-4.37 -0.33,-0.9 -1.25,-1.2 -2.16,-1.5 -0.92,-0.3 -1.85,-0.61 -2.77,-1.29l-1.1 -0.81 0.29 -1.34c8.93,-40.37 52.89,-120.29 89.59,-187 17.84,-32.43 33.96,-61.73 43.43,-81.72l0.68 -1.43 1.56 0.25c31.17,4.93 98.3,42.56 155.88,74.82 29.25,16.39 56.04,31.4 74.22,39.96 3.34,-5.73 10.93,-21.5 19.74,-40.39 16.52,-35.42 37.09,-81.34 42.44,-93.53 4.29,-9.79 7.79,-18.29 10.84,-25.72 19.29,-46.95 21.44,-52.2 94.6,-69.76l0.33 -0.08 76.75 7.05 1.19 3.16c6.62,17.48 12.57,33.17 10.7,59.4l-0.03 0.2c-6.17,36.96 -14.4,94.98 -20.24,150.97 -4.35,41.74 -7.38,82.35 -7.24,112.23l5.48 37.15 124.96 6.83c2.53,-22.23 3.34,-48 4.16,-73.82 0.66,-20.8 1.31,-41.64 2.84,-60.54 1.53,-18.88 4.32,-38.13 7.08,-57.13 3.52,-24.26 6.99,-48.14 7.68,-70.29l0.04 -0.38c3.36,-15.7 5.43,-41.66 7.39,-66.39 1.16,-14.61 2.29,-28.79 3.64,-40.27 1.06,-9.02 2.65,-18.39 4.22,-27.65 4.62,-27.3 9.09,-53.65 -0.72,-66.87l-3.57 -4.82 5.8 1.52z"/>
  <path class="fil3" d="M934.57 4744.02c210.41,105.37 367.37,139.48 651.35,146 166.61,3.83 673.61,11.96 815.26,1.25 31.2,-45.87 220.32,-634.07 237.16,-719.52 -30.43,0.24 -43.63,-1.33 -70.47,5.84 -23.56,6.29 -20.97,10.81 -48.61,5.41 -54.64,-10.66 -44.17,-37.96 -56.12,-89.31l-382.47 0.4c-18.55,74.32 -46.5,133.08 -50.29,215.12 -5.87,127.15 21.45,194.99 16.18,239.82 8.2,11.61 42.97,90.11 51.29,107.41 49.18,102.24 37.95,35.23 67.36,86.43 -9.98,12.51 -1.31,3.34 -13.6,12.32l-28.31 17.03c-18.94,15.52 -17.94,60.19 -147.27,35.11 -109.18,-21.17 -40.12,10.15 -103.47,-7.26 -19.14,-61.4 -20.74,-197.22 14.64,-238.33 -1.8,-19.75 -51.09,-138.3 -52.01,-230.12 -0.87,-87.51 51.12,-141.43 -5.03,-237.68 -84.28,-11.86 -80.38,-4.38 -85.1,-31.58 -11.12,-64.1 33.84,-59.85 -46.94,-155 -25.75,-0.86 -54.94,-10.45 -95.2,1.46l-278.36 94.66c-137.81,69.08 -170.18,60.64 -330.11,163.16 -112.51,72.13 -196.3,138.01 -223.56,269.1 -18.06,86.86 15.98,173.64 74.46,226.17 8.17,7.34 10.16,8.33 16.15,13.61l34.75 26.54c58.93,29.67 11.47,-1.75 38.33,41.97z"/>
  <path class="fil3" d="M5226.63 4088.36c8.47,23.42 19.99,76.8 27.24,103.78l206.56 686.73c56.87,10.63 264.49,17.14 326.01,9.05 50.61,-8.71 735.09,-3.05 850.22,-3.05 197.16,0 196.21,-8.44 325.01,-93.81 79.26,-52.53 164.09,-138.71 208.12,-216.87 115.83,-205.59 -185.2,-400.33 -325.05,-472.86 -94.61,-49.07 -193.67,-88.21 -297.4,-127.44 -117.63,-44.49 -210.02,-72.85 -329.12,-84.9 -16.41,-35.75 -4.41,-22.35 -10.51,-62.12 -11.89,11.71 -5.71,-11.83 -9.84,26.66l-3.65 222.58 -212.4 19c11.04,42.22 26.47,15.52 45.36,121.74 15.67,88.1 25.52,225.78 29.11,316.53 1.01,25.67 -4.41,68.41 -0.9,89.16 6.3,37.19 14.99,15.19 31.43,53.1 0.98,29.67 -8.45,34.99 -14.03,56.22 -9.61,36.59 10.38,28.28 -12.99,54.01 -24,17.29 -260.36,32.43 -303.48,23.17 -41.32,-8.87 -15.06,-15.78 -60.85,-19.64 -54.55,-4.6 -165.35,0.9 -180.43,-61.96 44.24,-4.67 67.94,7.63 112.59,-7.85 24.69,-8.56 56.3,-36.11 68.15,-51.77 33.22,-43.91 -15.95,-28.59 -13.54,-72.61 2.03,-37.08 91.33,-354.66 -3.66,-501.08l-451.97 -5.75z"/>
  <path class="fil4" d="M5539.49 548.81l-20.81 12.72c-90.88,40.03 -317.34,40.4 -423.25,129.69 -45.47,38.33 -92.97,116.91 -61.24,207.73 12.2,34.92 164.94,272.68 -3.91,226.64 -17.51,-57.55 4.21,-104.89 -30.92,-169.78 -22.02,-40.69 -64.27,-68.53 -115.31,-86.23 -71.79,-24.89 -100.5,-3.46 -162.66,15.65 -88.83,27.31 -93.06,17.04 -185.03,22.51 8.83,54.99 16.43,68.07 14.91,136.74 -1.16,52.5 -5.41,105.34 -2.72,157.78l39.67 2.98c2.13,0.44 4.22,1.18 6.05,1.65l10.74 4.16c37.54,-10 505.92,-9.03 559.14,-1.33l3.5 313.44 91.69 1.65c12.67,79.86 -12.12,199.49 6.93,276.53 233.66,-11.9 236.34,-59.31 444.26,-128.77 55.48,-18.53 100.16,-23.39 154.41,-39.08 -32.29,-55.79 -42.74,-18.18 -96.38,-161.18 -41.08,-109.52 -90.01,-301 -260.71,-256.64 -133.37,34.66 -239.13,102.83 -238.14,-14.46 114.86,-77.17 367.73,19.24 469.19,-180.27 41.87,-82.33 -8.88,-185.62 -42.19,-254.52l-71.92 -174.06c-7.91,-23.65 -7.01,-46.27 -20.79,-60.13 -22.36,8.96 -38.53,17.72 -64.53,16.6z"/>
  <path class="fil5" d="M2545.67 3885.14c4.23,52.55 95.6,133.36 140.27,137.68 26.3,-49.78 68.35,-218.42 90.98,-286.13 25.91,-77.53 61.08,-223.96 92.57,-286.67l2161.94 -1.28c17.85,58.5 115.87,372.97 114.7,407.04 29.64,22.21 27.58,13.67 83.41,4.04 77.57,-13.39 80.27,-16.9 145.82,-117.21 12.29,-18.8 14.4,-18.82 17.37,-39.7 12.55,-73.28 2.79,-314.26 -2.18,-404.24 -76.93,-6.83 -603.54,0.12 -719.02,1.9l-1411.98 4.99c-118.44,-1.13 -231.71,-3.58 -351.16,-5.65l-269.02 0.32c-22.11,0.1 -63.26,-4.95 -77.2,8.13 -20.86,33.55 -18.6,504.73 -16.5,576.8z"/>
  <path class="fil2" d="M5719.63 3554.04c-32.75,54.1 6.27,48.23 -87.17,177.15l-241.77 266.3c-94.28,93.22 -97.4,55 -150.58,70.15l-17.21 8.5c-1.01,-1.64 -3.68,2.25 -5.17,3.78l8.9 8.43 451.97 5.75c94.99,146.42 5.69,464 3.66,501.08 -2.41,44.02 46.75,28.71 13.54,72.61 -11.85,15.67 -43.46,43.22 -68.15,51.77 -44.66,15.48 -68.35,3.18 -112.59,7.85 15.08,62.86 125.88,57.36 180.43,61.96 45.8,3.86 19.54,10.77 60.85,19.64 43.12,9.26 279.48,-5.89 303.48,-23.17 23.36,-25.73 3.38,-17.42 12.99,-54.01 5.57,-21.23 15.01,-26.55 14.03,-56.22 -16.44,-37.91 -25.13,-15.91 -31.43,-53.1 -3.52,-20.75 1.91,-63.48 0.9,-89.16 -3.59,-90.75 -13.44,-228.43 -29.11,-316.53 -18.89,-106.23 -34.32,-79.53 -45.36,-121.74l212.4 -19 3.65 -222.58c4.13,-38.49 -2.05,-14.95 9.84,-26.66l25.63 -32.56c11.05,-11.57 16.34,-16.55 26.25,-26.26 67.14,-65.77 82.72,-191.36 40.27,-235.16 -40.41,1.13 -150.26,42.68 -197.31,55.48 -39.39,10.71 -75.13,9.58 -109.38,17.87 -33.18,8.03 -60.75,25.6 -96.19,26.77 -27.34,-5.5 -8.62,-31.22 -133.22,-64.34l-44.14 -14.62z"/>
  <path class="fil2" d="M1698.12 3907.36c80.78,95.15 35.82,90.9 46.94,155 4.72,27.2 0.82,19.72 85.1,31.58 56.15,96.25 4.16,150.17 5.03,237.68 0.92,91.82 50.2,210.37 52.01,230.12l-4.34 29.08c34.4,1.98 6.53,1.21 30.91,11.45 26.74,11.24 12.2,5.9 45.4,7.93 49.46,3.03 46.78,15.71 86.8,-4.67 7.91,-33.58 -6.38,-17.82 0.59,-56.5 5.28,-44.83 -22.05,-112.67 -16.18,-239.82 3.79,-82.04 31.75,-140.8 50.29,-215.12l382.47 -0.4c1.09,-86.92 -155.08,-219.2 -224.4,-436.19 -7.63,-23.88 -10.4,-47.33 -18.79,-69.92l1.36 28.21c-207.39,47.71 -233.87,98.83 -312.54,120.42 -35.29,9.69 -219.27,-113.26 -204.53,-216.05 -79.18,10.76 -145.28,95.12 -120.06,192.69 20.45,79.13 84.69,129.78 113.93,194.52z"/>
  <path class="fil5" d="M2673.09 1556.67l5.7 1158.89c21.15,-0.72 73.4,-7.28 94.89,-12.1 45.25,-10.15 34.49,-15.78 73.41,-8.79l651.13 -7.66c53.54,-6.75 244.6,5.89 264.3,2.39 43.82,-7.79 -4.36,-2.55 72.14,-2.24 43.12,0.17 66.84,2.15 97.52,1.92l225.73 -12.37c47.88,-1.12 -13.33,-2.01 28.09,10.31 46.37,-0.47 106.47,-4.59 138.43,-2.37 139.68,9.68 290.84,-2.04 397.26,12.19 71.59,9.58 320.59,-3.64 418.56,7.11 29.41,3.23 30.86,-1.27 47.63,-0.01 78.98,5.96 59.35,62.27 59.14,-209.99l5.13 -620.32c0.13,-2.79 2.37,-28.3 2.68,-29.86 8.8,-44.25 -10.24,32.81 3.73,-13.82 0.68,-2.25 1.92,-4.76 2.53,-6.55 0.61,-1.79 1.54,-4.44 2.73,-6.46l2.45 -15.61c-19.05,-77.04 5.74,-196.67 -6.93,-276.53l-91.69 -1.65c-13.16,180.94 10.87,1048.24 -7.02,1108.05 -110.75,12.86 -1840.75,5.02 -2095.38,5.7 -72.58,0.19 -240.56,8.11 -302.5,-5.04l1.37 -1110.31 -94.36 1.26 3.3 33.87z"/>
  <path class="fil4" d="M5567.74 3003.96c9.57,41.06 0.11,70.46 -7.95,108.98 -4.25,20.33 -3.2,35.18 -6.45,53.45 -5.48,30.79 -0.84,22.95 -22.63,33.8 -40.51,15.04 -36.16,25.63 -34.31,78.24 1.27,36.21 7.97,71.54 18.43,96.65 76.38,8.95 64.2,15.25 136.42,-13.79 247.03,-99.36 85.68,150.51 68.38,192.75l44.14 14.62c124.6,33.13 105.88,58.84 133.22,64.34 35.45,-1.18 63.02,-18.74 96.19,-26.77 34.24,-8.29 69.99,-7.16 109.38,-17.87 47.05,-12.79 156.91,-54.35 197.31,-55.48 -28.31,-57.54 -84.77,-126.58 -104.93,-188.95 -39.53,-22.95 -80.79,-63.42 -120.92,-93.2 -40.85,-30.32 -79.72,-58.73 -122.22,-87.17 -36,-24.09 -88.76,-58.53 -134.33,-82.17 -22.65,-11.75 -130.06,-57.13 -144.03,-71.87 -28.61,5.97 -36.33,-1.3 -59.31,-12.04 -23.26,-2.13 -31.86,-0.4 -46.39,6.48z"/>
  <path class="fil6" d="M1688.99 2655.83c33.02,-15.16 104.15,46.31 133.17,64.37l93.54 62.97c29.09,25.22 1.51,15.63 43.75,28.45 -7.71,-34.96 -9.84,-41.74 15.34,-63.42 92.52,-79.63 -7.86,-17.72 209.24,-31.68 8.36,-0.54 21.31,-1.3 29.29,0.01 52.16,8.56 -32.56,-11.05 12.59,3.51 32.03,10.33 6.83,69.98 24.91,87.84 13,12.84 162.81,-30.84 206.29,-59.9 5.17,-56.15 -6.14,-132.25 -9.6,-193.96 -10.32,-183.97 -163.3,-48.88 -373.32,-76.43 -22.31,-2.92 -15.78,-9.58 -44.65,-1.91 -12.29,3.26 -37.67,39.62 -67.51,3.67l-15.21 -19.4c-5.03,-4.25 -2.58,-7.21 -23.56,-11.15 -6.98,-1.31 -19.53,0.99 -23.57,2.64 -62.76,-18.08 -49.39,-38.9 -97.87,-54.45l1.15 10.97 22.06 -3.3c-1.59,41.62 -7.66,56.81 -32.73,89.58 -1.17,1.53 -2.99,3.88 -4.65,5.68 -44.83,-0.44 -91.82,-28.32 -127.44,-48.04 -31.78,-17.6 -102.18,-41.96 -124.14,-56.98 3.73,33.4 -23.1,38.71 -9.85,76.73 21.31,61.14 153.73,168.4 162.76,184.21z"/>
  <path class="fil7" d="M5514.83 3375.09c-27.85,60.89 28.49,106.49 -23.7,191.77 -21.69,35.44 -67.93,115.5 -98.4,136.04 -2.97,20.88 -5.08,20.9 -17.37,39.7 -65.55,100.31 -68.25,103.83 -145.82,117.21 -55.83,9.63 -53.76,18.18 -83.41,-4.04 4.1,38.15 -27.25,57.81 42.36,168.86l29.24 55.29c1.49,-1.53 4.16,-5.42 5.17,-3.78l17.21 -8.5c53.18,-15.15 56.3,23.07 150.58,-70.15l241.77 -266.3c93.45,-128.92 54.42,-123.05 87.17,-177.15 17.3,-42.24 178.65,-292.11 -68.38,-192.75 -72.22,29.05 -60.04,22.74 -136.42,13.79z"/>
  <path class="fil4" d="M3868.24 3798.83c-38.15,29.52 -170.44,41.32 -174.17,196.94 -2.94,122.69 84.34,168.99 170.98,208.67 232.45,106.46 163.99,267.61 -30.29,254.9 -68.17,-4.46 -104.59,-35.18 -154.6,-35.25 -10.38,21.49 -17.53,47.18 -17.83,80.62 27.64,9.65 160.26,42.28 175.44,51.38l-1.3 102.04 100.31 1.3 1.45 -106.01c36.4,-19.17 87.81,-34.13 117.95,-60.01 104.95,-90.14 105.6,-254.08 -68.96,-343.71 -75.87,-38.96 -204.45,-68.99 -190.67,-175.91 11.57,-89.83 110.07,-101.25 182.03,-84.15 36.3,8.63 34.41,21 72.96,23.07l23.7 -64.26c-44.52,-35.79 -103.31,-27.26 -145.45,-51.98 -19.26,-38.09 9.21,-100.89 -28.44,-106.06 -52.42,-7.2 -27.2,71.1 -33.1,108.42z"/>
  <path class="fil8" d="M2115.73 3279.08c11.09,33.06 -9.62,58.64 -2.66,96.57 4.99,27.17 31.21,49.33 43.07,64.88 29.01,38.06 45.65,96.5 63.81,147.04 8.39,22.6 11.17,46.05 18.79,69.92 69.32,217 225.49,349.28 224.4,436.19 11.96,51.35 1.48,78.64 56.12,89.31 27.65,5.39 25.05,0.88 48.61,-5.41 26.84,-7.17 40.04,-5.6 70.47,-5.84l16.46 -56.25 43.54 -4.75 -12.41 -87.93c-44.67,-4.31 -136.04,-85.13 -140.27,-137.68 -14.76,-9.71 -3.77,-0.94 -14.63,-12.42 -22.41,-23.7 -101.22,-178.3 -115.6,-205.25 -35.67,-66.81 -12.42,-50.84 -70.86,-101.87 -32.82,-28.65 -16.13,-25.16 -30.45,-52.11 -15.01,-28.26 -22.05,-12.02 -55.27,-25.83 -7.02,-44.87 70.53,-91.23 -5.2,-174.55 -30.99,-34.09 -87.09,-83.43 -137.92,-34.03z"/>
  <path class="fil4" d="M1742.65 3510.67l-38.41 9.49c-14.74,102.79 169.24,225.74 204.53,216.05 78.67,-21.59 105.15,-72.71 312.54,-120.42l-1.36 -28.21c-18.16,-50.55 -34.8,-108.98 -63.81,-147.04 -11.85,-15.55 -38.08,-37.71 -43.07,-64.88 -6.97,-37.93 13.75,-63.51 2.66,-96.57 -43.64,12.21 -69.38,36.21 -96.33,59.45 -31.68,27.32 -53.5,40.37 -85.61,63.8 -49.5,36.12 -125.65,82.47 -191.14,108.34z"/>
  <path class="fil4" d="M1802.96 2407.94l-1.15 -10.97c-46.1,-21 -128.78,-42.75 -103.82,-111.73 43.82,-39.34 121.34,13.19 167.54,19.58 14.52,-6.49 15.38,-7.16 24.79,-15.08 -20.06,-64.15 -285.02,-193.44 -304.4,-187.69 -20.27,6.01 -122,196.77 -125.32,227.52 48.9,27.94 282.97,142.29 325.03,139.01 16.5,-23.67 20.87,-26.85 17.32,-60.64z"/>
  <path class="fil2" d="M1941.66 1783.23c73.41,18.71 45.3,-5.11 85.08,-10.39 31.61,27.33 11.2,27.83 65.28,58.24 54.46,30.62 28.21,37.4 106.53,33.31l20.64 5.4 34.76 -14.21c4.57,-33.4 -11.05,-140.32 -26.84,-174.83 -36.94,-80.74 -43.94,-73.59 -140.32,-78.12 -88.46,-4.16 -84.97,-34.96 -136.37,45.28 -51.91,81.05 -64.35,94.06 -8.75,135.33z"/>
  <path class="fil9" d="M1941.66 1783.23c1.11,44.29 2.61,58.21 22.54,93.44 13.54,23.92 32.01,50.64 51.7,61.31l-46.79 16.14 75.08 6.9c6.82,18.05 13.2,33.7 11.29,60.43 30.34,30.63 23.33,78.69 40.17,140.59 8.34,30.67 5.47,26.9 28.22,32.76 3.17,-4.42 50.14,-132.44 52.95,-141.51l7.58 13.96c5.39,-25.16 7.44,-76.08 11.06,-106.86 4.25,-36.1 16.87,-77.43 3.09,-96.02 -78.32,4.09 -52.08,-2.69 -106.53,-33.31 -54.07,-30.41 -33.67,-30.91 -65.28,-58.24 -39.78,5.28 -11.67,29.11 -85.08,10.39z"/>
  <path class="fil7" d="M5530.71 3200.19c21.79,-10.85 17.15,-3.01 22.63,-33.8 3.25,-18.27 2.2,-33.12 6.45,-53.45 8.06,-38.52 17.52,-67.92 7.95,-108.98 -33.57,-39.57 -44.02,-4.48 -74.22,3.01 -33.33,-35.09 -63.45,-84.08 -121.7,-92.09 -140.7,-19.34 -142.07,182.93 10.64,205.65 44.12,6.57 57.96,-5.46 89.49,22.65 21.52,19.19 30.72,41.99 58.76,57.01z"/>
  <path class="fil10" d="M1887.2 4561.74c-35.38,41.11 -33.78,176.94 -14.64,238.33 63.36,17.41 -5.7,-13.9 103.47,7.26 129.33,25.08 128.33,-19.59 147.27,-35.11l28.31 -17.03c12.29,-8.99 3.62,0.19 13.6,-12.32 -29.41,-51.19 -18.18,15.81 -67.36,-86.43 -8.32,-17.3 -43.09,-95.8 -51.29,-107.41 -6.97,38.68 7.32,22.92 -0.59,56.5 -40.02,20.38 -37.34,7.7 -86.8,4.67 -33.2,-2.04 -18.65,3.3 -45.4,-7.93 -24.38,-10.24 3.49,-9.47 -30.91,-11.45l4.34 -29.08z"/>
  <path class="fil0" d="M2184.4 2067.26l-7.58 -13.96c-2.81,9.07 -49.78,137.09 -52.95,141.51 -22.75,-5.86 -19.88,-2.09 -28.22,-32.76 -16.84,-61.9 -9.82,-109.96 -40.17,-140.59 -10.79,64.63 -27.86,193.59 -27.5,263.74l5.75 38.97 128.67 7.03c4.83,-40.35 3.72,-93.05 7.24,-136.41 3.49,-43.01 13.52,-87.8 14.76,-127.53z"/>
  <path class="fil9" d="M1801.82 2396.98c48.48,15.55 35.11,36.37 97.87,54.45 8.2,-7.2 7.64,19.62 3.36,-27.2 -2.77,-30.3 -3.01,-76.21 -20.43,-99.53 -1.24,-1.66 -2.79,-3.1 -4.07,-4.69l-8.61 -9.96c-1.11,-1.3 -3.25,-3.25 -4.39,-5.21 -46.2,-6.39 -123.72,-58.91 -167.54,-19.58 -24.96,68.98 57.72,90.72 103.82,111.73z"/>
  <path class="fil11" d="M5614.13 2997.48c22.98,10.74 30.7,18.01 59.31,12.04 26.53,2.27 30.72,5.28 39.55,-19.46 52.09,-146.1 -167.19,-150.59 -98.86,7.43z"/>
  <path class="fil12" d="M6006.72 2990.27c32.23,-88.56 -33.78,-137.37 -89.03,-94.31 -16.39,12.77 -28.4,51.22 -9.71,79.57 20.65,31.32 63.36,21.23 98.74,14.74z"/>
  <path class="fil13" d="M2401.19 4891.27c82.15,2.39 2622.84,24.7 2748.48,-2.52 36.13,-7.83 232.26,0.09 310.76,-9.89l-206.56 -686.73c-7.25,-26.97 -18.78,-80.36 -27.24,-103.78l-8.9 -8.43 -29.24 -55.29c-69.62,-111.05 -38.27,-130.71 -42.36,-168.86 1.17,-34.07 -96.85,-348.54 -114.7,-407.04l-2161.94 1.28c-31.49,62.71 -66.65,209.14 -92.57,286.67 -22.63,67.71 -64.69,236.35 -90.98,286.13l12.41 87.93 -43.54 4.75 -16.46 56.25c-16.84,85.45 -205.96,673.66 -237.16,719.52zm1577.37 -1001.63c-71.96,-17.11 -170.46,-5.68 -182.03,84.15 -13.78,106.92 114.8,136.95 190.67,175.91 174.56,89.63 173.91,253.57 68.96,343.71 -30.14,25.88 -81.55,40.84 -117.95,60.01l-1.45 106.01 -100.31 -1.3 1.3 -102.04c-15.18,-9.09 -147.8,-41.72 -175.44,-51.38 0.31,-33.44 7.46,-59.13 17.83,-80.62 50.01,0.07 86.43,30.79 154.6,35.25 194.28,12.71 262.75,-148.44 30.29,-254.9 -86.64,-39.68 -173.91,-85.98 -170.98,-208.67 3.73,-155.62 136.01,-167.42 174.17,-196.94 5.9,-37.32 -19.32,-115.62 33.1,-108.42 37.65,5.17 9.18,67.97 28.44,106.06 42.13,24.72 100.93,16.19 145.45,51.98l-23.7 64.26c-38.55,-2.07 -36.67,-14.44 -72.96,-23.07z"/>
 </g>
</svg>
