<?xml version="1.0" encoding="UTF-8"?>
<!DOCTYPE svg PUBLIC "-//W3C//DTD SVG 1.1//EN" "http://www.w3.org/Graphics/SVG/1.1/DTD/svg11.dtd">
<!-- Creator: CorelDRAW -->
<svg xmlns="http://www.w3.org/2000/svg" xml:space="preserve" width="253.03mm" height="207.685mm" version="1.1" style="shape-rendering:geometricPrecision; text-rendering:geometricPrecision; image-rendering:optimizeQuality; fill-rule:evenodd; clip-rule:evenodd"
viewBox="0 0 7343.18 6027.22"
 xmlns:xlink="http://www.w3.org/1999/xlink"
 xmlns:xodm="http://www.corel.com/coreldraw/odm/2003">
 <defs>
  <style type="text/css">
   <![CDATA[
    .fil3 {fill:#0576FF}
    .fil5 {fill:#2A2846}
    .fil2 {fill:#42415A}
    .fil0 {fill:#CDCBCC}
    .fil4 {fill:#E6E5E6}
    .fil1 {fill:white}
   ]]>
  </style>
 </defs>
 <g id="Layer_x0020_1">
  <metadata id="CorelCorpID_0Corel-Layer"/>
  <g id="_2443313076464">
   <path class="fil0" d="M3179.5 1921.42c-18.79,29.5 3.53,18.91 -35.94,20.4 -22.95,0.86 -11.94,-2.44 -28.57,-11.1 5.55,20.02 2.88,14.71 -77.97,15.38 -879.69,7.32 -1748.44,3.07 -2627.93,13.76 -104.5,1.27 -301.55,-8.67 -394.25,6.59l-9.79 2824.89c72.16,-16.72 1065.41,-5.64 1225.74,-5.42l3075.28 -0.77c183.09,-0.17 445.56,-15.98 619.28,3.14l1.08 -18.92 -11.49 -25.25c-1.76,-7.36 -2.41,-23.81 -2.59,-31.77l1.8 -179.32c-15.19,-233.81 -15.94,-1598.07 3.72,-1632.55 2.3,-13.4 2.97,-17.93 6.89,-29.79 -8.34,-8.7 -11.45,3.81 -10.56,-53.78 0.98,-63.44 -5.89,-145.46 10.17,-195.82 -40.55,-30.22 12.17,-612.16 -31.79,-660.4 -34.52,-28.05 -118.4,-17.17 -171.59,-16.99 -30.46,0.1 -131.04,6.71 -156.19,-6.03l-11.06 -7.84c-1.37,-0.95 -3.51,-3.11 -5.31,-4.61 -3.66,4.08 5.44,34.97 -48.99,-6.81 -2.17,18.81 24.41,21.1 -63.32,22.18 -27.09,0.33 -54.14,1.18 -81.22,1.72l-496.28 -0.2c-220.03,-1 -448.99,13.2 -667.12,5.55 -0.14,-53.65 2.29,-4.69 -11.99,-26.24z"/>
   <path class="fil1" d="M149.37 4669.65c48.39,9.25 2265.32,3.82 2301.78,3.74 235.67,-0.5 2259.99,7.53 2300.07,-11.41l11.59 -1300.59c0.18,-156.65 14.55,-1252.13 -9.53,-1301.71 -9.1,-9 -3451.79,-14.37 -4026.89,-14.89 -184.61,-0.17 -394.16,-10.99 -575.62,0.48l-1.4 2624.38z"/>
   <path class="fil1" d="M4924.77 2870.69c-3.92,11.87 -4.59,16.39 -6.89,29.79 -4.26,75.78 -8.42,709.43 6.51,737.74l520.6 309.73c112.05,71.88 240.91,136.05 344.51,199.78l479.82 278.37c22.29,13.89 15.8,7.68 32.54,25.46 -11.93,13.39 -19.04,22.84 -28.55,38.65 -56.17,1.36 -59.66,-18.78 -92.39,-42.04l-167.97 -100.72c-130.61,-90.33 -281.05,-168.21 -408.52,-250.49l-589.78 -338.29c-65.85,-37.03 -36.86,-40.51 -92.64,-42.3l3.42 354.1c169.25,91.84 326.77,186.34 489.17,289.33 115.82,73.45 255.1,143.77 369.3,216.89 54.95,35.18 95.98,50.46 97.07,83.73 -38.4,24.75 -95.96,-18.22 -125.82,-38.84 -110.24,-76.1 -455.52,-277.07 -582.91,-350.95l-183.06 -103.01c-21.42,-13.64 -39.68,-27.34 -60.93,-21.13 -20.5,54.13 -5.65,217.62 -4.83,289.12 0.71,61.97 5.12,69.9 47.75,98.76 27.11,18.36 65.63,33.95 94.58,51.84l270.2 169.27c59.04,39.15 85.22,39.43 63.95,81.78 -37.52,2.76 -302.33,-153.13 -363.92,-188.24 -26.39,-15.05 -84.3,-62.29 -106.97,-65.07l-2.58 185.4 -1.08 18.92c-13.57,97.11 17.11,331.03 -14.53,405.68 -37.55,88.56 -269.5,53.24 -374.85,57.62 5.93,10.87 1034.77,637.2 1114.51,648.61 68.47,-73.88 726.62,-1204.76 794.56,-1319.29l591.9 -994.59c28.89,-49.1 202.12,-314.37 181.06,-355.09 -14.18,-27.42 -1282.49,-768.9 -1372.43,-823.54 -77.07,-46.82 -404.81,-258.19 -473.71,-259.43 -30.39,11.23 -285.53,454.52 -337.3,542.48 -32.9,55.89 -82.02,127.36 -109.79,179.96z"/>
   <path class="fil2" d="M4924.38 2621.09c-16.07,50.36 -9.2,132.38 -10.17,195.82 -0.89,57.6 2.22,45.08 10.56,53.78 27.76,-52.6 76.89,-124.07 109.79,-179.96 51.77,-87.95 306.91,-531.24 337.3,-542.48 68.9,1.24 396.64,212.61 473.71,259.43 89.94,54.64 1358.25,796.13 1372.43,823.54 21.06,40.73 -152.17,305.99 -181.06,355.09l-591.9 994.59c-67.94,114.53 -726.08,1245.41 -794.56,1319.29 -79.73,-11.42 -1108.58,-637.74 -1114.51,-648.61 105.36,-4.38 337.31,30.95 374.85,-57.62 31.65,-74.65 0.97,-308.57 14.53,-405.68 -173.72,-19.12 -436.2,-3.31 -619.28,-3.14l-3075.28 0.77c-160.33,-0.21 -1153.59,-11.3 -1225.74,5.42 -9.07,76.55 -3.4,205.56 -2.14,286.75 1.91,123.4 1.16,166.86 129.29,171.37 194.07,6.83 399.09,1.63 594.18,1.27 131.2,-0.24 1153.42,-11.05 1184.57,7.41 9.01,7.02 11.31,7.13 13.85,38.9 7.02,87.68 6.78,616.77 -12.33,642.61 -20.56,27.81 -20.7,-23.05 -27.82,82.06 136.69,4.32 1092.8,14.06 1156.16,-11.17 4.23,-60.8 -11.07,-46.26 -40.44,-73.1l-2.38 -662.76c5.54,-21.27 -2.37,-4.63 8.22,-18.41 39.94,-14.45 751.96,-6.08 860.54,-5.91 72.4,0.12 388.32,-7.54 432.53,5.45 37.81,11.12 599.66,356.43 685.84,404.38 44.94,25 91.94,56.49 136.95,82.65l415.51 242.98c76.01,42.15 98.56,42.29 184.05,12.98 48.77,-64.09 27.42,-3.42 114.38,-147.33 122.01,-201.9 872.77,-1476.79 904.32,-1512 124.57,-139.02 87.01,-146.24 145.61,-252.68 26.94,-48.92 41.53,-42.25 64.34,-74.27l186.06 -350.83c33.9,-56.52 65.57,-110.81 100.81,-167.71 27,-43.6 82.83,-128.26 97.69,-178.51 49.56,-167.62 -134.76,-238.89 -229.78,-296.16l-1351.89 -803.93c-471.84,-284.56 -416.2,-281.48 -725.61,240.35 -17.6,29.68 -35.11,58.46 -51.45,86.85l-35.5 62.32c-8.55,12.76 -6.68,12.57 -16.27,16.17z"/>
   <path class="fil1" d="M2890.43 369.87c-282.32,64.94 -231.77,107.99 -163.34,298.9 49.5,138.08 104.94,275.61 152.77,417.44 47.93,142.15 99.42,281.47 149.7,419.53 22.13,60.76 129.17,387.3 149.94,415.68 14.29,21.55 11.86,-27.42 11.99,26.24 218.13,7.65 447.1,-6.56 667.12,-5.55l496.28 0.2c27.09,-0.54 54.13,-1.38 81.22,-1.72 87.73,-1.08 61.15,-3.38 63.32,-22.18l-164.53 -473.33c-59.59,-162 -112.82,-314.2 -170.91,-471.6l-254.18 -705.82c-51.29,-143.66 -51.23,-121.95 -91.93,-217.12 -60.65,-1.22 -223.5,58.19 -276.88,79.74 9.28,73.12 66.73,104.24 -68.33,152.23l-387.49 141.59c-146.16,51.53 -125.11,-7.93 -162.87,-67.62l-31.89 13.4z"/>
   <path class="fil3" d="M1140.57 2837.71c-610.57,142.47 -389.62,1010.44 180.44,891.92 393.29,-81.77 485.71,-589.84 180.03,-809.38 -90.37,-64.91 -222.2,-114.8 -360.47,-82.54z"/>
   <path class="fil3" d="M5884.05 3033.45c-478.51,111.68 -322.28,796.04 140.4,712.1 178.31,-32.36 333.34,-208.56 287.31,-427.38 -35.85,-170.4 -215.63,-334.22 -427.71,-284.72z"/>
   <path class="fil3" d="M5495.33 773.12c-475.18,125.75 -283.39,812.17 164.74,705.63 337.01,-80.13 352.93,-498.28 126.94,-647.85 -70.88,-46.91 -183.48,-86.41 -291.68,-57.78z"/>
   <path class="fil3" d="M3421.5 708.27c-337.6,100.98 -205.52,614.89 154.57,524.86 114.73,-28.69 241.25,-179.65 183.96,-336.51 -44.41,-121.57 -159.07,-242.02 -338.53,-188.34z"/>
   <path class="fil4" d="M4926.44 4769.38l2.58 -185.4c22.67,2.78 80.57,50.02 106.97,65.07 61.58,35.11 326.39,191 363.92,188.24 21.27,-42.36 -4.91,-42.63 -63.95,-81.78l-270.2 -169.27c-28.95,-17.89 -67.47,-33.48 -94.58,-51.84 -42.63,-28.86 -47.03,-36.79 -47.75,-98.76 -0.82,-71.5 -15.67,-234.99 4.83,-289.12 21.25,-6.21 39.51,7.49 60.93,21.13l183.06 103.01c127.39,73.88 472.67,274.84 582.91,350.95 29.87,20.62 87.42,63.58 125.82,38.84 -1.09,-33.28 -42.12,-48.56 -97.07,-83.73 -114.19,-73.12 -253.48,-143.44 -369.3,-216.89 -162.4,-102.99 -319.92,-197.49 -489.17,-289.33l-3.42 -354.1c55.78,1.79 26.79,5.28 92.64,42.3l589.78 338.29c127.47,82.28 277.91,160.16 408.52,250.49l167.97 100.72c32.72,23.26 36.22,43.39 92.39,42.04 9.5,-15.81 16.62,-25.27 28.55,-38.65 -16.74,-17.78 -10.26,-11.57 -32.54,-25.46l-479.82 -278.37c-103.6,-63.73 -232.46,-127.9 -344.51,-199.78l-520.6 -309.73c-14.93,-28.32 -10.78,-661.96 -6.51,-737.74 -19.66,34.47 -18.9,1398.74 -3.72,1632.55l-1.8 179.32c0.18,7.97 0.84,24.42 2.59,31.77l11.49 25.25z"/>
   <path class="fil2" d="M2813.85 339.38c28.74,11.34 12.24,12.47 76.58,30.5l31.89 -13.4c37.76,59.68 16.71,119.15 162.87,67.62l387.49 -141.59c135.06,-47.99 77.6,-79.11 68.33,-152.23 53.38,-21.56 216.23,-80.96 276.88,-79.74 -24.43,-20.85 -26.5,-14.7 -43.98,-20.47 11.76,-9.35 2.23,-3.77 17.91,-11.72 2.84,-1.44 14.35,-4.23 17.02,-5.1 -11.63,-10.85 7.43,-8.75 -31.67,-12.88 -28.52,-3.01 -73.33,13.63 -100.94,22.19 -44.2,13.69 -84.59,27.79 -127.69,43.35 -117.71,42.48 -711.15,246.59 -734.7,273.49z"/>
   <path class="fil4" d="M4143.32 2865.12c-37.4,-31 -198.14,-11.28 -284.71,-11.55 -93.85,-0.3 -181.71,-4.29 -276.61,-5.97 -189.25,-3.34 -380.05,-0.52 -569.49,-0.66 -190.06,-0.14 -379.29,-0.97 -569.5,-0.01 -180.82,0.91 -392.99,-11.09 -569.6,1.18 -2.37,82.09 67.87,58.89 236.04,58.12l1765.44 -3.59c48.59,-0.62 97.98,-2.03 146.47,-1.34 56.77,0.81 97.95,15.04 121.97,-36.18z"/>
   <path class="fil2" d="M3114.99 1930.72c16.63,8.65 5.62,11.96 28.57,11.1 39.47,-1.49 17.15,9.11 35.94,-20.4 -20.77,-28.38 -127.81,-354.92 -149.94,-415.68 -50.28,-138.06 -101.77,-277.38 -149.7,-419.53 -47.83,-141.83 -103.27,-279.37 -152.77,-417.44 -68.43,-190.91 -118.98,-233.95 163.34,-298.9 -64.35,-18.02 -47.84,-19.15 -76.58,-30.5 -63.97,1.81 -158.39,49.95 -184.27,100.73 -51.4,100.84 80.81,283.49 97.32,455.99 7.33,76.58 51.83,142.31 78.23,207.49 18.63,46 40.1,148 76.26,207.88 49.66,82.24 122.31,305.03 160.64,408.9 22.04,59.72 63,153.22 72.96,210.36z"/>
   <path class="fil4" d="M2202.25 3320.71c-3.98,40.3 12.01,45.65 53.12,47.69 185.49,9.19 552.28,1.2 740.87,0.57 130.67,-0.43 760.8,28.81 820.36,-23.86 -18.25,-45.66 -115.09,-29.68 -169.51,-30.01 -179.69,-1.09 -1395.81,-8.2 -1444.84,5.61z"/>
   <path class="fil5" d="M3817.9 50.53c40.7,95.17 40.64,73.46 91.93,217.12l254.18 705.82c58.09,157.41 111.33,309.6 170.91,471.6l164.53 473.33c54.42,41.78 45.33,10.89 48.99,6.81l-261.1 -725.57c-27.74,-78.53 -56.24,-171.23 -86.87,-245.98 -29.91,-73.02 -51.22,-181.52 -76.84,-257.03 -30.24,-89.12 -66.16,-152.68 -98.53,-235.52 -31.38,-80.32 -58.13,-160.89 -89.5,-244.03 -28.34,-75.11 -51.3,-200.67 -126.74,-203.85 -2.66,0.88 -14.18,3.67 -17.02,5.1 -15.68,7.95 -6.15,2.37 -17.91,11.72 17.47,5.76 19.55,-0.38 43.98,20.47z"/>
   <path class="fil3" d="M3790.18 4202.1c-109.69,24.19 -101.45,142.02 -15.12,169.64 50.22,16.07 243.18,12.6 297.13,1.86 107.79,-21.46 90.46,-145.91 13.9,-166.44 -46.45,-12.45 -250.55,-15.07 -295.91,-5.06z"/>
   <path class="fil4" d="M2833.52 3862.77l480.06 1.58c13.96,0.27 36.4,1.63 49.46,0.81 75.46,-4.73 44.99,-44.23 28.34,-76.67 -202.57,-1.24 -558.06,-10.26 -745.81,-1.78 -63.76,2.88 -55.42,75.88 8.07,76.53 59.33,0.61 120.32,-0.45 179.88,-0.47z"/>
   <path class="fil4" d="M2607.66 3610.94c136.76,19.71 527.08,8.29 714.18,11.37 38.76,0.64 75.98,10.13 82.25,-26.11 10.14,-58.63 -84.33,-38.9 -163.78,-38.66 -70.52,0.21 -141.01,-0.33 -211.53,-0.33 -121.91,-0 -306.84,-12.4 -420.92,1.68l-0.2 52.05z"/>
   <path class="fil4" d="M2614.64 3131.42c100.38,31.22 253.16,16.03 373.47,15.92 129.45,-0.12 261.47,3.17 390.51,-1.58l24.46 -41.96c-51.77,-28.37 -313.32,-18.52 -390.66,-18.88 -156.54,-0.73 -176.14,-23.58 -394.72,-12.04l-3.06 58.54z"/>
   <path class="fil3" d="M5444.41 5232.59c-21.71,13.71 -43.49,64.34 -23.05,96.39 9.99,15.67 58.41,49.5 77.7,61.13 43.51,26.21 147.71,100.61 197.85,70.63 27.89,-16.68 42.56,-56.2 19.77,-92.78 -17.17,-27.57 -50.83,-42.61 -78.54,-60.13 -35.13,-22.22 -144.97,-106.03 -193.73,-75.23z"/>
   <path class="fil1" d="M5518.3 1202.33c-27.83,-22.58 -66.27,-139.39 -113.07,-84.9 -38.54,44.87 105.56,192 129.34,201.46 38.62,-18.88 97.84,-131.75 122.3,-170.14 25.24,-39.61 111.45,-140.75 96.13,-201.84 -47.02,-10.34 -58.93,12.61 -76.91,42.21 -25.78,42.44 -128.26,205.76 -157.79,213.21z"/>
   <path class="fil4" d="M5688.77 4336.24c10.3,-42.83 -12.23,-40.08 -115.48,-102.73 -49.48,-30.02 -83.91,-57.94 -132.43,-85.69 -52.62,-30.09 -233.78,-143.6 -296.06,-144.24 2.29,46.66 8.26,45.88 42.64,62.74l349.07 204.95c21.88,12.6 40.13,24.35 65.65,39.43 13.95,8.24 23.83,16.28 36.97,22.16 0.19,0.09 18.12,6.34 19.25,6.49 2.5,0.32 4.7,0.4 7.2,0.47l23.18 -3.59z"/>
   <path class="fil4" d="M5494.09 4670.79c16.69,-56.74 -3.87,-46.63 -111.28,-108.71 -57.76,-33.38 -86.76,-53.23 -141.55,-85.97 -47.76,-28.54 -242.65,-148.97 -295.33,-156.3 0.8,67.07 74.2,81.29 118.23,107.97 65.08,39.43 395.76,240.21 429.93,243.02z"/>
  </g>
 </g>
</svg>
