<?xml version="1.0" encoding="UTF-8"?>
<!DOCTYPE svg PUBLIC "-//W3C//DTD SVG 1.1//EN" "http://www.w3.org/Graphics/SVG/1.1/DTD/svg11.dtd">
<!-- Creator: CorelDRAW -->
<svg xmlns="http://www.w3.org/2000/svg" xml:space="preserve" width="331.623mm" height="215.176mm" version="1.1" style="shape-rendering:geometricPrecision; text-rendering:geometricPrecision; image-rendering:optimizeQuality; fill-rule:evenodd; clip-rule:evenodd"
viewBox="0 0 25955.1 16841.13"
 xmlns:xlink="http://www.w3.org/1999/xlink"
 xmlns:xodm="http://www.corel.com/coreldraw/odm/2003">
 <defs>
  <style type="text/css">
   <![CDATA[
    .fil0 {fill:#0474FB}
    .fil2 {fill:#383646}
    .fil4 {fill:#A75C65}
    .fil3 {fill:#CDCDCC}
    .fil1 {fill:#E7E7E6}
   ]]>
  </style>
 </defs>
 <g id="Layer_x0020_1">
  <metadata id="CorelCorpID_0Corel-Layer"/>
  <g id="_2443260296064">
   <path class="fil0" d="M7362.38 30.52c-1295.72,258.92 -1920.37,1443.4 -1555.98,2550.58 151.7,460.93 2426.05,5527.18 2651.68,6018.92 223.99,488.19 431.59,1020.16 656.62,1494.35 220.64,464.94 585.3,914.88 1252.19,941.88 750.64,30.38 1162.01,-259.95 1431.37,-733.94 361.83,-636.73 152.35,-1061.26 -44.16,-1713.7l-2034.24 -6633.51c-194.45,-627.78 -332,-1081.91 -724.05,-1431.53 -350.72,-312.78 -980.92,-623.43 -1633.44,-493.04z"/>
   <path class="fil1" d="M6477.54 16751.45l12152.73 0.66c51.44,-164.55 82.13,-270.41 198,-358.66 145.88,-111.09 350.39,-70.23 445.71,-134.85 -128.45,-32.69 -187.54,-9.26 -315.62,3.92 1.67,-230.97 96.06,-99.95 42.21,-475.83 -36.66,-255.9 64.77,-118.57 -28.65,-386.51 -2.3,-6.61 -4.73,-13.85 -7,-20.51 -167.98,-491.34 -888.53,-746.85 -1361.33,-912.85 -933.46,-327.72 -869.8,-33.14 -857.3,-514.6 6.98,-268.74 -34.15,-202.15 -42.63,-249.84 -3.09,-17.35 -9.66,-20.18 -18.2,-26.77 29.33,161.96 32.36,406.55 -5.79,566.72 -340.92,14.03 -1141.2,35.71 -1405.45,-36.69l11.76 -133.92c-174.5,60.93 -1178.35,-42.62 -1415.86,-28.52l14.75 -115.91c-47.22,54.17 -43.74,71.97 -77.1,152.83l-228.73 405.23c-724.09,984.24 -2104.73,1117.31 -2959.02,427.93 -140.96,-113.75 -322.62,-291.44 -418.56,-437.5 -134.65,-204.98 -247.36,-498.79 -288.56,-545.83l19.01 163.98 -961.66 126.39c-253.06,37.65 -661.97,179.23 -926.8,176.04 1.85,-345.09 -82.12,-1614.91 -326.83,-1736.86 -30.48,71.54 271.75,1340.39 193.27,1501.87 -75.5,-144.43 -13.11,-177.83 -147.59,-418.59 -61.71,-110.47 -40.75,-213.93 -183.08,-379.74 -86.45,-100.69 -230.12,-578.24 -479.46,-688.71 81.03,452.08 581.43,1458.31 565.2,1829.47 -138.61,118.3 -929.25,304.6 -1185.32,889.13 -123.05,280.91 -57.33,637.04 86.18,841.76 57.78,82.42 181.84,208.99 262.68,261.5 142.31,92.45 83.57,70.24 127.47,122.57 85.04,101.36 75.99,30.7 182.32,89.76 -111.95,4.64 -220.67,8.02 -332.89,9.96 -124.8,2.16 -254.59,-12.8 -327.82,32.96z"/>
   <path class="fil2" d="M16132.78 13509.69c68.54,0 199.04,-8.23 259.63,-1.89 129.56,13.54 91.26,-17.26 132.02,84.72 77.75,-14.2 41.39,6.67 85.66,-27.61 123.28,-144.72 90.12,-92.78 128.44,-337.84 18.15,-116.14 33.42,-240.68 52.43,-363.67 30.48,-197.16 245.52,-2076.76 313.29,-2178.32l1323.19 589.51c174.43,74.24 180.27,66.27 210.76,263.72 19.87,128.69 39.98,273.1 56.72,400.43 38.48,292.76 72.55,544.57 110.93,840.12l445.93 3298.77c98.88,46.11 34.24,5.21 116.7,18.84l97.4 25.51c4.45,-6.95 15.77,5.98 25.7,10.89l-2.09 125.96 -215.52 -0.22c-95.33,64.62 -299.83,23.75 -445.71,134.85 -115.87,88.25 -146.56,194.11 -198,358.66l-12152.73 -0.66c-636.12,-18.91 -6363.43,-36.74 -6477.54,26.16 88.24,75.02 2854.95,38.84 3188.4,39.18l13059.91 -0.65c1088.46,1.66 2178.68,29.39 3258.07,24.39l6102.07 -21.05c214.08,0.74 288.81,37.68 346.65,-51.57 -111.66,-47.99 -2569.79,-14.46 -2914.53,-14.35 -389.1,0.13 -2805.97,27.89 -2975.13,-15.03 -39.79,-398.58 82.8,-357.88 -117.88,-522.84l19.71 -221.26 170.55 -74.93c44.67,-1103.97 -79.86,-2943.75 167.82,-3986.11 104.41,-439.4 387.66,-503.92 393.82,-1267.45 1.84,-226.92 -47.12,-653.58 -0.2,-843.72 -4.69,-7.11 -10.03,-16.76 -13.02,-21.97l-47.82 -87.34c-477.54,-11.11 -1843.91,-163.8 -2058.85,-121.45l-44.65 156.64c-89.98,-2.96 -492.02,-157.53 -648.32,-194.98 -2253.54,-539.97 -1890.04,734.49 -1947.56,2161.31 -11.66,289.27 -37,537.65 -59.56,828.46 -17.86,230.11 -88.14,602.55 -74.03,805.65 218.64,81.57 252.31,42.4 327.32,161.16z"/>
   <path class="fil3" d="M18579.58 9591.45c214.94,-42.35 1581.31,110.35 2058.85,121.45l47.82 87.34c2.99,5.21 8.33,14.86 13.02,21.97 20,-198.56 -51.34,-830.55 -10.48,-977.58 15.9,-57.21 12.87,-44.03 32.48,-72.07l49.6 75.86c5.71,11.2 34.38,89.33 36.89,97.25 64.73,203.56 302.54,1184.31 374.28,1259.47l158.65 118.72 -7.81 -60.15 492.74 -71.11 59.22 116.23c2.07,3.72 5.93,12.08 10.33,17.07l-25.8 -156.97c81.01,-105.95 111.54,5.7 103.47,-358.77 -3.45,-155.79 -10.71,-311.71 -19.86,-467.34 -49.82,-847.9 -140.07,-1733.37 -229.31,-2580.18 -111.26,-1055.84 -324.49,-788.85 -874.19,-1443.28 -72.74,-86.61 -120.98,-186.49 -291.55,-178.13 -233.43,11.46 -648.58,110.18 -860.26,83.72l-84.18 -284.37 312.21 -7.33c-68.22,-53.19 -140.84,-42.26 -226.34,-42.96 -464.32,-3.76 -796.08,-462.45 -805.9,-890.61 -179.03,-92.03 -387.39,-161.35 -226.87,-469.51 124.92,-239.8 595.09,-592.09 846.53,-726.97 76.19,-40.87 168.26,-93.99 255.32,-130.6 87.38,-36.75 223.97,-51.63 294.71,-106.72 -636.48,-52.49 -1628.04,224.54 -1905.34,622.04 -289.06,414.37 118.64,1655.59 273.97,2063.31l337.85 913.42c28.85,203.49 -205.25,1898.53 -238.78,2296.11 -16.94,200.93 -34.36,418.2 -50.3,604.3 -55.45,647.02 41.47,371.32 99.04,526.38z"/>
   <path class="fil0" d="M9912.86 13929.97c41.2,47.05 153.91,340.85 288.56,545.83 95.94,146.05 277.6,323.75 418.56,437.5 854.29,689.38 2234.93,556.31 2959.02,-427.93l228.73 -405.23c33.37,-80.86 29.88,-98.66 77.1,-152.83 -5.7,-130.49 68.55,-354.22 77.9,-526.71 28.6,-527.66 -127.97,-996.6 -430.64,-1398.35 -1021.01,-1355.21 -3276.88,-961.1 -3664.38,843.54 -138.45,644.79 55.29,834.57 45.14,1084.19z"/>
   <path class="fil2" d="M18893.44 3999.68c279.22,-1.37 690.23,46.26 862.42,204.32 69.15,63.47 147.7,204.99 187.76,329.69 19.99,62.22 33.34,139.71 32.06,222.83 -1.35,87.25 -11.83,167.33 -55.58,235.5l-28.13 95.7c214.2,-5.54 647.13,-39.96 848.82,-90.45 519.13,-129.97 732.2,-798.92 669.04,-1203.31 -44.18,-282.83 -202.6,-462.07 -300.12,-674.85 -36.25,-22.48 -256.82,-317.15 -473.18,-431.48 -69.38,-36.65 -124.37,-54 -177.88,-113.66l-395.53 -8.08c-70.74,55.08 -207.32,69.96 -294.71,106.72 -87.06,36.61 -179.13,89.73 -255.32,130.6 -251.45,134.88 -721.61,487.16 -846.53,726.97 -160.52,308.16 47.84,377.48 226.87,469.51z"/>
   <path class="fil2" d="M15285.95 14071.74l-11.76 133.92c264.25,72.4 1064.53,50.72 1405.45,36.69 38.15,-160.17 35.12,-404.76 5.79,-566.72 -87.24,22.41 -96.44,-36.71 -75.35,-110.72 -44.28,34.28 -7.91,13.41 -85.66,27.61 -40.76,-101.98 -2.47,-71.18 -132.02,-84.72 -60.59,-6.34 -191.09,1.89 -259.63,1.89 13.08,161.52 42.44,177.76 -130.17,182.44 -118.63,3.21 -241.45,-11.92 -358.5,13.29 -243.56,52.45 -255.8,221.94 -358.16,366.32z"/>
   <path class="fil4" d="M19925.68 4933.25l-5.57 58.76c43.75,-68.17 54.22,-148.25 55.58,-235.5 1.28,-83.12 -12.07,-160.61 -32.06,-222.83 -40.06,-124.7 -118.61,-266.22 -187.76,-329.69 -172.19,-158.05 -583.21,-205.69 -862.42,-204.32 9.82,428.17 341.58,886.86 805.9,890.61 85.5,0.7 158.12,-10.23 226.34,42.96z"/>
   <path class="fil4" d="M21340.69 10323.85c40.84,253.67 134.22,299.43 128.49,619.31 -10.57,589.56 832.18,391.26 634.47,-85.97 -64.7,-156.18 -214.57,-291.67 -208.48,-531.3 -4.4,-4.99 -8.26,-13.35 -10.33,-17.07l-59.22 -116.23 -492.74 71.11 7.81 60.15z"/>
   <path class="fil4" d="M20458.66 2573.98c53.51,59.65 108.5,77.01 177.88,113.66 216.36,114.33 436.92,409 473.18,431.48 10.54,-145.62 166.85,-95.33 218.22,-273.15 80.25,-277.79 -209.75,-572.59 -505.78,-446.97 -50.98,21.64 -306.93,142.34 -363.49,174.98z"/>
  </g>
 </g>
</svg>
