<svg width="36" height="35" viewBox="0 0 36 35" fill="none" xmlns="http://www.w3.org/2000/svg">
<path fill-rule="evenodd" clip-rule="evenodd" d="M12.0341 2.70492L11.7955 2.62295L11.7954 2.62293C11.5568 2.54097 11.3182 2.45901 11.1591 2.54098L9.25 1.96722L11.0796 1.14754C11.5568 0.901639 12.0341 0.737694 12.5114 0.573758L12.75 0.491786L12.9887 0.573758L13.7046 0.819676C16.0114 1.47542 18.3978 1.31148 20.7841 0.409838C20.9035 0.368855 21.0228 0.307374 21.1421 0.245894C21.2614 0.184413 21.3808 0.122932 21.5001 0.0819476L21.7387 0H21.9773C22.5342 0.0819676 23.0114 0.245903 23.4887 0.409838L25.1592 0.983597L22.6933 2.21311C20.7046 3.03279 18.716 3.5246 16.6478 3.5246C14.6591 3.5246 13.0682 3.11476 12.0341 2.70492ZM5.27295 8.1969C5.65661 7.99923 6.09169 7.85451 6.49552 7.7202C6.59406 7.68742 6.69073 7.65527 6.78434 7.62312C8.93208 7.04934 11.2389 7.13131 13.5457 8.03295C15.0571 8.60673 16.5685 8.85263 18.2389 8.85263C21.5799 8.85263 24.9208 7.62312 28.0231 5.24606L29.2163 4.26244L29.614 3.93457L28.8981 3.36079C28.6594 3.11489 28.3412 2.86899 28.0231 2.70506L27.5458 2.37719L27.1481 2.70506C27.0685 2.74604 27.0089 2.80752 26.9492 2.86899C26.8895 2.93046 26.8299 2.99194 26.7503 3.03292C22.5344 6.31163 18.3185 7.21328 14.3412 5.6559C11.4775 4.59032 8.61388 4.34442 5.75023 5.24606C5.51159 5.32803 5.27295 5.40998 4.95477 5.49195L4.79569 5.57392L4.55704 5.81982C4.55704 5.87048 4.52666 5.88983 4.48467 5.91658C4.45872 5.93311 4.42835 5.95246 4.39796 5.98376C4.23887 6.22967 4.05989 6.45508 3.88091 6.68049L3.8809 6.6805C3.70192 6.90591 3.52294 7.13132 3.36385 7.37722L1.85249 9.75428L4.31841 8.44279C4.63349 8.44279 4.89863 8.33992 5.11387 8.25641C5.17033 8.23451 5.22336 8.21393 5.27295 8.1969ZM8.53414 12.9512C6.30685 13.6069 4.23867 14.8364 2.40912 16.8037C2.24603 16.9157 2.12009 17.066 2.00592 17.2023C1.95302 17.2654 1.90266 17.3255 1.85229 17.3774L0.5 18.8528L0.579551 16.8037C0.620743 16.549 0.640606 16.2723 0.661231 15.9851C0.680435 15.7176 0.700298 15.441 0.738652 15.1643V14.9184L0.897729 14.7545L1.29546 14.3446L2.96593 12.9512C4.55684 11.8856 6.14777 11.0659 7.81823 10.5741C10.4432 9.8364 13.3069 10.0003 16.091 11.0659C21.9774 13.361 27.1479 10.0003 30.4888 6.72162L30.807 6.39376L31.3638 5.81997L31.8411 6.47573C31.9309 6.59918 32.0095 6.72263 32.0853 6.84171L32.0853 6.84173C32.2108 7.0389 32.3287 7.22407 32.4774 7.37738L32.7956 7.86916L32.3979 8.19705L31.3638 9.26262C28.6592 11.6397 22.4547 16.0659 15.2955 13.361C12.9887 12.4594 10.6819 12.3774 8.53414 12.9512ZM10.125 18.279C12.2727 17.7053 14.5796 17.7872 16.8864 18.6889C19.4319 19.6725 25.9546 21.0659 33.2728 14.2626L34.466 13.0331L34.5456 12.9511L34.8638 12.6233L34.7047 12.2134C34.6251 11.8856 34.466 11.4758 34.3069 11.0659L34.3069 11.0659L33.9092 9.91832L33.1137 10.738C33.0624 10.8439 32.9778 10.9155 32.8815 10.9972C32.8287 11.042 32.7724 11.0898 32.716 11.1478C29.216 14.8364 23.8069 18.6069 17.6023 16.3118C14.8182 15.2462 11.9546 15.0823 9.32954 15.82C6.78407 16.5577 4.55678 17.9512 2.48859 19.9184V19.8364L1.2954 21.1479C1.2954 21.1986 1.26502 21.2179 1.22303 21.2447C1.19708 21.2612 1.16671 21.2805 1.13633 21.3118L0.897674 21.5577L0.977225 21.8856C1.017 22.0905 1.07666 22.2954 1.13631 22.5004C1.19597 22.7053 1.25563 22.9102 1.2954 23.1151L1.77268 24.4266L2.56814 23.361C2.60791 23.2791 2.66757 23.2176 2.72723 23.1561C2.78689 23.0946 2.84655 23.0332 2.88632 22.9512L3.02457 22.8222C4.68345 21.2739 6.95266 19.1561 10.125 18.279ZM21.0225 27.131C18.2384 26.0654 15.3748 25.9015 12.7498 26.6392C10.9202 27.131 9.17022 28.1146 7.5793 29.3441L6.46564 30.3278L6.14746 30.6556L6.86337 31.3114C6.91253 31.3114 6.93131 31.3427 6.95727 31.386C6.97331 31.4127 6.99209 31.444 7.02247 31.4753C7.13893 31.5953 7.25539 31.6714 7.40305 31.7679C7.45711 31.8032 7.51535 31.8412 7.5793 31.8852L8.05656 32.213L8.53384 31.8032C8.61338 31.7212 8.77247 31.5573 8.93157 31.4753C10.3634 30.2458 11.9543 29.4261 13.6248 29.0163C15.7725 28.4425 18.0793 28.5245 20.3862 29.4261C22.2953 30.1638 26.193 31.0655 30.8862 29.0163L31.0453 28.9343L31.284 28.6884C31.284 28.6378 31.3143 28.6184 31.3563 28.5917C31.3823 28.5751 31.4127 28.5558 31.4431 28.5245C31.8408 28.0327 32.2385 27.5409 32.5567 26.9671L34.1476 24.4261L31.6021 25.9015C27.8635 28.0327 24.443 28.4425 21.0225 27.131ZM23.33 32.7057C23.2107 32.6647 23.1112 32.6237 23.0118 32.5827C22.9124 32.5417 22.813 32.5007 22.6936 32.4597C19.9095 31.3942 17.0459 31.2302 14.4209 31.968L14.4207 31.968C13.8639 32.1319 13.3072 32.2958 12.7504 32.5417L10.8413 33.4434L10.364 33.6893L11.955 34.263L13.3868 34.7549L13.6254 34.8368L13.8641 34.7549C13.9436 34.7275 14.0232 34.6911 14.1027 34.6547C14.2618 34.5818 14.4209 34.5089 14.58 34.5089C14.7391 34.5089 14.8982 34.427 15.0572 34.345C16.9663 33.8532 19.0345 33.8532 21.2618 34.5909C21.3811 34.6319 21.4805 34.6728 21.5799 34.7138L21.58 34.7139C21.6794 34.7549 21.7789 34.7958 21.8982 34.8368L22.2959 35.0007L22.5345 34.9188C22.6193 34.8938 22.7058 34.8689 22.7934 34.8437C23.2813 34.7031 23.8004 34.5535 24.205 34.345L26.4323 33.5253L24.1255 32.9516C24.0061 32.9106 23.8669 32.8696 23.7277 32.8286C23.5885 32.7876 23.4493 32.7466 23.33 32.7057ZM34.3068 16.9678L35.5 15.7383L35.4205 17.6236C35.4205 17.8695 35.4006 18.1359 35.3807 18.4023C35.3608 18.6687 35.3409 18.935 35.3409 19.1809V19.4268L35.1022 19.6728C35.0227 19.7547 34.9432 19.8162 34.8637 19.8776L34.8636 19.8777L34.8636 19.8777C34.7841 19.9392 34.7045 20.0006 34.625 20.0826C31.9204 22.4597 28.2613 24.5908 24.6022 25.0007C22.534 25.2466 20.4658 25.0006 18.4772 24.2629C16.1703 23.3613 13.8635 23.2793 11.7158 23.8531C9.3294 24.5088 7.26121 25.8203 5.35211 27.9515L5.03393 28.2794L4.4771 29.0171L3.99984 28.2794C3.84075 27.9515 3.68165 27.7056 3.44301 27.3777L3.12484 26.8859L3.44301 26.4761L4.4771 25.3285C6.46575 23.3613 8.69305 22.0498 11.159 21.3121C13.784 20.5744 16.6476 20.7383 19.4317 21.8039C25.3181 24.099 30.5682 20.6564 33.8295 17.4596L34.3068 16.9678Z" fill="#2B2828"/>
</svg>
