<svg width="35" height="35" viewBox="0 0 35 35" fill="none" xmlns="http://www.w3.org/2000/svg">
<path fill-rule="evenodd" clip-rule="evenodd" d="M11.5341 2.70492L11.2955 2.62295L11.2954 2.62293C11.0568 2.54097 10.8182 2.45901 10.6591 2.54098L8.75 1.96722L10.5796 1.14754C11.0568 0.901639 11.5341 0.737694 12.0114 0.573758L12.25 0.491786L12.4887 0.573758L13.2046 0.819676C15.5114 1.47542 17.8978 1.31148 20.2841 0.409838C20.4035 0.368855 20.5228 0.307374 20.6421 0.245894C20.7614 0.184413 20.8808 0.122932 21.0001 0.0819476L21.2387 0H21.4773C22.0342 0.0819676 22.5114 0.245903 22.9887 0.409838L24.6592 0.983597L22.1933 2.21311C20.2046 3.03279 18.216 3.5246 16.1478 3.5246C14.1591 3.5246 12.5682 3.11476 11.5341 2.70492ZM4.77295 8.1969C5.15661 7.99923 5.59169 7.85451 5.99552 7.7202C6.09406 7.68742 6.19073 7.65527 6.28434 7.62312C8.43208 7.04934 10.7389 7.13131 13.0457 8.03295C14.5571 8.60673 16.0685 8.85263 17.7389 8.85263C21.0799 8.85263 24.4208 7.62312 27.5231 5.24606L28.7163 4.26244L29.114 3.93457L28.3981 3.36079C28.1594 3.11489 27.8412 2.86899 27.5231 2.70506L27.0458 2.37719L26.6481 2.70506C26.5685 2.74604 26.5089 2.80752 26.4492 2.86899C26.3895 2.93046 26.3299 2.99194 26.2503 3.03292C22.0344 6.31163 17.8185 7.21328 13.8412 5.6559C10.9775 4.59032 8.11388 4.34442 5.25023 5.24606C5.01159 5.32803 4.77295 5.40998 4.45477 5.49195L4.29569 5.57392L4.05704 5.81982C4.05704 5.87048 4.02666 5.88983 3.98467 5.91658C3.95872 5.93311 3.92835 5.95246 3.89796 5.98376C3.73887 6.22967 3.55989 6.45508 3.38091 6.68049L3.3809 6.6805C3.20192 6.90591 3.02294 7.13132 2.86385 7.37722L1.35249 9.75428L3.81841 8.44279C4.13349 8.44279 4.39863 8.33992 4.61387 8.25641C4.67033 8.23451 4.72336 8.21393 4.77295 8.1969ZM8.03414 12.9512C5.80685 13.6069 3.73867 14.8364 1.90912 16.8037C1.74603 16.9157 1.62009 17.066 1.50592 17.2023C1.45302 17.2654 1.40266 17.3255 1.35229 17.3774L0 18.8528L0.0795507 16.8037C0.120743 16.549 0.140606 16.2723 0.161231 15.9851C0.180435 15.7176 0.200298 15.441 0.238652 15.1643V14.9184L0.397729 14.7545L0.795458 14.3446L2.46593 12.9512C4.05684 11.8856 5.64777 11.0659 7.31823 10.5741C9.94324 9.8364 12.8069 10.0003 15.591 11.0659C21.4774 13.361 26.6479 10.0003 29.9888 6.72162L30.307 6.39376L30.8638 5.81997L31.3411 6.47573C31.4309 6.59918 31.5095 6.72263 31.5853 6.84171L31.5853 6.84173C31.7108 7.0389 31.8287 7.22407 31.9774 7.37738L32.2956 7.86916L31.8979 8.19705L30.8638 9.26262C28.1592 11.6397 21.9547 16.0659 14.7955 13.361C12.4887 12.4594 10.1819 12.3774 8.03414 12.9512ZM9.625 18.279C11.7727 17.7053 14.0796 17.7872 16.3864 18.6889C18.9319 19.6725 25.4546 21.0659 32.7728 14.2626L33.966 13.0331L34.0456 12.9511L34.3638 12.6233L34.2047 12.2134C34.1251 11.8856 33.966 11.4758 33.8069 11.0659L33.8069 11.0659L33.4092 9.91832L32.6137 10.738C32.5624 10.8439 32.4778 10.9155 32.3815 10.9972C32.3287 11.042 32.2724 11.0898 32.216 11.1478C28.716 14.8364 23.3069 18.6069 17.1023 16.3118C14.3182 15.2462 11.4546 15.0823 8.82954 15.82C6.28407 16.5577 4.05678 17.9512 1.98859 19.9184V19.8364L0.795403 21.1479C0.795403 21.1986 0.765021 21.2179 0.723031 21.2447C0.697085 21.2612 0.666707 21.2805 0.636326 21.3118L0.397674 21.5577L0.477225 21.8856C0.516998 22.0905 0.576656 22.2954 0.636314 22.5004C0.695972 22.7053 0.75563 22.9102 0.795403 23.1151L1.27268 24.4266L2.06814 23.361C2.10791 23.2791 2.16757 23.2176 2.22723 23.1561C2.28689 23.0946 2.34655 23.0332 2.38632 22.9512L2.52457 22.8222C4.18345 21.2739 6.45266 19.1561 9.625 18.279ZM20.5225 27.131C17.7384 26.0654 14.8748 25.9015 12.2498 26.6392C10.4202 27.131 8.67022 28.1146 7.0793 29.3441L5.96564 30.3278L5.64746 30.6556L6.36337 31.3114C6.41253 31.3114 6.43131 31.3427 6.45727 31.386C6.47331 31.4127 6.49209 31.444 6.52247 31.4753C6.63893 31.5953 6.75539 31.6714 6.90305 31.7679C6.95711 31.8032 7.01535 31.8412 7.0793 31.8852L7.55656 32.213L8.03384 31.8032C8.11338 31.7212 8.27247 31.5573 8.43157 31.4753C9.86339 30.2458 11.4543 29.4261 13.1248 29.0163C15.2725 28.4425 17.5793 28.5245 19.8862 29.4261C21.7953 30.1638 25.693 31.0655 30.3862 29.0163L30.5453 28.9343L30.784 28.6884C30.784 28.6378 30.8143 28.6184 30.8563 28.5917C30.8823 28.5751 30.9127 28.5558 30.9431 28.5245C31.3408 28.0327 31.7385 27.5409 32.0567 26.9671L33.6476 24.4261L31.1021 25.9015C27.3635 28.0327 23.943 28.4425 20.5225 27.131ZM22.83 32.7057C22.7107 32.6647 22.6112 32.6237 22.5118 32.5827C22.4124 32.5417 22.313 32.5007 22.1936 32.4597C19.4095 31.3942 16.5459 31.2302 13.9209 31.968L13.9207 31.968C13.3639 32.1319 12.8072 32.2958 12.2504 32.5417L10.3413 33.4434L9.86404 33.6893L11.455 34.263L12.8868 34.7549L13.1254 34.8368L13.3641 34.7549C13.4436 34.7275 13.5232 34.6911 13.6027 34.6547C13.7618 34.5818 13.9209 34.5089 14.08 34.5089C14.2391 34.5089 14.3982 34.427 14.5572 34.345C16.4663 33.8532 18.5345 33.8532 20.7618 34.5909C20.8811 34.6319 20.9805 34.6728 21.0799 34.7138L21.08 34.7139C21.1794 34.7549 21.2789 34.7958 21.3982 34.8368L21.7959 35.0007L22.0345 34.9188C22.1193 34.8938 22.2058 34.8689 22.2934 34.8437C22.7813 34.7031 23.3004 34.5535 23.705 34.345L25.9323 33.5253L23.6255 32.9516C23.5061 32.9106 23.3669 32.8696 23.2277 32.8286C23.0885 32.7876 22.9493 32.7466 22.83 32.7057ZM33.8068 16.9678L35 15.7383L34.9205 17.6236C34.9205 17.8695 34.9006 18.1359 34.8807 18.4023C34.8608 18.6687 34.8409 18.935 34.8409 19.1809V19.4268L34.6022 19.6728C34.5227 19.7547 34.4432 19.8162 34.3637 19.8776L34.3636 19.8777L34.3636 19.8777C34.2841 19.9392 34.2045 20.0006 34.125 20.0826C31.4204 22.4597 27.7613 24.5908 24.1022 25.0007C22.034 25.2466 19.9658 25.0006 17.9772 24.2629C15.6703 23.3613 13.3635 23.2793 11.2158 23.8531C8.8294 24.5088 6.76121 25.8203 4.85211 27.9515L4.53393 28.2794L3.9771 29.0171L3.49984 28.2794C3.34075 27.9515 3.18165 27.7056 2.94301 27.3777L2.62484 26.8859L2.94301 26.4761L3.9771 25.3285C5.96575 23.3613 8.19305 22.0498 10.659 21.3121C13.284 20.5744 16.1476 20.7383 18.9317 21.8039C24.8181 24.099 30.0682 20.6564 33.3295 17.4596L33.8068 16.9678Z" fill="white"/>
</svg>
