<svg width="631" height="550" viewBox="0 0 631 550" fill="none" xmlns="http://www.w3.org/2000/svg">
<path opacity="0.7" d="M142.441 171.034L351.019 498.952L560.431 171.034H142.441Z" stroke="#EEE9FD" stroke-linecap="round" stroke-linejoin="round" stroke-dasharray="3 3"/>
<circle cx="530.571" cy="177.645" r="94.2136" fill="white"/>
<circle cx="530.571" cy="177.645" r="93.2136" stroke="#FFAF2E" stroke-opacity="0.6" stroke-width="2"/>
<mask id="mask0_88_2276" style="mask-type:alpha" maskUnits="userSpaceOnUse" x="359" y="50" width="272" height="265">
<path d="M624.786 177.645C624.786 125.612 582.605 50.0003 530.572 50.0003C482.231 50.0003 442.394 115.262 436.984 166.248C388.983 160.169 324.671 136.616 383.174 180.684C406.381 198.165 420.665 223.485 448.528 223.992C464.707 252.571 495.387 271.858 530.572 271.858C556.465 271.858 579.918 261.413 596.948 244.506L592.478 286.693C592.478 367.99 647.056 255.447 624.786 177.645Z" fill="#C4C4C4"/>
</mask>
<g mask="url(#mask0_88_2276)">
<path d="M526.137 130.895C500.784 151.394 503.369 194.976 501.838 218.698C500.762 235.293 497.393 259.076 495.253 272.686L542.754 279.776V196.339C542.754 168.527 544.663 134.345 552.148 126.983C546.935 126.398 542.331 126.548 539.176 126.983C536.673 126.963 533.54 127.39 530.11 128.798C528.601 129.704 527.493 130.111 526.137 130.895Z" fill="white"/>
<path opacity="0.5" d="M526.137 130.894C500.784 151.393 503.369 194.975 501.838 218.697C500.762 235.293 497.393 259.075 495.253 272.686C513.318 279.424 521.234 281.028 542.754 279.775V196.338C542.754 174.839 543.895 149.532 547.874 135.752C543.593 142.706 537.661 176.272 538.567 196.338C539.472 216.405 538.868 255.497 533.134 266.382C527.394 277.269 497.81 269.104 500.526 260.637C503.243 252.17 503.243 224.653 505.657 192.903C507.589 167.502 520.117 140.98 526.137 130.894Z" fill="#FFB83B"/>
<path d="M533.136 266.383C527.396 277.269 497.812 269.104 500.528 260.638C507.47 271.523 524.076 268.197 526.792 263.964C529.508 259.731 533.739 249.147 533.739 231.306C533.739 217.033 537.361 189.678 539.172 177.784C538.579 184.429 538.322 190.883 538.568 196.339C539.474 216.406 538.87 255.497 533.136 266.383Z" fill="#FFF9EF"/>
<path d="M505.657 192.903C507.171 173.056 515.145 152.524 521.434 139.683C517.883 147.445 510.853 167.503 511.095 185.646C511.336 203.789 505.937 226.468 503.204 235.54C503.846 223.627 504.449 208.796 505.657 192.903Z" fill="#FFF9EF"/>
<path d="M490.562 305.693L479.993 304.182C481.606 292.99 492.796 238.321 497.433 202.338C498.443 194.488 499.491 186.274 500.555 177.797C504.666 144.964 518.895 135.284 530.106 128.798C504.753 149.297 503.365 194.976 501.834 218.698C500.758 235.294 497.389 259.076 495.249 272.686C494.941 274.64 490.809 304.21 490.562 305.693Z" fill="#FFAF2E"/>
<path d="M497.433 202.337C498.443 194.487 499.491 186.274 500.555 177.797C500.243 188.074 499.491 204.96 497.433 222.234C493.564 254.725 489.355 284.224 479.993 304.181C481.606 292.989 492.796 238.32 497.433 202.337Z" fill="#F3A00D"/>
<path d="M592 304.786C586.869 282.107 579.318 192.903 579.318 192.903C579.318 192.903 585.404 161.425 575.395 146.033C568.996 136.188 552.149 126.983 552.149 126.983C544.664 134.345 542.754 168.527 542.754 196.339V279.775V308.717C555.771 311.438 577.507 312.648 592 304.786Z" fill="#FFAF2E"/>
<path d="M546.557 141.195C543.638 155.562 542.754 177.423 542.754 196.339V267.593C544.022 257.11 546.288 229.613 545.207 203.487C544.126 177.36 545.657 151.073 546.557 141.195Z" fill="#F9A319"/>
<path d="M592 304.786C586.869 282.107 579.318 192.903 579.318 192.903C579.318 192.903 585.404 161.425 575.395 146.033C575.395 162.362 567.547 184.436 572.075 206.51C578.166 236.196 583.242 263.359 577.508 283.921C572.92 300.371 552.423 307.306 542.754 308.717C555.771 311.438 577.507 312.648 592 304.786Z" fill="#F9A319"/>
<path d="M625.506 215.885C627.317 197.137 609.208 169.62 588.679 149.057C579.547 139.912 560.906 129.1 552.147 126.983L579.317 192.904C579.317 192.904 587.757 202.338 598.496 218.698C601.822 211.336 615.848 206.511 625.506 215.885Z" fill="#FFAF2E"/>
<path d="M625.507 215.885C627.318 197.136 609.203 169.619 588.68 149.057C583.911 144.283 576.552 139.054 569.358 134.845C571.674 138.877 576.662 148.09 578.111 152.686C579.921 158.431 618.867 181.397 615.547 210.887C618.988 211.386 622.462 212.93 625.507 215.885Z" fill="#F9A319"/>
<path d="M595.265 210.884C595.836 205.176 601.203 201.846 605.006 200.894C613.556 198.753 622.1 201.37 626.375 207.793C630.106 213.394 625.903 221.589 622.1 224.682C622.813 213.977 618.78 210.171 609.989 211.598C601.203 213.025 598.591 218.497 598.119 223.254C595.979 221.589 594.552 218.021 595.265 210.884Z" fill="#F9A319"/>
<path d="M609.987 211.599C601.202 213.026 598.59 218.497 598.112 223.255C598.908 233.166 600.346 256.462 599.775 270.354C599.067 287.72 598.112 293.666 595.028 301.278C591.939 308.89 596.021 316.797 601.959 315.37C607.897 313.942 612.742 306.987 611.321 301.278C609.894 295.569 611.321 289.86 613.692 285.816C616.068 281.772 622.099 247.042 622.099 224.682C622.812 213.977 618.773 210.171 609.987 211.599Z" fill="#FFD0B7"/>
<path d="M500.558 177.797C504.668 144.964 518.898 135.284 530.109 128.798C520.736 133.856 499.603 139.683 484.188 167.163C471.095 190.504 461.146 196.651 457.057 197.741C461.996 202.377 470.552 216.315 469.734 225.258C475.051 221.332 490.291 208.155 497.435 202.337C498.445 194.488 499.493 186.274 500.558 177.797Z" fill="#FFAF2E"/>
<path d="M497.434 202.337C498.443 194.487 499.492 186.274 500.556 177.797C497.642 192.628 486.639 201.37 480.603 203.487C475.768 205.18 470.906 214.474 469.084 218.908C469.65 221.162 469.908 223.327 469.732 225.259C475.05 221.332 490.289 208.155 497.434 202.337Z" fill="#F9A319"/>
<path d="M465.098 212.275C461.718 201.689 456.757 198.397 454.639 198.044C455.347 197.338 457.224 195.708 459.55 195.072C462.453 194.279 470.647 195.072 474.345 201.16C477.479 206.315 480.952 214.657 474.345 222.862C469.061 229.425 457.701 228.772 452.68 227.626C458.228 226.92 468.144 221.803 465.098 212.275Z" fill="#F9A319"/>
<path d="M452.679 227.626C458.227 226.92 468.143 221.803 465.097 212.275C462.666 204.662 459.472 199.253 454.638 198.043C453.496 198.47 451.252 199.413 442.373 195.602C431.277 190.838 395.078 174.164 392.436 171.783C389.793 169.401 383.981 161.197 375.79 161.461C367.599 161.726 370.505 176.811 380.282 179.458C390.058 182.104 398.249 189.25 403.004 194.544C407.761 199.836 433.389 225.508 452.679 227.626Z" fill="#FFD0B7"/>
<path d="M529.855 128.809V112.393L552.146 101.583V126.983C542.208 145.539 528.95 140.816 529.855 128.809Z" fill="#FFD0B7"/>
<path d="M532.32 111.199L552.147 101.583V126.983C552.131 127.02 552.109 127.056 552.092 127.093C551.094 128.941 550.067 130.556 549.019 131.954C545.332 126.392 535.58 117.761 529.856 113.451V112.598L532.32 111.199Z" fill="url(#paint0_linear_88_2276)"/>
<path d="M518.792 71.0127C518.792 80.6473 523.615 81.8192 527.166 81.3108L548.875 104.958C549.127 105.467 551.558 107.563 551.558 112.51C551.558 117.527 555.499 107.115 558.418 104.958C564.465 100.493 568.576 100.361 570.491 92.9968C572.137 86.6756 569.816 82.2007 567.912 81.3108C566.77 80.8023 565.552 79.709 563.725 79.4039C561.897 79.0983 561.436 75.9713 561.436 74.4454C561.31 73.3015 560.816 71.7102 557.902 69.8682C556.091 68.7244 551.41 68.2154 549.632 69.8682C548.491 70.5042 545.901 71.1655 544.682 68.7244C543.464 66.2833 540.874 67.1985 539.733 67.9609C536.385 69.1812 528.62 65.5968 525.602 56.2227C521.98 61.0609 518.792 64.3869 518.792 71.0127Z" fill="#2B2B39"/>
<path d="M567.913 81.311C566.771 80.802 565.553 79.7087 563.726 79.4036C573.143 86.4229 565.553 97.6692 559.517 100.692C554.688 103.111 552.202 109.578 551.56 112.51C551.56 117.527 555.5 107.115 558.419 104.958C564.467 100.493 568.577 100.36 570.492 92.997C572.138 86.6758 569.817 82.2003 567.913 81.311Z" fill="#13131C"/>
<path d="M539.735 67.9609C536.388 69.1812 528.622 65.5962 525.604 56.2227C525.659 61.8612 528.403 72.7134 538.939 71.0127C540.586 70.4603 542.506 69.3609 544.701 71.5596C546.896 73.7583 552.45 68.7239 557.905 69.8683C556.094 68.7239 551.413 68.2149 549.635 69.8683C548.493 70.5037 545.903 71.165 544.685 68.7239C543.467 66.2828 540.882 67.198 539.735 67.9609Z" fill="#13131C"/>
<path d="M538.215 113.349C547.05 110.603 550.524 104.322 551.161 101.526C551.419 100.381 552.05 97.2031 551.924 95.8047C551.007 93.0586 548.241 96.9486 546.974 99.2374C545.278 102.289 544.971 91.6091 546.974 88.9393C549.712 85.2774 545.448 84.3078 543.544 83.2183C542.655 82.7093 540.196 81.8453 537.453 82.4554C534.709 83.0655 533.265 81.4379 532.881 80.548C531.866 78.8957 529.227 76.5816 526.79 80.548C521.001 89.3972 522.093 101.017 523.366 105.721C524.633 109.408 529.38 116.095 538.215 113.349Z" fill="#FFD0B7"/>
</g>
<g filter="url(#filter0_d_88_2276)">
<circle cx="153.425" cy="171.185" r="95.4249" fill="white"/>
<circle cx="153.425" cy="171.185" r="94.4249" stroke="#217BF4" stroke-opacity="0.6" stroke-width="2"/>
</g>
<mask id="mask1_88_2276" style="mask-type:alpha" maskUnits="userSpaceOnUse" x="58" y="50" width="215" height="240">
<path d="M58 171.603C58 118.901 100.723 50.0849 153.425 50.0849C280.459 46.5065 276.931 156.941 269.724 212.605H239.616C224.279 244.787 191.449 267.028 153.425 267.028C140.77 267.028 128.691 264.564 117.641 260.091C116.89 259.787 116.145 259.474 115.404 259.152C112.919 265.256 108.098 279.403 108.694 287.156C96.7664 296.848 67.5305 278.061 69.9215 217.824C62.3254 204.13 58 188.372 58 171.603Z" fill="#C4C4C4"/>
</mask>
<g mask="url(#mask1_88_2276)">
<path d="M262.828 195.834C256.991 197.629 249.751 200.163 244.378 198.84C240.072 197.779 240.396 196.401 239.909 193.509C241.274 191.162 247.043 186.651 258.212 184.35C272.171 181.473 273.092 192.679 262.828 195.834Z" fill="#FEBE9D"/>
<path d="M199.356 153.561C197.637 149.328 192.909 148.622 190.761 148.799C175.103 155.148 184.62 200.917 188.304 207.001C191.988 213.086 196.287 215.468 200.585 217.319C204.882 219.171 213.479 218.113 215.628 216.79C217.777 215.468 218.391 214.144 220.847 213.88C223.303 213.615 227.294 212.822 228.829 211.235C230.364 209.647 231.592 208.06 235.276 208.06C238.96 208.06 242.03 205.414 243.258 203.827C244.486 202.239 245.407 201.975 247.556 201.446C249.706 200.917 251.854 200.917 252.469 198.271C253.082 195.626 253.39 190.334 253.082 187.689C252.775 185.043 252.775 185.043 251.24 185.308C249.706 185.573 245.714 187.689 244.486 187.689C243.258 187.689 241.109 187.424 238.96 188.218C236.811 189.012 229.75 191.922 225.145 193.245C220.54 194.567 213.786 194.832 214.4 192.98C215.014 191.128 217.163 185.837 212.865 185.837C208.567 185.837 208.567 182.927 206.725 176.842C204.882 170.757 201.506 158.852 199.356 153.561Z" fill="#FFBE56"/>
<path d="M244.795 199.331C246.125 199.242 249.154 198.696 250.627 197.214M246.022 190.6C246.943 189.807 249.338 188.219 251.548 188.219L246.022 190.6ZM248.171 191.923L250.627 190.865L248.171 191.923ZM245.101 195.627C246.534 195.45 249.768 194.78 251.242 193.51L245.101 195.627Z" stroke="#F9A319" stroke-width="1.07894"/>
<path d="M245.628 201.994C245.067 199.885 244.508 196.591 245.101 194.038C244.486 195.89 242.706 200.229 240.496 202.769C237.733 205.943 234.355 205.679 233.741 203.033C233.127 200.388 229.443 201.975 228.215 205.15C226.987 208.324 224.224 212.293 219.619 212.557C215.306 212.805 213.147 213.749 211.882 214.303C211.796 214.34 211.715 214.376 211.637 214.409C210.409 214.938 210.716 212.822 211.944 211.499C213.172 210.176 214.707 206.737 214.4 204.885C212.865 207.795 209.795 211.764 204.883 213.086C199.971 214.409 197.208 211.235 200.892 208.324C204.576 205.414 207.339 202.769 208.26 200.388C208.608 199.488 208.123 199.797 207.152 200.416C205.555 201.435 202.644 203.291 199.971 201.975C195.672 199.859 196.287 193.774 199.664 192.715C200.743 192.377 202.355 192.282 204.089 192.18C207.782 191.962 212.029 191.712 212.865 189.012C211.023 190.07 200.278 191.657 199.971 185.043C199.664 178.429 199.05 173.932 197.514 170.228C197.005 168.998 196.766 167.389 196.517 165.71C196.015 162.334 195.473 158.679 192.603 157.265C191.783 156.861 188.395 157.016 183.765 157.829C178.997 173.314 185.428 202.252 188.304 207.002C191.988 213.087 196.287 215.468 200.585 217.32C204.882 219.172 213.479 218.113 215.628 216.791C216.33 216.358 216.869 215.926 217.362 215.53C218.375 214.716 219.194 214.059 220.847 213.88C223.303 213.616 227.294 212.822 228.829 211.235C228.939 211.121 229.048 211.007 229.156 210.894C230.553 209.428 231.856 208.06 235.276 208.06C238.96 208.06 242.03 205.415 243.258 203.828C244.04 202.816 244.698 202.342 245.628 201.994Z" fill="#FFAF2E"/>
<path d="M191.28 211.038C192.806 209.32 195.397 206.904 197.822 206.208C201.506 205.149 199.664 204.62 196.594 205.679C193.524 206.737 192.91 205.943 192.603 202.504C192.296 199.064 193.524 192.979 195.366 188.746C197.208 184.514 199.664 171.286 194.445 166.259C192.044 163.947 186.98 164.21 182.241 166.584C181.056 182.345 185.911 203.048 188.305 207.001C189.259 208.577 190.254 209.904 191.28 211.038Z" fill="#F9A319"/>
<path d="M242.644 199.595C245.346 196.421 244.998 190.688 244.486 188.219C245.305 190.336 246.451 195.309 244.486 198.272C242.03 201.976 242.03 200.389 242.644 199.595Z" fill="#FFAF2E"/>
<path d="M168.658 276.051C177.745 272.453 189.841 274.199 194.753 275.522C195.367 275.68 195.981 275.522 197.209 271.818C198.437 268.115 197.516 258.855 197.209 258.061C196.902 257.268 196.902 256.739 197.209 255.416C198.744 246.685 192.911 225.786 190.455 214.145C187.999 202.505 191.376 191.658 194.753 183.721C198.131 175.784 195.367 165.467 194.446 154.885C193.525 144.302 183.087 143.509 168.965 140.598C154.843 137.688 136.729 137.688 128.747 155.149C120.765 172.61 128.133 195.362 128.747 208.325C129.361 221.288 123.221 232.4 119.23 243.776C115.239 255.151 116.16 263.617 114.932 271.025C113.949 276.951 115.955 279.491 117.081 280.02C117.183 281.342 117.388 284.887 117.388 288.485C117.388 292.983 119.23 295.364 123.835 295.099C128.44 294.835 135.808 292.189 142.255 287.956C148.702 283.724 157.299 280.548 168.658 276.051Z" fill="#FFBE56"/>
<path d="M168.965 226.05C160.615 232.399 150.34 231.165 146.247 229.754C146.247 230.9 148.212 233.775 156.071 236.103C165.895 239.013 172.649 232.399 175.412 227.108C177.623 222.875 182.473 216.879 184.622 214.41C182.883 215.644 177.316 219.701 168.965 226.05Z" fill="#F9A319"/>
<path d="M194.753 275.522C189.841 274.199 177.745 272.453 168.658 276.051C167.411 276.544 166.197 277.022 165.016 277.487C155.437 281.258 147.995 284.188 142.255 287.956C135.808 292.189 128.44 294.835 123.835 295.099C119.23 295.364 117.388 292.983 117.388 288.485C117.388 284.887 117.183 281.342 117.081 280.019C115.955 279.49 113.949 276.95 114.932 271.025C115.326 268.65 115.498 266.165 115.683 263.512C116.074 257.889 116.519 251.504 119.23 243.775C120.153 241.143 121.192 238.526 122.235 235.896C125.701 227.159 129.219 218.289 128.747 208.324C128.584 204.889 127.947 200.765 127.247 196.234C125.305 183.672 122.881 167.981 128.747 155.149C128.848 154.929 128.95 154.711 129.054 154.497C141.122 144.75 153.091 140.599 163.124 139.622C165.12 139.872 167.078 140.209 168.965 140.598C170.476 140.91 171.946 141.197 173.366 141.475C178.865 142.549 183.623 143.48 187.226 145.113C187.844 145.715 188.311 146.332 188.613 146.947C192.911 155.677 184.008 165.73 176.947 170.757C169.886 175.783 171.421 177.899 179.403 175.783C186.478 173.907 185.353 174.525 176.668 179.295C175.555 179.907 174.317 180.587 172.956 181.338C160.983 187.952 174.491 185.306 184.315 183.189C194.139 181.073 192.297 186.1 190.148 188.216C189.248 189.103 188.24 189.618 187.35 190.072C186.115 190.704 185.108 191.219 184.929 192.449C184.622 194.565 182.473 196.946 179.71 198.005C179.492 198.088 179.27 198.172 179.045 198.256C176.423 199.243 173.424 200.372 171.728 203.295C169.886 206.47 165.281 206.999 159.755 206.734C154.228 206.47 146.86 208.586 153.615 214.142C160.369 219.697 169.886 215.729 174.798 213.613C163.439 225.782 147.167 216.787 144.097 212.554C141.027 208.321 139.492 206.999 135.501 208.057C131.51 209.115 130.282 214.14 133.966 215.199C135.599 215.668 137.291 215.462 138.671 215.293C140.404 215.082 141.641 214.931 141.641 216.257C141.641 218.272 136.802 221.805 132.523 224.927C131.747 225.494 130.989 226.047 130.282 226.575C125.677 230.014 130.896 232.924 134.273 233.982C137.65 235.041 136.729 236.363 131.203 241.655C123.528 249.328 138.264 256.471 151.773 248.269C162.579 241.708 172.035 241.126 175.412 241.655C171.523 242.625 162.088 246.1 155.457 252.238C149.867 257.411 142.463 258.855 135.88 260.139C132.7 260.76 129.712 261.343 127.212 262.291C119.537 265.201 123.528 271.021 129.975 271.286C133.414 271.427 139.473 268.106 146.429 264.293C152.514 260.957 159.285 257.246 165.588 255.148C179.096 250.65 188.306 254.09 193.218 255.942C185.236 255.413 162.825 262.027 151.159 268.641C145.516 271.84 141.309 273.058 137.637 274.123C133.716 275.258 130.402 276.218 126.598 279.223C119.23 285.044 129.054 289.012 136.115 287.954C139.27 287.481 143.711 284.896 148.782 281.945C155.062 278.29 162.308 274.073 169.272 272.609C178.587 270.652 190.372 272.769 196.217 274.354C195.597 275.59 195.175 275.63 194.753 275.522Z" fill="#FFAF2E"/>
<path d="M128.35 203.887C129.62 202.329 131.45 199.963 132.431 198.272C133.966 195.627 134.887 194.568 137.036 196.421C139.185 198.272 142.562 198.008 144.404 195.892C144.368 196.037 144.332 196.181 144.296 196.324C143.422 199.798 142.816 202.21 149.009 201.447C151.274 201.168 154.524 201.543 157.667 201.905C163.473 202.573 168.915 203.2 167.123 199.595C164.359 194.04 162.517 180.547 168.044 175.785C172.464 171.976 176.231 166.614 177.561 164.409C180.017 159.383 179.771 149.594 159.141 150.653C150.951 151.072 142.019 149.331 133.661 147.649C131.773 149.687 130.112 152.162 128.747 155.149C122.88 167.981 125.305 183.671 127.247 196.234C127.667 198.951 128.064 201.523 128.35 203.887Z" fill="#F9A319"/>
<path d="M182.78 265.732C189.166 265.944 190.558 261.94 190.455 259.912C190.455 258.324 192.297 258.324 191.376 265.203C190.455 272.082 179.403 268.378 169.886 269.171C160.369 269.965 146.861 276.051 143.483 277.902C160.062 265.467 174.798 265.467 182.78 265.732Z" fill="#F9A319"/>
<path d="M189.839 257.002C190.555 259.736 191.865 266.632 191.374 272.347M121.99 281.606C121.99 283.546 122.175 288.22 122.911 291.395L121.99 281.606ZM129.359 278.167C130.075 280.548 131.446 285.839 131.201 287.955L129.359 278.167ZM134.271 275.521C134.783 277.373 135.806 282.505 135.806 288.22L134.271 275.521ZM140.411 276.05V282.929V276.05ZM145.323 272.347C145.937 273.934 146.981 277.849 146.244 280.812L145.323 272.347ZM150.235 269.436C150.747 271.2 151.77 275.415 151.77 278.167L150.235 269.436ZM156.375 267.849V274.727V267.849ZM162.208 264.41C162.72 266.703 163.436 272.135 162.208 275.521V264.41ZM166.506 263.087C167.223 264.586 168.533 268.378 168.041 271.553L166.506 263.087ZM173.874 261.764C173.874 264.057 173.874 268.854 173.874 269.701V261.764ZM177.866 259.648C178.172 261.764 178.787 266.897 178.787 270.494L177.866 259.648ZM186.155 262.822C186.257 264.939 186.278 269.648 185.541 271.553L186.155 262.822Z" stroke="#F9A319" stroke-width="1.07894"/>
<path d="M125.063 276.845C145.121 267.586 187.508 249.967 195.367 256.739" stroke="#FFAF2E" stroke-width="1.07894"/>
<path d="M114.932 271.024C113.949 276.95 115.955 279.49 117.081 280.019C117.13 280.65 117.202 281.786 117.264 283.193C120.068 280.901 126.291 275.997 128.747 274.727C124.142 276.05 118.061 278.696 117.264 272.876C116.467 267.055 119.537 260.971 121.379 257.796C123.221 254.621 125.424 245.097 123.095 233.722C121.772 237.086 120.407 240.419 119.23 243.774C115.239 255.15 116.16 263.616 114.932 271.024Z" fill="#3085C3"/>
<path d="M92.5135 284.329C92.9331 278.16 94.0004 270.659 97.1298 266.038C99.6377 262.335 100.794 263.131 103.634 263.698C105.313 265.825 108.208 272.929 106.362 284.329C104.054 298.578 91.7757 295.175 92.5135 284.329Z" fill="#FEBE9D"/>
<path d="M90.9844 275.522C91.4756 274.464 91.8031 272.965 91.9054 272.347C92.8264 265.469 91.9054 258.855 91.9054 247.479C91.9054 236.103 94.6688 224.198 97.1245 219.965C99.5807 215.733 98.9665 212.029 100.195 209.913C101.423 207.796 105.107 205.415 103.879 198.272C102.651 191.129 106.949 190.335 107.256 181.34C107.563 172.345 109.405 160.969 115.238 153.032C121.071 145.096 142.561 139.805 144.711 154.885C146.86 169.964 138.877 180.017 135.5 186.631C132.123 193.245 127.825 207.531 127.211 211.235C126.597 214.939 123.834 225.521 123.834 230.018C123.834 234.516 122.606 242.717 120.764 249.86C118.922 257.003 114.931 265.733 113.703 266.527C112.475 267.321 111.861 267.85 111.861 269.173C111.861 270.495 111.247 274.993 110.94 276.58C110.633 278.168 110.326 278.697 109.405 278.168C108.484 277.638 106.949 277.638 104.186 277.638C101.423 277.638 96.8177 278.168 94.0547 277.903C91.2916 277.638 90.3707 276.845 90.9844 275.522Z" fill="#FFBE56"/>
<path d="M102.959 268.38C97.0646 269.65 93.9535 268.556 93.1348 267.851C94.8745 268.38 99.0093 268.809 102.345 267.851C105.108 267.057 108.997 267.145 110.327 267.586C108.895 267.586 105.415 267.745 102.959 268.38Z" fill="#FFAF2E"/>
<path d="M107.257 268.907C106.95 269.966 106.582 272.347 107.564 273.405C108.547 274.463 107.769 275.433 107.257 275.786M96.512 271.289C96.7165 272.082 96.8803 274.093 95.8982 275.786L96.512 271.289ZM100.81 269.437L100.503 275.257L100.81 269.437Z" stroke="#F9A319" stroke-width="1.07894"/>
<path d="M107.274 277.69C108.073 276.266 108.983 274.057 108.792 272.082C108.485 268.908 104.187 267.85 101.731 268.379C104.801 267.056 111.555 264.146 113.397 257.532C115.239 250.918 114.625 246.95 108.792 246.421C107.564 246.421 106.336 246.156 110.634 242.982C114.932 239.807 121.686 233.722 115.239 230.018C108.792 226.315 104.494 223.404 103.573 219.436C106.643 221.553 110.327 223.934 111.862 224.198C113.19 224.427 113.139 224.26 112.506 222.157C112.406 221.828 112.293 221.452 112.169 221.024C111.248 217.849 109.099 209.912 109.099 207.531C110.02 210.441 111.555 214.939 115.546 216.791C119.537 218.642 120.765 213.616 120.151 210.177C119.537 206.737 119.23 204.092 123.221 201.182C127.212 198.272 133.659 187.954 129.054 183.456C124.449 178.959 116.16 170.758 116.467 164.408C116.706 159.472 116.202 157.894 113.946 154.949C114.353 154.291 114.784 153.651 115.239 153.032C119.408 147.36 131.573 143.04 138.96 146.54C139.651 146.962 140.335 147.39 141.012 147.824C142.903 149.359 144.251 151.654 144.711 154.885C146.501 167.439 141.267 176.51 137.516 183.012C136.761 184.32 136.067 185.524 135.501 186.631C132.124 193.245 127.826 207.531 127.212 211.235C127.022 212.381 126.626 214.187 126.17 216.267C125.152 220.907 123.835 226.913 123.835 230.018C123.835 234.516 122.607 242.717 120.765 249.86C118.923 257.003 114.932 265.733 113.704 266.527C112.476 267.321 111.862 267.85 111.862 269.173C111.862 270.496 111.248 274.993 110.941 276.58C110.634 278.168 110.327 278.697 109.406 278.168C108.907 277.881 108.229 277.75 107.274 277.69Z" fill="#FFAF2E"/>
<path d="M130.392 199.806C128.784 204.75 127.524 209.355 127.213 211.234C127.022 212.38 126.626 214.186 126.17 216.266C125.153 220.906 123.835 226.912 123.835 230.017C123.835 231.421 123.716 233.186 123.495 235.167C121.868 231.932 119.253 228.37 115.853 227.638C110.538 226.492 113.735 226.537 116.083 226.569C116.448 226.574 116.793 226.579 117.081 226.579C119.23 226.579 120.151 225.52 117.695 224.197C115.731 223.139 112.783 217.407 111.555 214.673C112.886 217.407 116.774 222.874 121.687 222.874C123.221 222.874 124.45 221.552 123.529 218.906C122.71 216.555 125.285 206.477 130.392 199.806Z" fill="#F9A319"/>
<path d="M146.602 136.42L148.737 124.115L163.946 127.325C163.591 128.93 163.626 133.905 164.48 139.898C165.334 145.889 167.86 149.082 169.283 150.062L146.602 136.42Z" fill="#FEBE9D"/>
<path d="M148.868 124.115L163.769 127.316C163.508 128.515 163.462 131.6 163.807 135.585C153.172 134.305 149.416 127.405 148.868 124.115Z" fill="#F2AD8A"/>
<path d="M140.402 177.852C139.843 174.165 142.359 173.375 144.595 172.321C145.961 171.678 147.638 170.839 148.23 169.204C152.154 170.762 156.079 171.154 162.208 170.353C162.488 174.082 163.103 182.699 163.326 187.334C163.606 193.129 165.563 202.348 159.133 199.187C152.703 196.027 150.746 195.763 147.671 196.553C144.595 197.343 142.359 196.553 142.079 191.549C141.8 186.544 140.961 178.906 140.402 177.852Z" fill="#8CB9FF"/>
<path d="M147.132 196.7C146.277 194.84 144.984 190.645 145.394 185.776C145.949 179.182 147.613 173.908 149.555 178.918C151.108 182.927 151.496 187.621 151.496 189.467C152.606 188.851 154.88 186.249 155.102 180.764C155.379 173.907 155.657 174.17 156.489 178.126C157.321 182.082 157.598 182.61 158.431 178.126C158.542 177.528 158.633 176.985 158.716 176.493C159.242 173.369 159.423 172.297 162.144 171.825C162.105 171.279 162.068 170.785 162.036 170.355C155.955 171.156 152.062 170.764 148.168 169.204C147.581 170.841 145.917 171.681 144.562 172.325C144.377 172.413 144.19 172.499 144.003 172.585C141.948 173.532 139.893 174.479 140.401 177.863C140.956 178.918 141.788 186.566 142.066 191.577C142.328 196.321 144.331 197.283 147.132 196.7Z" fill="#7EAEFA"/>
<path opacity="0.5" d="M140.947 180.263C142 178.024 143.842 174.941 145.684 174.418C148.464 173.63 149.02 173.104 149.854 172.315C150.688 171.526 151.522 172.052 151.8 173.104C152.078 174.155 152.912 173.104 153.746 172.052C154.58 171 156.248 171.789 156.526 172.578C156.625 172.86 156.973 172.672 157.569 172.35C158.494 171.85 160.02 171.026 162.144 171.136C162.124 170.856 162.104 170.593 162.086 170.351C155.991 171.151 152.089 170.759 148.186 169.204C147.598 170.836 145.929 171.673 144.572 172.316C144.387 172.403 144.199 172.489 144.012 172.575C141.952 173.519 139.892 174.463 140.401 177.837C140.566 178.148 140.755 179.037 140.947 180.263Z" fill="#70A2F2"/>
<path d="M160.662 131.346C150.532 130.075 142.429 121.256 139.734 117.197C134.346 118.521 133.268 117.725 132.998 114.019C132.729 110.312 139.734 108.458 141.082 102.369C142.429 96.2794 147.009 84.8952 159.942 79.5997C172.875 74.3046 183.922 91.5142 184.192 96.8097C184.461 102.105 183.657 114.704 180.42 121.962C176.993 129.644 173.326 132.934 160.662 131.346Z" fill="#FEBE9D"/>
<path d="M140.25 116.67C134.892 117.991 133.634 118.025 133.366 114.331C128.276 115.387 117.292 119.233 114.077 126.173C110.059 134.847 114.077 136.232 116.756 137.552C119.435 138.871 118.096 142.565 114.613 143.093C111.131 143.621 110.863 140.982 110.595 139.399C108.987 146.523 114.613 146.523 117.024 145.468C115.417 149.69 115.953 152.857 119.703 153.912C123.454 154.967 119.703 158.926 119.703 162.62C119.703 166.314 123.722 168.425 123.99 171.064C124.258 173.702 127.472 175.022 130.687 176.077C133.902 177.133 132.562 178.452 131.223 180.827C129.883 183.202 132.026 185.049 132.294 188.215C132.562 191.382 134.705 191.646 137.384 192.173C134.705 187.688 136.313 186.104 137.92 184.785L137.97 184.744C139.555 183.443 140.861 182.371 140.331 178.716C139.795 175.022 142.206 174.23 144.35 173.174C146.493 172.119 149.44 170.536 147.296 165.786C145.153 161.036 151.851 157.87 153.458 153.12C155.065 148.37 151.315 142.565 149.707 140.454C148.1 138.343 146.493 135.177 145.957 133.857C145.421 132.538 145.957 132.538 146.225 132.802C147.564 134.122 147.832 133.066 148.1 131.747C148.315 130.691 148.547 127.591 148.636 126.173C144.551 123.231 141.716 118.884 140.25 116.67Z" fill="#2B2B39"/>
<path d="M163.484 134.913V131.5C170.144 131.977 173.946 130.737 176.664 128.052C182.191 134.649 177.298 140.454 176.495 141.774C174.887 139.663 171.673 138.871 170.869 138.871C170.065 138.871 169.262 139.135 168.458 137.816C167.654 136.496 167.386 134.913 165.779 133.858C164.493 133.013 163.713 134.21 163.484 134.913Z" fill="#2B2B39"/>
<path d="M132.995 128.793C134.615 129.996 137.399 133.382 135.569 137.301" stroke="#151523" stroke-width="0.8"/>
<path d="M140.25 131.771C143.71 134.473 149.825 141.183 146.595 146.413C142.557 152.949 141.691 155.303 141.691 160.27" stroke="#151523" stroke-width="0.8"/>
<path d="M133.444 164.099C135.292 163.313 138.378 160.062 135.939 153.351C133.499 146.641 136.586 142.691 138.434 141.555" stroke="#151523" stroke-width="0.8"/>
<path d="M124.147 144.107C121.921 146.284 118.805 151.109 124.147 152.991C130.825 155.342 132.428 157.694 130.291 162.397" stroke="#151523" stroke-width="0.8"/>
<path d="M123.01 157.293C123.695 158.105 124.653 160.432 123.01 163.248" stroke="#151523" stroke-width="0.8"/>
<path d="M119.534 128.429C118.613 129.311 117.385 131.709 119.841 134.249C122.911 137.424 122.604 139.275 121.069 141.392" stroke="#151523" stroke-width="0.8"/>
<path opacity="0.5" d="M125.72 117.493C124.516 119.132 123.326 120.972 122.401 122.822C121.525 124.574 120.879 126.349 120.689 127.974C120.499 129.6 120.763 131.105 121.743 132.287C121.976 132.568 122.204 132.84 122.425 133.104C123.307 134.154 124.082 135.078 124.64 135.956C125.334 137.047 125.663 138.024 125.451 139.03C125.238 140.041 124.467 141.133 122.821 142.429C121.653 143.35 120.056 144.362 117.937 145.51C117.824 145.778 117.721 146.041 117.628 146.299C120.083 145 121.915 143.859 123.236 142.82C124.929 141.486 125.808 140.297 126.055 139.125C126.304 137.948 125.904 136.843 125.178 135.701C124.6 134.792 123.795 133.833 122.911 132.78L122.911 132.779C122.692 132.519 122.469 132.252 122.242 131.979C121.38 130.939 121.119 129.58 121.3 128.027C121.482 126.476 122.102 124.757 122.965 123.031C124.014 120.934 125.412 118.843 126.781 117.053C126.427 117.195 126.073 117.342 125.72 117.493Z" fill="#1C1C2A"/>
<path opacity="0.5" d="M142.223 119.793C141.692 121.59 141.287 124.017 141.439 126.614C141.635 129.946 142.749 133.575 145.709 136.499C149.324 140.07 150.601 142.592 150.601 144.771C150.601 146.96 149.318 148.882 147.562 151.283C145.795 153.7 144.753 156.081 144.892 158.949C145.012 161.445 146.025 164.28 148.17 167.801C148.062 167.197 147.85 166.523 147.511 165.77C147.399 165.521 147.312 165.277 147.246 165.036C146.078 162.689 145.514 160.702 145.429 158.923C145.298 156.218 146.272 153.954 147.998 151.594C149.735 149.219 151.139 147.159 151.139 144.771C151.139 142.372 149.729 139.719 146.089 136.124C143.246 133.316 142.165 129.823 141.976 126.583C141.837 124.211 142.176 121.983 142.643 120.278C142.499 120.114 142.359 119.953 142.223 119.793Z" fill="#1C1C2A"/>
<path opacity="0.5" d="M136.875 192.173C136.344 191.55 135.839 190.821 135.446 190.011C134.573 188.212 134.253 186.02 135.393 183.665C136.737 180.889 136.244 178.418 135.791 176.144C135.731 175.84 135.671 175.54 135.616 175.243C135.382 173.972 135.239 172.762 135.489 171.549C135.737 170.344 136.377 169.114 137.754 167.819C139.215 166.445 139.763 165.022 139.873 163.546C139.965 162.308 139.747 161.03 139.527 159.739C139.488 159.513 139.449 159.286 139.412 159.06C139.161 157.522 138.975 155.944 139.306 154.28C139.635 152.623 140.481 150.86 142.33 148.969L142.337 148.961L142.344 148.953C143.627 147.405 143.822 145.313 143.131 143.196C142.458 141.137 140.942 139.031 138.723 137.304C139.359 136.074 139.792 133.134 137.532 129.279C136.062 126.769 135.147 124.558 135.049 122.433C134.978 120.887 135.338 119.369 136.26 117.798C136.051 117.789 135.858 117.767 135.68 117.733C134.797 119.312 134.439 120.865 134.512 122.457C134.616 124.711 135.582 127.011 137.067 129.544C139.355 133.447 138.731 136.263 138.177 137.184C136.493 138.301 134.167 140.437 132.571 143.274C131.034 146.007 130.169 149.404 131.227 153.164C131.138 153.126 131.046 153.088 130.952 153.05C127.361 151.606 126.137 149.941 126.014 148.366C125.888 146.754 126.897 145.101 128.103 143.645C129.32 142.176 130.894 139.951 131.548 137.507C132.205 135.045 131.927 132.351 129.424 130.015C127.565 128.281 127.084 126.048 127.25 123.932C127.416 121.81 128.233 119.832 128.933 118.666L128.47 118.395C127.737 119.617 126.888 121.673 126.714 123.891C126.54 126.114 127.044 128.525 129.054 130.401C131.387 132.576 131.646 135.057 131.028 137.372C130.404 139.704 128.889 141.858 127.687 143.309C126.476 144.772 125.335 146.569 125.478 148.407C125.624 150.282 127.086 152.068 130.75 153.542C131.031 153.656 131.294 153.772 131.538 153.891C132.862 154.536 133.636 155.254 134.041 155.993C134.443 156.728 134.496 157.513 134.316 158.331C133.949 159.992 132.638 161.721 131.445 163.244L131.294 163.436C131.064 163.729 130.842 164.013 130.636 164.283C129.408 165.9 128.834 167.285 128.87 168.695C128.896 169.745 129.26 170.78 129.895 171.907C129.024 171.252 128.151 170.528 127.435 169.703C126.414 168.527 125.728 167.163 125.82 165.519C125.863 164.743 126.079 163.895 126.526 162.964C127.135 161.695 127.566 160.558 127.741 159.561C127.915 158.562 127.834 157.678 127.387 156.942C126.94 156.205 126.153 155.661 125.008 155.284C124.029 154.961 122.77 154.756 121.197 154.661C121.316 154.828 121.397 155.012 121.446 155.21C122.857 155.309 123.975 155.503 124.838 155.787C125.91 156.14 126.567 156.624 126.926 157.214C127.285 157.805 127.372 158.547 127.211 159.471C127.049 160.398 126.641 161.484 126.041 162.737C125.573 163.712 125.335 164.619 125.285 165.465C125.003 166.62 124.584 168.47 124.234 170.298C124.193 170.509 124.153 170.721 124.115 170.931C124.123 170.98 124.129 171.028 124.134 171.077C124.174 171.475 124.281 171.843 124.444 172.184C124.537 171.611 124.645 171.007 124.761 170.397C124.977 169.27 125.219 168.135 125.439 167.161C125.711 168.255 126.298 169.209 127.027 170.048C128.101 171.285 129.5 172.293 130.693 173.149L131.075 172.788C130.008 171.208 129.438 169.933 129.407 168.682C129.375 167.438 129.875 166.17 131.066 164.602C131.152 164.488 131.242 164.372 131.334 164.253C131.301 165.173 131.328 166.373 131.484 167.649C131.697 169.379 132.151 171.272 133.036 172.801C133.829 174.172 133.516 175.791 132.734 177.313C132.733 177.315 132.733 177.317 132.731 177.318C132.887 177.633 132.874 177.979 132.751 178.364C132.916 178.101 133.071 177.83 133.213 177.553C134.026 175.971 134.43 174.14 133.503 172.538C132.668 171.095 132.226 169.281 132.018 167.585C131.815 165.938 131.836 164.423 131.917 163.508C133.082 162.02 134.449 160.219 134.841 158.444C135.042 157.531 134.989 156.61 134.513 155.74C134.051 154.896 133.206 154.13 131.878 153.466C130.667 149.692 131.495 146.281 133.041 143.531C134.554 140.841 136.75 138.797 138.364 137.7C140.528 139.376 141.982 141.408 142.619 143.359C143.27 145.352 143.065 147.238 141.935 148.608C140.028 150.562 139.129 152.413 138.778 154.178C138.429 155.94 138.629 157.596 138.882 159.144C138.92 159.378 138.959 159.61 138.998 159.839C139.219 161.134 139.423 162.339 139.337 163.507C139.236 164.858 138.743 166.156 137.383 167.435C135.938 168.794 135.235 170.119 134.962 171.443C134.691 172.76 134.851 174.054 135.087 175.338C135.144 175.643 135.204 175.949 135.265 176.254C135.716 178.534 136.17 180.828 134.908 183.436C133.684 185.965 134.034 188.328 134.962 190.24C135.272 190.879 135.647 191.47 136.05 192C136.316 192.061 136.591 192.117 136.875 192.173Z" fill="#1C1C2A"/>
<path d="M114.392 126.302C117.05 124.487 119.87 123.124 120.572 124.657C121.907 127.57 124.576 125.717 125.377 123.598C126.178 121.48 126.445 122.01 127.78 125.187C128.351 126.547 128.727 125.869 129.242 124.94C129.93 123.698 130.867 122.007 132.851 124.127C134.524 125.913 136.072 124.133 137.527 122.461C139.09 120.664 140.544 118.991 141.928 122.009C142.827 123.971 143.484 126.084 144.102 128.073C144.708 130.021 145.277 131.851 146.001 133.307C145.857 132.609 146.249 132.649 146.465 132.864C147.8 134.188 148.067 133.129 148.334 131.805C148.548 130.746 148.779 127.635 148.868 126.213C144.797 123.261 141.709 118.891 140.249 116.67C134.91 117.995 133.919 118.038 133.652 114.331C128.58 115.39 117.636 119.249 114.432 126.213C114.419 126.242 114.405 126.272 114.392 126.302Z" fill="#1C1C2A"/>
<path d="M145.923 133.889C145.387 132.565 145.923 132.565 146.191 132.83C146.798 133.429 147.185 133.54 147.451 133.359C149.265 135.124 153.429 139.077 155.574 140.77C157.718 142.465 163.259 144.3 165.761 145.005C164.855 143.153 163.129 138.547 163.465 134.947C163.694 134.242 164.474 133.042 165.761 133.889C167.37 134.947 167.638 136.535 168.442 137.859C169.246 139.182 170.05 138.918 170.854 138.918C171.659 138.918 174.876 139.712 176.484 141.829C176.931 142.182 178.2 142.994 179.701 143.417C181.578 143.947 183.99 146.594 183.186 149.24C182.382 151.887 179.165 154.534 177.557 157.446C175.948 160.357 173.535 169.092 165.225 170.68C163.777 170.957 162.443 171.18 161.204 171.35C155.326 172.154 151.563 171.761 147.799 170.195C148.161 169.146 148.099 167.772 147.263 165.916C145.119 161.151 151.821 157.975 153.429 153.211C155.038 148.446 151.285 142.623 149.676 140.506C148.068 138.388 146.459 135.212 145.923 133.889Z" fill="#8CB9FF"/>
<path d="M157.941 141.978C159.462 144.123 162.428 147.117 166.121 147.471C171.606 147.999 172.389 142.99 171.867 140.617C169.516 142.462 165.337 144.044 165.598 140.353C165.634 139.839 165.676 139.351 165.715 138.886C165.901 136.692 166.043 135.02 165.4 133.644C164.264 133.046 163.572 134.152 163.36 134.818C163.033 138.403 164.716 142.99 165.598 144.836C163.813 144.321 160.439 143.203 157.941 141.978Z" fill="#7EAEFA"/>
<path d="M155.616 170.731C154.837 170.527 154.072 170.286 153.307 170.008C153.722 168.96 153.65 167.587 152.694 165.732C151.189 162.815 153.486 160.494 155.914 158.039C157.451 156.485 159.041 154.878 159.755 153.033C161.063 149.65 159.274 145.734 157.467 142.99C159.763 144.287 163.316 146.187 165.895 147.213C169.886 148.8 168.965 151.71 163.746 149.065C161.597 148.006 161.597 151.446 165.895 153.298C170.193 155.149 178.175 154.885 180.938 148.535C183.701 142.186 187.078 142.98 184.929 149.065C182.78 155.149 178.482 161.763 175.105 163.88C173.469 164.905 171.113 165.185 168.699 165.472C166.13 165.778 163.496 166.091 161.597 167.319C158.771 169.145 157.977 170.631 157.916 171.217C157.433 171.138 156.959 171.047 156.492 170.943L155.616 170.731Z" fill="#7EAEFA"/>
<path opacity="0.5" d="M147.759 169.203C147.885 168.272 147.699 167.122 147.031 165.68C145.685 162.773 147.74 160.458 149.914 158.011C151.289 156.463 152.711 154.86 153.35 153.021C153.445 152.747 153.522 152.469 153.582 152.189L156.647 155.131C158.57 156.977 165.163 157.239 168.459 156.449C166.262 157.768 163.515 158.03 158.295 157.239C153.075 156.448 151.427 158.821 154.449 160.404C157.471 161.986 166.262 159.613 169.284 157.503C166.548 162.039 161.335 162.686 157.519 163.159C157.12 163.208 156.736 163.256 156.372 163.306C155.031 163.49 153.558 163.353 152.241 163.231C149.78 163.003 147.868 162.826 148.405 164.888C148.997 167.162 148.304 168.613 147.759 169.203Z" fill="#70A2F2"/>
<path d="M150.84 90.0846C152.539 83.9427 157.742 83.8193 160.131 84.5254C161.458 84.7781 160.397 81.6135 164.909 81.084C169.422 80.5545 172.342 83.4668 173.67 85.5847C174.997 87.7026 176.059 89.8205 178.182 91.6734C179.244 94.8503 182.695 98.292 183.492 99.086C183.492 99.8804 183.798 105.142 183.798 107.525C188.311 104.084 186.411 100.939 187.474 98.0271C188.323 95.6975 187.65 94.2325 187.208 93.7913C187.297 92.5558 187.367 89.7144 186.942 88.2321C186.411 86.3787 184.553 86.1142 183.757 86.1142C184.288 84.7903 183.757 83.4668 182.961 82.9369C182.164 82.4075 181.368 81.084 180.306 78.9661C179.244 76.8482 174.997 73.4066 173.138 72.6124C171.281 71.8182 171.281 70.4945 170.75 69.965C163.848 63.876 157.742 66.5234 156.415 67.0529C155.087 67.5824 154.291 67.0529 153.76 66.7883C143.407 60.4345 136.771 69.4356 134.913 72.083C123.764 76.8483 119.782 82.9373 120.578 91.4089C121.374 99.8804 118.986 103.057 117.127 104.911C115.269 106.764 115.8 108.617 117.392 110.735C120.313 114.971 115.269 115.5 113.411 116.559C111.553 117.618 112.88 120.53 112.083 121.854C111.287 123.177 111.553 125.825 113.676 127.942C116.862 121.854 125.887 119.206 130.931 118.147C135.975 117.088 140.753 109.94 144.469 106.764C148.186 103.587 148.717 97.7622 150.84 90.0846Z" fill="#2B2B39"/>
<path opacity="0.5" d="M143.863 107.35C144.275 100.929 145.509 93.2707 148.077 87.4749C149.657 83.9097 151.726 81.0877 154.38 79.6692C156.981 78.2799 160.195 78.2109 164.176 80.2129C164.125 80.6099 164.022 80.986 163.882 81.3373C164.073 81.2844 164.278 81.2375 164.499 81.1977C164.612 80.8464 164.692 80.4743 164.727 80.0836C164.845 78.7534 164.437 77.2415 163.107 75.6586C161.677 73.957 160.209 72.6519 158.902 71.4903C158.501 71.1343 158.115 70.7917 157.751 70.4554C156.631 69.4227 155.707 68.4472 155.1 67.305C154.841 67.2716 154.615 67.1992 154.415 67.1158C154.859 68.105 155.512 68.9573 156.294 69.7769C155.022 69.2665 153.439 68.7999 151.738 68.574C148.361 68.1254 144.467 68.6224 141.64 71.6812C138.676 74.889 136.195 79.4851 134.192 84.2239C132.185 88.9667 130.649 93.8723 129.581 97.7138C128.521 101.524 126.735 105.392 124.361 108.401C122.595 110.64 120.515 112.389 118.179 113.297C118.146 113.531 118.073 113.744 117.966 113.94C120.587 113.037 122.879 111.139 124.781 108.727C127.207 105.652 129.021 101.716 130.095 97.8546C131.159 94.0249 132.69 89.1425 134.683 84.4286C136.679 79.7098 139.131 75.1797 142.033 72.0387C144.357 69.5238 147.461 68.8266 150.397 68.9802C147.546 70.0682 142.725 72.9069 139.213 78.3304C136.717 82.1841 135.252 87.7911 133.795 93.3649L133.679 93.8073C132.176 99.5558 130.652 105.22 128.018 109.009C125.923 112.023 122.995 113.868 120.175 114.95C117.791 115.865 115.495 116.23 113.869 116.295C113.661 116.383 113.471 116.472 113.305 116.566C113.206 116.623 113.116 116.684 113.034 116.75L113.031 116.83C114.711 116.875 117.479 116.552 120.368 115.444C123.259 114.334 126.286 112.433 128.457 109.309C131.156 105.427 132.699 99.6602 134.196 93.9401L134.297 93.5518C135.766 87.9334 137.213 82.3974 139.661 78.6162C143.646 72.4625 149.347 69.7207 151.719 69.1053C153.478 69.3445 155.106 69.8481 156.37 70.3806C153.144 70.5683 147.882 72.309 145.587 78.3804C144.803 80.4542 143.75 83.8494 142.513 87.8396L142.419 88.142C141.14 92.2673 139.666 97.0085 138.085 101.601C136.503 106.194 134.815 110.629 133.11 114.145C132.362 115.685 131.614 117.044 130.872 118.16C130.883 118.158 130.893 118.155 130.904 118.154C131.149 118.102 131.392 118.037 131.636 117.959C132.289 116.919 132.942 115.71 133.59 114.374C135.309 110.83 137.005 106.371 138.589 101.772C140.174 97.171 141.65 92.4223 142.929 88.2977L143.017 88.0138C144.259 84.0083 145.308 80.6245 146.086 78.5661C148.562 72.0147 154.642 70.7323 157.457 70.9066C157.812 71.233 158.182 71.5619 158.563 71.9004C159.866 73.0582 161.295 74.3284 162.697 75.9973C163.81 77.3215 164.211 78.5571 164.213 79.6397C160.205 77.6814 156.869 77.7386 154.127 79.2036C151.32 80.7033 149.189 83.6515 147.589 87.2616C144.909 93.3097 143.672 101.324 143.296 107.895C143.487 107.706 143.677 107.524 143.863 107.35Z" fill="#1C1C2A"/>
<path opacity="0.5" d="M117.797 111.561C120.878 110.443 122.685 107.734 123.889 104.421C124.63 102.384 125.149 100.103 125.6 97.7927C125.779 96.8737 125.947 95.9527 126.113 95.0401C126.367 93.6496 126.617 92.2784 126.899 90.9608C128.216 84.7976 132.148 76.6947 134.567 72.2689C134.297 72.3857 134.032 72.5034 133.77 72.6218C131.328 77.1721 127.652 84.8882 126.377 90.8512C126.094 92.1731 125.841 93.5616 125.586 94.9604C125.42 95.8719 125.253 96.7878 125.076 97.6922C124.627 99.9953 124.113 102.244 123.387 104.241C122.198 107.513 120.458 110.065 117.533 111.092C117.633 111.254 117.721 111.41 117.797 111.561Z" fill="#1C1C2A"/>
<path d="M183.515 99.7957C183.902 99.8263 184.292 99.8464 184.681 99.8574C185.466 99.8798 186.253 99.8649 187.009 99.8255C187.03 99.647 187.054 99.4696 187.083 99.2934C186.311 99.3358 185.502 99.3532 184.696 99.3303C184.292 99.3189 183.89 99.2973 183.496 99.2646C183.499 99.3996 183.506 99.5793 183.515 99.7957Z" fill="#3A0A44"/>
<path d="M178.403 92.2622C181.838 93.9669 185.202 94.3561 187.426 94.2721C187.327 94.0828 187.221 93.9397 187.125 93.8443L187.128 93.8065L187.132 93.7517C184.816 93.7947 181.326 93.3117 177.847 91.3724C177.955 91.4737 178.067 91.5743 178.181 91.6736C178.246 91.8692 178.321 92.0655 178.403 92.2622Z" fill="#3A0A44"/>
<path opacity="0.5" d="M160.209 73.0514C161.403 71.6874 165.117 69.6722 171.215 70.8981C171.312 71.0945 171.425 71.3042 171.576 71.5152C165.342 70.116 161.677 72.177 160.607 73.3995L160.209 73.0514Z" fill="#1C1C2A"/>
<path opacity="0.5" d="M181.783 86.1912C182.454 86.3162 183.131 86.2228 183.807 85.8096C183.775 85.9318 183.735 86.0552 183.686 86.1782C183.819 86.1782 183.984 86.1857 184.167 86.2074C183.363 86.7262 182.529 86.8678 181.686 86.7108C180.501 86.4901 179.347 85.6858 178.277 84.6501C176.609 83.0349 175.059 80.7676 173.839 78.9813C173.495 78.4766 173.176 78.0106 172.889 77.6085C171.917 76.249 170.284 75.9774 168.548 76.2425C166.817 76.5067 165.064 77.2966 163.981 77.946L163.709 77.4926C164.831 76.82 166.649 75.9975 168.468 75.7198C170.281 75.443 172.175 75.7001 173.319 77.3014C173.619 77.7209 173.947 78.1999 174.298 78.714C175.516 80.4967 177.02 82.6974 178.645 84.2701C179.691 85.2829 180.753 85.9988 181.783 86.1912Z" fill="#1C1C2A"/>
<path d="M164.261 73.8942C165.856 72.6506 169.845 71.176 173.036 75.2266C176.227 79.2775 179.33 81.8894 180.482 82.6889M167.984 79.2246C170.377 79.8464 175.536 81.9426 177.025 85.3536C178.887 89.6174 182.344 92.2825 185.003 92.0159M182.876 94.6806C183.319 95.3915 184.578 96.5994 186.067 95.7467M162.931 68.5649C164.084 68.3873 166.707 68.1918 167.984 68.8314" stroke="#151523" stroke-width="0.8"/>
<path d="M157.941 73.7795C154.409 73.6913 146.604 76.3215 143.638 87.5486M142.843 78.2811C140.812 82.0761 136.38 91.2557 134.897 97.6106C133.043 105.554 131.718 115.617 118.475 117.735M121.124 104.23C122.36 102.289 124.673 97.24 124.037 92.5796C123.243 86.7542 124.302 81.1938 129.07 78.0162M150.789 67.1597C146.11 66.8066 136.221 68.4307 134.102 77.7512C131.983 87.072 127.392 98.9344 125.361 103.7" stroke="#151523" stroke-width="0.8"/>
</g>
<path d="M396.955 81.994H321.86C318.542 81.994 315.853 84.7194 315.853 88.0819V105.338C315.853 108.7 318.542 111.426 321.86 111.426H383.058L401.791 117.598L396.639 111.426H396.955C400.272 111.426 402.961 108.7 402.961 105.338V88.0819C402.961 84.7194 400.272 81.994 396.955 81.994Z" fill="#FFBE56"/>
<path fill-rule="evenodd" clip-rule="evenodd" d="M335.991 99.0838C337.543 99.0838 338.801 97.8085 338.801 96.2354C338.801 94.6624 337.543 93.3871 335.991 93.3871C334.439 93.3871 333.182 94.6624 333.182 96.2354C333.182 97.8085 334.439 99.0838 335.991 99.0838ZM351.914 99.0838C353.466 99.0838 354.724 97.8085 354.724 96.2354C354.724 94.6624 353.466 93.3871 351.914 93.3871C350.362 93.3871 349.104 94.6624 349.104 96.2354C349.104 97.8085 350.362 99.0838 351.914 99.0838ZM370.179 96.2354C370.179 97.8085 368.92 99.0838 367.369 99.0838C365.817 99.0838 364.559 97.8085 364.559 96.2354C364.559 94.6624 365.817 93.3871 367.369 93.3871C368.92 93.3871 370.179 94.6624 370.179 96.2354ZM382.823 99.0838C384.375 99.0838 385.633 97.8085 385.633 96.2354C385.633 94.6624 384.375 93.3871 382.823 93.3871C381.271 93.3871 380.013 94.6624 380.013 96.2354C380.013 97.8085 381.271 99.0838 382.823 99.0838Z" fill="white"/>
<path d="M284.193 453.585C284.193 504.888 325.222 546.476 375.832 546.476C426.444 546.476 467.474 504.888 467.474 453.585C467.474 402.283 426.444 360.695 375.832 360.695C325.222 360.695 284.193 402.283 284.193 453.585Z" fill="white"/>
<path d="M375.832 545.476C325.787 545.476 285.193 504.348 285.193 453.585C285.193 402.823 325.787 361.695 375.832 361.695C425.879 361.695 466.474 402.823 466.474 453.585C466.474 504.348 425.879 545.476 375.832 545.476Z" stroke="#FFB000" stroke-opacity="0.55" stroke-width="2"/>
<path d="M393.278 392.569C383.975 412.119 368.004 400.46 364.336 392.567C371.613 392.565 369.281 377.613 368.236 370.137H389.732C389.326 381.652 391.926 389.89 393.278 392.569Z" fill="#FCC4AC"/>
<path d="M393.278 392.569C383.975 412.119 368.004 400.46 364.336 392.567C371.613 392.565 369.281 377.613 368.236 370.137H389.732C389.326 381.652 391.926 389.89 393.278 392.569Z" fill="url(#paint1_linear_88_2276)"/>
<path d="M344.366 402.197C344.256 434.157 335.643 518.681 334.367 531.836C333.693 538.795 350.448 544.877 369.211 546.238C393.585 548.005 413.973 539.673 418.372 535.873C419.585 497.886 421.506 414.966 421.506 407.919C412.388 401.334 399.331 395.17 393.278 392.569C381.264 400.114 372.675 397.537 367.034 391.699C358.555 393.304 348.324 399.751 344.366 402.197Z" fill="#307FE2"/>
<path d="M344.366 402.197C344.256 434.157 335.643 518.681 334.367 531.836C333.693 538.795 350.448 544.877 369.211 546.238C393.585 548.005 413.973 539.673 418.372 535.873C419.585 497.886 421.506 414.966 421.506 407.919C412.388 401.334 399.331 395.17 393.278 392.569C381.264 400.114 372.675 397.537 367.034 391.699C358.555 393.304 348.324 399.751 344.366 402.197Z" fill="url(#paint2_linear_88_2276)"/>
<path d="M344.366 402.197C344.256 434.157 335.643 518.681 334.367 531.836C333.693 538.795 350.448 544.877 369.211 546.238C393.585 548.005 413.973 539.673 418.372 535.873C419.585 497.886 421.506 414.966 421.506 407.919C412.388 401.334 399.331 395.17 393.278 392.569C381.264 400.114 372.675 397.537 367.034 391.699C358.555 393.304 348.324 399.751 344.366 402.197Z" fill="#FFB000"/>
<path opacity="0.35" d="M365.837 391.953C365.982 391.919 366.127 391.886 366.267 391.855C367.085 397.179 367.891 404.322 368.17 411.688C368.518 420.949 368.025 430.593 365.628 437.412C362.674 445.836 362.674 456.067 363.417 465.591C363.73 469.663 364.183 473.599 364.601 477.206V477.206V477.22C364.671 477.824 364.74 478.419 364.804 479.004C365.268 483.078 365.645 486.665 365.645 489.432C365.645 490.034 365.645 490.622 365.645 491.202C365.669 495.92 365.686 500.009 364.392 504.851C362.947 510.29 359.854 516.667 353.307 525.985C352.495 527.153 352.303 528.8 352.576 530.745C352.843 532.685 353.563 534.885 354.526 537.12C355.611 539.647 356.998 542.205 358.368 544.466C358.176 544.427 357.979 544.388 357.788 544.348C356.476 542.16 355.164 539.716 354.126 537.297C353.156 535.044 352.419 532.803 352.141 530.807C351.868 528.816 352.042 527.031 352.948 525.729V525.728C359.482 516.431 362.541 510.103 363.968 504.735C365.245 499.954 365.228 495.926 365.21 491.203V491.201C365.21 490.623 365.204 490.034 365.204 489.432C365.204 486.695 364.833 483.134 364.369 479.055C364.305 478.468 364.235 477.87 364.166 477.263V477.259V477.258C363.748 473.652 363.295 469.707 362.976 465.626C362.233 456.091 362.233 445.781 365.216 437.263C367.578 430.528 368.077 420.956 367.729 411.704C367.456 404.371 366.655 397.257 365.837 391.953Z" fill="white"/>
<path opacity="0.35" d="M337.863 537.415C338.072 537.561 338.287 537.705 338.513 537.849C337.654 535.782 337.016 533.759 336.766 531.96C336.499 530.015 336.685 528.367 337.497 527.199C344.044 517.882 347.137 511.504 348.588 506.066C349.876 501.223 349.859 497.135 349.841 492.416V492.407C349.836 491.831 349.836 491.245 349.836 490.647C349.836 487.879 349.464 484.292 349 480.219C348.93 479.634 348.861 479.039 348.791 478.434V478.421V478.42C348.373 474.814 347.92 470.878 347.607 466.806C346.864 457.281 346.864 447.05 349.824 438.626C352.215 431.808 352.708 422.164 352.36 412.902C352.163 407.686 351.704 402.583 351.159 398.157C351.019 398.234 350.88 398.311 350.747 398.388C351.281 402.761 351.727 407.786 351.919 412.919C352.267 422.17 351.768 431.742 349.406 438.478C346.423 446.995 346.423 457.306 347.166 466.84C347.485 470.922 347.938 474.867 348.356 478.473V478.473V478.478C348.425 479.085 348.495 479.683 348.565 480.269C349.029 484.349 349.394 487.909 349.394 490.647C349.394 491.248 349.4 491.836 349.4 492.413V492.417C349.418 497.14 349.435 501.169 348.164 505.951C346.731 511.317 343.672 517.646 337.138 526.942V526.943C336.232 528.246 336.058 530.03 336.331 532.021C336.563 533.693 337.12 535.536 337.863 537.415Z" fill="white"/>
<path opacity="0.35" d="M374.165 546.831C373.068 544.926 372 542.872 371.124 540.836C370.154 538.583 369.417 536.341 369.145 534.345C368.866 532.354 369.04 530.57 369.945 529.267V529.267C376.48 519.97 379.544 513.641 380.972 508.274C382.243 503.492 382.226 499.464 382.208 494.741V494.74C382.208 494.161 382.202 493.573 382.202 492.971C382.202 490.233 381.837 486.673 381.372 482.594C381.303 482.005 381.233 481.406 381.163 480.798V480.797C380.751 477.191 380.293 473.245 379.98 469.165C379.237 459.629 379.231 449.319 382.22 440.801C384.582 434.067 385.075 424.495 384.733 415.243C384.477 408.531 383.787 402.004 383.044 396.878C383.189 396.851 383.334 396.822 383.473 396.791C384.216 401.935 384.918 408.487 385.168 415.226C385.516 424.488 385.023 434.132 382.632 440.95C379.678 449.374 379.672 459.605 380.415 469.129C380.734 473.201 381.187 477.137 381.599 480.744V480.744C381.668 481.354 381.738 481.953 381.808 482.542C382.272 486.616 382.643 490.203 382.643 492.971C382.643 493.572 382.643 494.161 382.649 494.741C382.667 499.459 382.684 503.547 381.396 508.39C379.945 513.828 376.857 520.206 370.305 529.523C369.493 530.691 369.307 532.339 369.574 534.283C369.847 536.224 370.566 538.423 371.524 540.659C372.435 542.777 373.561 544.919 374.704 546.888C374.524 546.869 374.344 546.85 374.165 546.831Z" fill="white"/>
<path opacity="0.35" d="M392.318 547.991C390.983 545.777 389.648 543.292 388.592 540.835C387.623 538.582 386.886 536.341 386.607 534.345C386.334 532.354 386.508 530.569 387.414 529.267V529.266C393.948 519.969 397.007 513.641 398.44 508.274C399.711 503.492 399.694 499.464 399.676 494.741C399.676 494.162 399.671 493.573 399.671 492.971C399.671 490.233 399.305 486.672 398.841 482.593C398.771 482.005 398.701 481.406 398.632 480.798V480.797C398.22 477.191 397.761 473.245 397.448 469.164C396.699 459.629 396.699 449.319 399.688 440.801C402.05 434.067 402.543 424.494 402.201 415.243C401.928 408.052 401.15 401.073 400.355 395.803C400.512 395.879 400.669 395.956 400.831 396.034C401.615 401.283 402.369 408.152 402.636 415.226C402.984 424.488 402.491 434.131 400.1 440.95C397.146 449.374 397.14 459.605 397.883 469.129C398.202 473.202 398.655 477.138 399.067 480.744V480.752C399.137 481.358 399.206 481.956 399.276 482.542C399.74 486.616 400.112 490.202 400.112 492.971C400.112 493.571 400.112 494.16 400.117 494.739V494.74C400.135 499.459 400.152 503.547 398.864 508.39C397.413 513.828 394.326 520.206 387.773 529.523C386.961 530.691 386.775 532.338 387.042 534.283C387.315 536.223 388.035 538.423 388.992 540.658C390.077 543.183 391.464 545.74 392.834 548C392.66 547.997 392.492 547.994 392.318 547.991Z" fill="white"/>
<path opacity="0.35" d="M410.042 547.102C408.893 545.122 407.762 542.969 406.845 540.835C405.876 538.582 405.139 536.341 404.866 534.345C404.587 532.354 404.767 530.569 405.667 529.267L405.672 529.266C412.207 519.969 415.266 513.641 416.693 508.274C417.964 503.492 417.953 499.464 417.935 494.741C417.929 494.162 417.929 493.573 417.929 492.971C417.929 490.233 417.558 486.672 417.094 482.593C417.024 482.006 416.96 481.408 416.891 480.8V480.797C416.473 477.191 416.02 473.245 415.701 469.164C414.958 459.629 414.952 449.318 417.941 440.801C420.303 434.066 420.802 424.494 420.454 415.243C420.344 412.364 420.158 409.519 419.914 406.804C420.077 406.911 420.228 407.019 420.384 407.127C420.611 409.739 420.79 412.466 420.889 415.225C421.237 424.488 420.744 434.131 418.353 440.95C415.399 449.374 415.393 459.605 416.136 469.129C416.455 473.202 416.908 477.138 417.326 480.744C417.395 481.353 417.459 481.953 417.529 482.542C417.993 486.616 418.365 490.202 418.365 492.971C418.365 493.571 418.37 494.16 418.37 494.74C418.388 499.459 418.405 503.547 417.117 508.39C415.666 513.828 412.579 520.206 406.026 529.523C405.22 530.69 405.028 532.338 405.301 534.283C405.568 536.223 406.288 538.423 407.251 540.658C408.18 542.826 409.334 545.019 410.507 547.025C410.356 547.051 410.199 547.077 410.042 547.102Z" fill="white"/>
<path d="M355.201 338.706C354.911 345.401 355.201 361.762 355.201 373.746C355.201 394.003 385.153 378.296 389.732 370.136C398.751 354.066 388.78 339.574 386.877 338.706H355.201Z" fill="url(#paint3_linear_88_2276)"/>
<path d="M355.201 338.706C354.911 345.401 355.201 361.762 355.201 373.746C355.201 394.003 385.153 378.296 389.732 370.136C398.751 354.066 388.78 339.574 386.877 338.706H355.201Z" fill="#FCC4AC"/>
<path d="M390.207 332.802C396.753 331.541 395.796 336.915 395.418 337.789C411.059 342.157 392.047 374.181 389.714 374.848L389.696 368.872C389.673 366.491 394.269 364.064 391.756 359.879C388.419 354.324 387.694 365.24 387.694 365.24C385.326 363.977 384.467 354.917 386.673 349.791C378.931 353.253 373.853 346.804 372.872 344.962C367.411 348.18 359.042 346.888 356.35 344.237C355.92 345.716 355.067 348.468 355.067 353.287C348.822 349.878 345.602 337.296 348.904 338.444C348.48 313.388 370.295 322.396 372.872 325.374C375.443 328.352 376.052 327.518 376.389 327.295C385.582 322.746 390.05 327.254 389.191 330.125C388.327 332.997 389.952 332.859 390.207 332.802Z" fill="#6E000E"/>
<path d="M260.926 444.849C256.246 445.271 252.18 442.441 253.09 442.121C265.267 437.837 281.636 443.172 291.099 446.115C294.42 452.918 288.908 460.456 285.738 463.375C284.139 461.74 280.834 459.624 278.667 459.624C267.652 459.011 257.052 475.031 246.28 467.056C237.662 460.676 252.453 449.593 260.926 444.849Z" fill="#F4B88E"/>
<path d="M260.926 444.849C256.246 445.271 252.18 442.441 253.09 442.121C265.267 437.837 281.636 443.172 291.099 446.115C294.42 452.918 288.908 460.456 285.738 463.375C284.139 461.74 280.834 459.624 278.667 459.624C267.652 459.011 257.052 475.031 246.28 467.056C237.662 460.676 252.453 449.593 260.926 444.849Z" fill="#FCC4AC"/>
<path d="M344.364 402.193C345.508 423.621 342.043 460.53 339.408 479.311C336.623 486.389 277.336 464.351 278.911 460.09C280.487 455.829 284.433 449.584 286.381 444.569C287.718 441.127 321.842 457.339 323.103 451.524C324.366 445.709 325.337 413.031 344.364 402.193Z" fill="#307FE2"/>
<path d="M344.364 402.193C345.508 423.621 342.043 460.53 339.408 479.311C336.623 486.389 277.336 464.351 278.911 460.09C280.487 455.829 284.433 449.584 286.381 444.569C287.718 441.127 321.842 457.339 323.103 451.524C324.366 445.709 325.337 413.031 344.364 402.193Z" fill="url(#paint4_linear_88_2276)"/>
<path d="M344.364 402.193C345.508 423.621 342.043 460.53 339.408 479.311C336.623 486.389 277.336 464.351 278.911 460.09C280.487 455.829 284.433 449.584 286.381 444.569C287.718 441.127 321.842 457.339 323.103 451.524C324.366 445.709 325.337 413.031 344.364 402.193Z" fill="#FFB000"/>
<path opacity="0.35" fill-rule="evenodd" clip-rule="evenodd" d="M341.529 403.834C337.252 415.51 336.062 432.291 337.994 445.017C338.958 451.364 339.474 456.938 338.644 461.502C337.82 466.05 335.661 469.586 331.261 471.883C329.631 472.733 328.124 472.628 326.536 472.04C325.355 471.603 324.15 470.907 322.825 470.144C322.348 469.869 321.854 469.584 321.341 469.3C317.486 467.163 312.658 465.125 305.45 467.373C299.831 469.126 294.253 467.303 289.806 464.469C285.354 461.633 282.082 457.814 281.078 455.658L280.682 455.848C281.731 458.103 285.072 461.979 289.573 464.846C294.077 467.716 299.791 469.603 305.579 467.798C312.628 465.599 317.327 467.581 321.131 469.69C321.625 469.964 322.108 470.242 322.579 470.514C323.915 471.284 325.168 472.006 326.386 472.458C328.054 473.075 329.694 473.201 331.462 472.278C336.004 469.909 338.232 466.244 339.074 461.583C339.921 456.938 339.387 451.296 338.424 444.949C336.503 432.286 337.693 415.584 341.941 403.989L341.529 403.834ZM332.438 416.785C332.578 416.034 332.706 415.342 332.818 414.72L332.387 414.64C332.276 415.259 332.148 415.949 332.008 416.699C331.254 420.752 330.172 426.564 329.604 432.511C328.932 439.547 328.973 446.827 331.162 451.618C333.735 457.245 332.694 461.136 330.375 463.056C328.04 464.989 324.324 465.007 321.369 462.71C319.77 461.467 317.229 459.945 313.928 459.496C310.621 459.046 306.572 459.674 301.968 462.7C300.791 463.474 298.94 463.608 296.824 463.192C294.719 462.779 292.396 461.83 290.316 460.5C288.234 459.169 286.409 457.464 285.284 455.548C284.162 453.637 283.74 451.522 284.442 449.345L284.026 449.207C283.275 451.531 283.734 453.778 284.907 455.775C286.077 457.768 287.961 459.519 290.081 460.876C292.203 462.233 294.576 463.204 296.741 463.629C298.895 464.051 300.887 463.941 302.207 463.073C306.729 460.101 310.673 459.501 313.869 459.936C317.07 460.372 319.541 461.849 321.102 463.063C324.194 465.465 328.137 465.483 330.653 463.401C333.183 461.305 334.182 457.166 331.56 451.431C329.425 446.76 329.369 439.589 330.041 432.554C330.607 426.629 331.684 420.839 332.438 416.785Z" fill="white"/>
<path d="M286.381 444.569C284.433 449.585 280.487 455.829 278.911 460.09C278.642 460.82 280.157 462.071 282.867 463.608C287.219 460.342 290.982 449.822 292.319 444.971C289.012 444.064 286.709 443.725 286.381 444.569Z" fill="#8E9812"/>
<path d="M408.777 549.253C410.843 548.28 417.813 534.206 421.504 524.418L413.135 517.62C401.366 521.624 396.491 533.561 399.445 533.07C402.399 532.578 402.671 534.196 400.13 537.594C390.362 550.626 405.933 550.593 408.777 549.253Z" fill="#FCC4AC"/>
<path d="M446.215 476.257C451.42 458.862 434.497 418.456 421.503 407.92C421.503 412.222 420.691 432.13 420.25 458.563C427.707 472.108 409.322 513.31 407.604 516.786C405.881 520.261 420.9 533.252 423.355 528.225C425.81 523.199 440.359 495.817 446.215 476.257Z" fill="#307FE2"/>
<path d="M446.215 476.257C451.42 458.862 434.497 418.456 421.503 407.92C421.503 412.222 420.691 432.13 420.25 458.563C427.707 472.108 409.322 513.31 407.604 516.786C405.881 520.261 420.9 533.252 423.355 528.225C425.81 523.199 440.359 495.817 446.215 476.257Z" fill="url(#paint5_linear_88_2276)"/>
<path d="M446.215 476.257C451.42 458.862 434.497 418.456 421.503 407.92C421.503 412.222 420.691 432.13 420.25 458.563C427.707 472.108 409.322 513.31 407.604 516.786C405.881 520.261 420.9 533.252 423.355 528.225C425.81 523.199 440.359 495.817 446.215 476.257Z" fill="#FFB000"/>
<path opacity="0.35" fill-rule="evenodd" clip-rule="evenodd" d="M423.352 419.455C422.65 418.573 422.006 417.766 421.449 417.047L421.1 417.321C421.663 418.049 422.319 418.864 423.027 419.749C425.308 422.602 428.192 426.202 430.63 430.097C433.833 435.208 436.236 440.767 435.563 445.747C435.121 448.962 435.812 452.316 436.938 455.666C437.716 457.987 438.702 460.323 439.671 462.616C440.101 463.629 440.53 464.633 440.931 465.624C442.248 468.872 443.316 471.982 443.49 474.843C443.658 477.69 442.939 480.285 440.67 482.524C436.305 486.841 435.406 490.746 434.541 494.473C434.431 494.96 434.321 495.443 434.199 495.925C433.688 498.004 433.05 500.036 431.674 502.092C430.299 504.147 428.181 506.241 424.693 508.421C423.335 509.269 422.104 510.865 421.054 512.77C419.998 514.682 419.104 516.929 418.437 519.108C417.763 521.288 417.311 523.409 417.137 525.068C417.049 525.897 417.026 526.62 417.09 527.182C417.108 527.358 417.137 527.522 417.177 527.671C415.604 526.763 413.95 525.521 412.471 524.179C411.67 520.495 412.035 516.075 413.411 512.187C414.792 508.271 417.171 504.931 420.346 503.408C423.294 501.995 424.849 500.217 425.685 498.191C426.509 496.18 426.614 493.945 426.689 491.649C426.695 491.555 426.695 491.462 426.701 491.367C426.77 489.148 426.846 486.867 427.519 484.602C428.215 482.25 429.556 479.91 432.22 477.695C434.866 475.498 435.76 473.269 435.592 471.006C435.435 468.769 434.239 466.538 432.823 464.324C432.376 463.624 431.906 462.928 431.442 462.231C430.415 460.702 429.382 459.172 428.587 457.62C427.426 455.368 426.788 453.121 427.351 450.846C430.223 439.238 423.248 431.743 421.054 429.676L420.752 430.002C422.917 432.038 429.736 439.374 426.921 450.738C426.323 453.168 427.02 455.534 428.198 457.826C429.005 459.402 430.061 460.968 431.094 462.508C431.564 463.199 432.022 463.886 432.458 464.565C433.874 466.777 435.005 468.924 435.156 471.039C435.307 473.128 434.506 475.225 431.947 477.351C429.208 479.623 427.821 482.04 427.101 484.475C426.41 486.796 426.335 489.129 426.26 491.337C426.26 491.436 426.254 491.535 426.254 491.634C426.173 493.941 426.068 496.096 425.279 498.021C424.495 499.931 423.021 501.634 420.16 503.006C416.841 504.598 414.397 508.059 412.999 512.037C411.594 516.018 411.211 520.555 412.058 524.346L412.076 524.415L412.128 524.463C413.846 526.028 415.808 527.47 417.618 528.423L417.85 528.044C417.787 528.001 417.717 527.912 417.659 527.755C417.601 527.598 417.554 527.391 417.525 527.132C417.467 526.616 417.485 525.929 417.572 525.116C417.74 523.491 418.187 521.4 418.854 519.241C419.516 517.082 420.398 514.865 421.437 512.988C422.476 511.104 423.66 509.588 424.925 508.8C428.447 506.594 430.618 504.46 432.04 502.342C433.456 500.223 434.112 498.131 434.628 496.032C434.744 495.546 434.86 495.06 434.971 494.572C435.83 490.854 436.706 487.065 440.977 482.842C443.351 480.499 444.099 477.77 443.925 474.816C443.751 471.875 442.654 468.706 441.337 465.455C440.931 464.45 440.501 463.438 440.066 462.422C439.103 460.136 438.122 457.827 437.35 455.523C436.236 452.199 435.568 448.922 435.992 445.807C436.694 440.66 434.21 434.983 431.001 429.859C428.546 425.939 425.639 422.309 423.352 419.455Z" fill="white"/>
<path d="M415.811 496.21C420.431 482.693 424.464 466.215 420.251 458.563C431.568 466.606 422.973 484.602 415.811 496.21Z" fill="#8E9812"/>
<path d="M407.604 516.786C405.881 520.262 420.9 533.252 423.355 528.226C423.546 527.839 423.807 527.318 424.127 526.68C420.528 525.865 412.427 522.235 408.771 514.235C408.208 515.509 407.796 516.391 407.604 516.786Z" fill="#307FE2"/>
<path d="M407.604 516.786C405.881 520.262 420.9 533.252 423.355 528.226C423.546 527.839 423.807 527.318 424.127 526.68C420.528 525.865 412.427 522.235 408.771 514.235C408.208 515.509 407.796 516.391 407.604 516.786Z" fill="url(#paint6_linear_88_2276)"/>
<path d="M407.604 516.786C405.881 520.262 420.9 533.252 423.355 528.226C423.546 527.839 423.807 527.318 424.127 526.68C420.528 525.865 412.427 522.235 408.771 514.235C408.208 515.509 407.796 516.391 407.604 516.786Z" fill="#8E9812"/>
<path d="M300.95 356.251H225.854C222.537 356.251 219.848 358.977 219.848 362.339V379.595C219.848 382.957 222.537 385.683 225.854 385.683H287.052L305.785 391.855L300.634 385.683H300.95C304.266 385.683 306.956 382.957 306.956 379.595V362.339C306.956 358.977 304.266 356.251 300.95 356.251Z" fill="#EEE9FD"/>
<path fill-rule="evenodd" clip-rule="evenodd" d="M239.986 373.341C241.537 373.341 242.796 372.066 242.796 370.493C242.796 368.92 241.537 367.644 239.986 367.644C238.434 367.644 237.176 368.92 237.176 370.493C237.176 372.066 238.434 373.341 239.986 373.341ZM255.909 373.341C257.46 373.341 258.719 372.066 258.719 370.493C258.719 368.92 257.46 367.644 255.909 367.644C254.357 367.644 253.099 368.92 253.099 370.493C253.099 372.066 254.357 373.341 255.909 373.341ZM274.173 370.493C274.173 372.066 272.915 373.341 271.363 373.341C269.811 373.341 268.553 372.066 268.553 370.493C268.553 368.92 269.811 367.644 271.363 367.644C272.915 367.644 274.173 368.92 274.173 370.493ZM286.818 373.341C288.37 373.341 289.628 372.066 289.628 370.493C289.628 368.92 288.37 367.644 286.818 367.644C285.266 367.644 284.008 368.92 284.008 370.493C284.008 372.066 285.266 373.341 286.818 373.341Z" fill="#0057FF"/>
<defs>
<filter id="filter0_d_88_2276" x="0" y="0.759949" width="306.85" height="306.85" filterUnits="userSpaceOnUse" color-interpolation-filters="sRGB">
<feFlood flood-opacity="0" result="BackgroundImageFix"/>
<feColorMatrix in="SourceAlpha" type="matrix" values="0 0 0 0 0 0 0 0 0 0 0 0 0 0 0 0 0 0 127 0" result="hardAlpha"/>
<feOffset dy="-17"/>
<feGaussianBlur stdDeviation="29"/>
<feColorMatrix type="matrix" values="0 0 0 0 0.696557 0 0 0 0 0.836898 0 0 0 0 0.818186 0 0 0 0.05 0"/>
<feBlend mode="normal" in2="BackgroundImageFix" result="effect1_dropShadow_88_2276"/>
<feBlend mode="normal" in="SourceGraphic" in2="effect1_dropShadow_88_2276" result="shape"/>
</filter>
<linearGradient id="paint0_linear_88_2276" x1="533.593" y1="103.012" x2="537.479" y2="126.653" gradientUnits="userSpaceOnUse">
<stop stop-color="#F4AF8A"/>
<stop offset="1" stop-color="#F9C0A1" stop-opacity="0"/>
</linearGradient>
<linearGradient id="paint1_linear_88_2276" x1="372.896" y1="386.713" x2="382.42" y2="391.512" gradientUnits="userSpaceOnUse">
<stop stop-color="#F3AD8F"/>
<stop offset="1" stop-color="#FCC4AC" stop-opacity="0"/>
</linearGradient>
<linearGradient id="paint2_linear_88_2276" x1="407.432" y1="515.139" x2="383.61" y2="503.119" gradientUnits="userSpaceOnUse">
<stop stop-color="#026CF0"/>
<stop offset="1" stop-color="#307FE2" stop-opacity="0"/>
</linearGradient>
<linearGradient id="paint3_linear_88_2276" x1="352.155" y1="366.074" x2="370.819" y2="368.134" gradientUnits="userSpaceOnUse">
<stop stop-color="#FEA568"/>
<stop offset="1" stop-color="#F4B88E"/>
</linearGradient>
<linearGradient id="paint4_linear_88_2276" x1="317.591" y1="479.415" x2="318.849" y2="469.132" gradientUnits="userSpaceOnUse">
<stop stop-color="#0154F7"/>
<stop offset="1" stop-color="#307FE2" stop-opacity="0"/>
</linearGradient>
<linearGradient id="paint5_linear_88_2276" x1="445.251" y1="479.817" x2="436.767" y2="476.284" gradientUnits="userSpaceOnUse">
<stop stop-color="#0071FF"/>
<stop offset="1" stop-color="#307FE2" stop-opacity="0"/>
</linearGradient>
<linearGradient id="paint6_linear_88_2276" x1="445.251" y1="479.818" x2="436.767" y2="476.285" gradientUnits="userSpaceOnUse">
<stop stop-color="#0071FF"/>
<stop offset="1" stop-color="#307FE2" stop-opacity="0"/>
</linearGradient>
</defs>
</svg>
