<svg width="76" height="100" viewBox="0 0 76 100" fill="none" xmlns="http://www.w3.org/2000/svg">
<path fill-rule="evenodd" clip-rule="evenodd" d="M46.0813 0H13C9.68479 0 6.50537 1.31696 4.16116 3.66117C1.81696 6.00537 0.5 9.18479 0.5 12.5V87.5C0.5 90.8152 1.81696 93.9946 4.16116 96.3388C6.50537 98.683 9.68479 100 13 100H63C66.3152 100 69.4946 98.683 71.8388 96.3388C74.183 93.9946 75.5 90.8152 75.5 87.5V29.4187C75.4996 27.7613 74.8409 26.1718 73.6687 25L50.5 1.83125C49.3282 0.659067 47.7387 0.000353984 46.0813 0ZM47.375 21.875V9.375L66.125 28.125H53.625C51.9674 28.125 50.3777 27.4665 49.2056 26.2944C48.0335 25.1223 47.375 23.5326 47.375 21.875ZM51.6366 59.4455L53.2985 60.5581L54.9605 61.6707C57.1961 58.3314 58.5 54.3119 58.5 50C58.5 45.6881 57.1961 41.6686 54.9605 38.3293L53.2985 39.4419L51.6366 40.5545C53.4452 43.256 54.5 46.5048 54.5 50C54.5 53.4952 53.4452 56.744 51.6366 59.4455ZM48.0581 34.2015L46.9455 35.8634C44.244 34.0548 40.9952 33 37.5 33C34.0048 33 30.756 34.0548 28.0545 35.8634L26.9419 34.2015L25.8293 32.5395C29.1686 30.3039 33.1881 29 37.5 29C41.8119 29 45.8314 30.3039 49.1707 32.5395L48.0581 34.2015ZM20.5 50C20.5 46.5048 21.5548 43.256 23.3634 40.5545L21.7015 39.4419L20.0395 38.3293C17.8039 41.6686 16.5 45.6881 16.5 50C16.5 54.3119 17.8039 58.3314 20.0395 61.6707L21.7015 60.5581L23.3634 59.4455C21.5548 56.744 20.5 53.4952 20.5 50ZM26.9419 65.7985L28.0545 64.1366C30.756 65.9452 34.0048 67 37.5 67C40.9952 67 44.244 65.9452 46.9455 64.1366L48.0581 65.7986L49.1707 67.4605C45.8314 69.6961 41.8119 71 37.5 71C33.1881 71 29.1686 69.6961 25.8293 67.4605L26.9419 65.7985Z" fill="#0057FF"/>
</svg>
